G04 #@! TF.GenerationSoftware,KiCad,Pcbnew,(5.1.0-891-gf1f26a919-dirty)*
G04 #@! TF.CreationDate,2019-06-11T00:28:49+04:00*
G04 #@! TF.ProjectId,hdmishield,68646d69-7368-4696-956c-642e6b696361,rev?*
G04 #@! TF.SameCoordinates,Original*
G04 #@! TF.FileFunction,Legend,Bot*
G04 #@! TF.FilePolarity,Positive*
%FSLAX46Y46*%
G04 Gerber Fmt 4.6, Leading zero omitted, Abs format (unit mm)*
G04 Created by KiCad (PCBNEW (5.1.0-891-gf1f26a919-dirty)) date 2019-06-11 00:28:49*
%MOMM*%
%LPD*%
G04 APERTURE LIST*
%ADD10C,0.400000*%
%ADD11C,0.010000*%
%ADD12C,0.120000*%
%ADD13C,0.150000*%
G04 APERTURE END LIST*
D10*
X87095933Y-51323761D02*
X87095933Y-49323761D01*
X87095933Y-50276142D02*
X85953076Y-50276142D01*
X85953076Y-51323761D02*
X85953076Y-49323761D01*
X85000695Y-51323761D02*
X85000695Y-49323761D01*
X84524504Y-49323761D01*
X84238790Y-49419000D01*
X84048314Y-49609476D01*
X83953076Y-49799952D01*
X83857838Y-50180904D01*
X83857838Y-50466619D01*
X83953076Y-50847571D01*
X84048314Y-51038047D01*
X84238790Y-51228523D01*
X84524504Y-51323761D01*
X85000695Y-51323761D01*
X83000695Y-51323761D02*
X83000695Y-49323761D01*
X82334028Y-50752333D01*
X81667361Y-49323761D01*
X81667361Y-51323761D01*
X80714980Y-51323761D02*
X80714980Y-49323761D01*
X78524504Y-49990428D02*
X77762600Y-49990428D01*
X78238790Y-49323761D02*
X78238790Y-51038047D01*
X78143552Y-51228523D01*
X77953076Y-51323761D01*
X77762600Y-51323761D01*
X77286409Y-51323761D02*
X76238790Y-49990428D01*
X77286409Y-49990428D02*
X76238790Y-51323761D01*
D11*
G36*
X94607614Y-53321005D02*
G01*
X94532961Y-53358227D01*
X94467069Y-53426761D01*
X94448923Y-53452148D01*
X94429155Y-53485366D01*
X94416328Y-53521445D01*
X94408990Y-53569598D01*
X94405687Y-53639036D01*
X94404962Y-53730706D01*
X94408237Y-53856330D01*
X94419623Y-53950654D01*
X94441459Y-54021023D01*
X94476081Y-54074786D01*
X94525830Y-54119288D01*
X94529486Y-54121923D01*
X94578515Y-54148877D01*
X94637555Y-54162212D01*
X94712641Y-54165500D01*
X94834705Y-54165500D01*
X94834756Y-54283997D01*
X94835892Y-54349992D01*
X94842814Y-54388702D01*
X94860902Y-54411919D01*
X94895538Y-54431433D01*
X94903855Y-54435420D01*
X94942780Y-54454103D01*
X94972917Y-54465903D01*
X94995326Y-54466922D01*
X95011067Y-54453261D01*
X95021198Y-54421022D01*
X95026777Y-54366304D01*
X95028865Y-54285211D01*
X95028519Y-54173844D01*
X95026800Y-54028302D01*
X95026263Y-53984769D01*
X95024328Y-53834705D01*
X95022596Y-53736542D01*
X94834808Y-53736542D01*
X94833752Y-53819864D01*
X94829062Y-53874380D01*
X94818449Y-53910337D01*
X94799628Y-53937982D01*
X94786850Y-53951465D01*
X94734610Y-53990917D01*
X94688358Y-53994128D01*
X94640633Y-53961549D01*
X94639423Y-53960346D01*
X94620006Y-53935168D01*
X94608193Y-53900947D01*
X94602235Y-53848248D01*
X94600380Y-53767631D01*
X94600346Y-53749771D01*
X94604830Y-53638675D01*
X94619426Y-53561661D01*
X94645850Y-53514647D01*
X94685817Y-53493550D01*
X94708916Y-53491423D01*
X94763738Y-53501400D01*
X94801342Y-53534252D01*
X94823977Y-53594357D01*
X94833894Y-53686098D01*
X94834808Y-53736542D01*
X95022596Y-53736542D01*
X95022278Y-53718560D01*
X95019627Y-53631179D01*
X95015894Y-53567405D01*
X95010593Y-53522082D01*
X95003242Y-53490055D01*
X94993357Y-53466168D01*
X94980454Y-53445264D01*
X94974921Y-53437398D01*
X94901531Y-53363095D01*
X94808740Y-53320967D01*
X94701404Y-53309222D01*
X94607614Y-53321005D01*
X94607614Y-53321005D01*
G37*
X94607614Y-53321005D02*
X94532961Y-53358227D01*
X94467069Y-53426761D01*
X94448923Y-53452148D01*
X94429155Y-53485366D01*
X94416328Y-53521445D01*
X94408990Y-53569598D01*
X94405687Y-53639036D01*
X94404962Y-53730706D01*
X94408237Y-53856330D01*
X94419623Y-53950654D01*
X94441459Y-54021023D01*
X94476081Y-54074786D01*
X94525830Y-54119288D01*
X94529486Y-54121923D01*
X94578515Y-54148877D01*
X94637555Y-54162212D01*
X94712641Y-54165500D01*
X94834705Y-54165500D01*
X94834756Y-54283997D01*
X94835892Y-54349992D01*
X94842814Y-54388702D01*
X94860902Y-54411919D01*
X94895538Y-54431433D01*
X94903855Y-54435420D01*
X94942780Y-54454103D01*
X94972917Y-54465903D01*
X94995326Y-54466922D01*
X95011067Y-54453261D01*
X95021198Y-54421022D01*
X95026777Y-54366304D01*
X95028865Y-54285211D01*
X95028519Y-54173844D01*
X95026800Y-54028302D01*
X95026263Y-53984769D01*
X95024328Y-53834705D01*
X95022596Y-53736542D01*
X94834808Y-53736542D01*
X94833752Y-53819864D01*
X94829062Y-53874380D01*
X94818449Y-53910337D01*
X94799628Y-53937982D01*
X94786850Y-53951465D01*
X94734610Y-53990917D01*
X94688358Y-53994128D01*
X94640633Y-53961549D01*
X94639423Y-53960346D01*
X94620006Y-53935168D01*
X94608193Y-53900947D01*
X94602235Y-53848248D01*
X94600380Y-53767631D01*
X94600346Y-53749771D01*
X94604830Y-53638675D01*
X94619426Y-53561661D01*
X94645850Y-53514647D01*
X94685817Y-53493550D01*
X94708916Y-53491423D01*
X94763738Y-53501400D01*
X94801342Y-53534252D01*
X94823977Y-53594357D01*
X94833894Y-53686098D01*
X94834808Y-53736542D01*
X95022596Y-53736542D01*
X95022278Y-53718560D01*
X95019627Y-53631179D01*
X95015894Y-53567405D01*
X95010593Y-53522082D01*
X95003242Y-53490055D01*
X94993357Y-53466168D01*
X94980454Y-53445264D01*
X94974921Y-53437398D01*
X94901531Y-53363095D01*
X94808740Y-53320967D01*
X94701404Y-53309222D01*
X94607614Y-53321005D01*
G36*
X93104836Y-53331589D02*
G01*
X93042133Y-53367858D01*
X92998539Y-53403858D01*
X92966655Y-53441575D01*
X92944690Y-53487699D01*
X92930851Y-53548921D01*
X92923347Y-53631931D01*
X92920383Y-53743419D01*
X92920039Y-53823562D01*
X92920039Y-54118565D01*
X93086115Y-54193015D01*
X93095885Y-53869902D01*
X93099921Y-53749229D01*
X93104156Y-53661641D01*
X93109403Y-53601150D01*
X93116475Y-53561768D01*
X93126189Y-53537507D01*
X93139356Y-53522380D01*
X93143581Y-53519106D01*
X93207591Y-53493534D01*
X93272292Y-53503653D01*
X93310808Y-53530500D01*
X93326475Y-53549524D01*
X93337320Y-53574488D01*
X93344212Y-53612334D01*
X93348021Y-53670002D01*
X93349617Y-53754435D01*
X93349885Y-53842428D01*
X93349937Y-53952823D01*
X93351828Y-54030963D01*
X93358155Y-54083665D01*
X93371517Y-54117742D01*
X93394515Y-54140011D01*
X93429746Y-54157287D01*
X93476803Y-54175238D01*
X93528197Y-54194778D01*
X93522079Y-53847985D01*
X93519616Y-53722968D01*
X93516733Y-53630582D01*
X93512602Y-53564381D01*
X93506393Y-53517920D01*
X93497274Y-53484756D01*
X93484417Y-53458444D01*
X93468916Y-53435229D01*
X93394129Y-53361069D01*
X93302872Y-53318184D01*
X93203617Y-53307912D01*
X93104836Y-53331589D01*
X93104836Y-53331589D01*
G37*
X93104836Y-53331589D02*
X93042133Y-53367858D01*
X92998539Y-53403858D01*
X92966655Y-53441575D01*
X92944690Y-53487699D01*
X92930851Y-53548921D01*
X92923347Y-53631931D01*
X92920383Y-53743419D01*
X92920039Y-53823562D01*
X92920039Y-54118565D01*
X93086115Y-54193015D01*
X93095885Y-53869902D01*
X93099921Y-53749229D01*
X93104156Y-53661641D01*
X93109403Y-53601150D01*
X93116475Y-53561768D01*
X93126189Y-53537507D01*
X93139356Y-53522380D01*
X93143581Y-53519106D01*
X93207591Y-53493534D01*
X93272292Y-53503653D01*
X93310808Y-53530500D01*
X93326475Y-53549524D01*
X93337320Y-53574488D01*
X93344212Y-53612334D01*
X93348021Y-53670002D01*
X93349617Y-53754435D01*
X93349885Y-53842428D01*
X93349937Y-53952823D01*
X93351828Y-54030963D01*
X93358155Y-54083665D01*
X93371517Y-54117742D01*
X93394515Y-54140011D01*
X93429746Y-54157287D01*
X93476803Y-54175238D01*
X93528197Y-54194778D01*
X93522079Y-53847985D01*
X93519616Y-53722968D01*
X93516733Y-53630582D01*
X93512602Y-53564381D01*
X93506393Y-53517920D01*
X93497274Y-53484756D01*
X93484417Y-53458444D01*
X93468916Y-53435229D01*
X93394129Y-53361069D01*
X93302872Y-53318184D01*
X93203617Y-53307912D01*
X93104836Y-53331589D01*
G36*
X95359614Y-53323756D02*
G01*
X95268036Y-53371909D01*
X95200451Y-53449405D01*
X95176443Y-53499227D01*
X95157762Y-53574033D01*
X95148199Y-53668552D01*
X95147292Y-53771710D01*
X95154579Y-53872435D01*
X95169597Y-53959653D01*
X95191885Y-54022291D01*
X95198735Y-54033079D01*
X95279868Y-54113605D01*
X95376234Y-54161836D01*
X95480799Y-54175950D01*
X95586532Y-54154129D01*
X95615957Y-54141047D01*
X95673259Y-54100731D01*
X95723550Y-54047275D01*
X95728303Y-54040495D01*
X95747622Y-54007821D01*
X95760392Y-53972894D01*
X95767936Y-53926914D01*
X95771576Y-53861084D01*
X95772635Y-53766605D01*
X95772654Y-53745423D01*
X95772606Y-53738682D01*
X95577269Y-53738682D01*
X95576132Y-53827849D01*
X95571659Y-53887020D01*
X95562254Y-53925241D01*
X95546324Y-53951553D01*
X95538192Y-53960346D01*
X95491442Y-53993761D01*
X95446053Y-53992237D01*
X95400160Y-53963252D01*
X95372788Y-53932309D01*
X95356577Y-53887143D01*
X95347474Y-53815920D01*
X95346849Y-53807614D01*
X95345296Y-53678537D01*
X95361535Y-53582672D01*
X95395348Y-53520607D01*
X95446516Y-53492932D01*
X95464780Y-53491423D01*
X95512740Y-53499013D01*
X95545547Y-53525308D01*
X95565605Y-53575595D01*
X95575322Y-53655164D01*
X95577269Y-53738682D01*
X95772606Y-53738682D01*
X95771926Y-53644749D01*
X95768871Y-53574406D01*
X95762178Y-53525663D01*
X95750540Y-53489788D01*
X95732647Y-53458048D01*
X95728692Y-53452148D01*
X95662233Y-53372604D01*
X95589815Y-53326429D01*
X95501651Y-53308099D01*
X95471713Y-53307203D01*
X95359614Y-53323756D01*
X95359614Y-53323756D01*
G37*
X95359614Y-53323756D02*
X95268036Y-53371909D01*
X95200451Y-53449405D01*
X95176443Y-53499227D01*
X95157762Y-53574033D01*
X95148199Y-53668552D01*
X95147292Y-53771710D01*
X95154579Y-53872435D01*
X95169597Y-53959653D01*
X95191885Y-54022291D01*
X95198735Y-54033079D01*
X95279868Y-54113605D01*
X95376234Y-54161836D01*
X95480799Y-54175950D01*
X95586532Y-54154129D01*
X95615957Y-54141047D01*
X95673259Y-54100731D01*
X95723550Y-54047275D01*
X95728303Y-54040495D01*
X95747622Y-54007821D01*
X95760392Y-53972894D01*
X95767936Y-53926914D01*
X95771576Y-53861084D01*
X95772635Y-53766605D01*
X95772654Y-53745423D01*
X95772606Y-53738682D01*
X95577269Y-53738682D01*
X95576132Y-53827849D01*
X95571659Y-53887020D01*
X95562254Y-53925241D01*
X95546324Y-53951553D01*
X95538192Y-53960346D01*
X95491442Y-53993761D01*
X95446053Y-53992237D01*
X95400160Y-53963252D01*
X95372788Y-53932309D01*
X95356577Y-53887143D01*
X95347474Y-53815920D01*
X95346849Y-53807614D01*
X95345296Y-53678537D01*
X95361535Y-53582672D01*
X95395348Y-53520607D01*
X95446516Y-53492932D01*
X95464780Y-53491423D01*
X95512740Y-53499013D01*
X95545547Y-53525308D01*
X95565605Y-53575595D01*
X95575322Y-53655164D01*
X95577269Y-53738682D01*
X95772606Y-53738682D01*
X95771926Y-53644749D01*
X95768871Y-53574406D01*
X95762178Y-53525663D01*
X95750540Y-53489788D01*
X95732647Y-53458048D01*
X95728692Y-53452148D01*
X95662233Y-53372604D01*
X95589815Y-53326429D01*
X95501651Y-53308099D01*
X95471713Y-53307203D01*
X95359614Y-53323756D01*
G36*
X93842246Y-53336245D02*
G01*
X93765214Y-53388067D01*
X93705684Y-53462912D01*
X93670122Y-53558154D01*
X93662929Y-53628256D01*
X93663746Y-53657509D01*
X93670586Y-53679907D01*
X93689388Y-53699974D01*
X93726092Y-53722233D01*
X93786638Y-53751209D01*
X93876966Y-53791427D01*
X93877423Y-53791629D01*
X93960567Y-53829710D01*
X94028747Y-53863525D01*
X94074995Y-53889433D01*
X94092342Y-53903795D01*
X94092346Y-53903911D01*
X94077057Y-53935185D01*
X94041304Y-53969657D01*
X94000258Y-53994490D01*
X93979463Y-53999423D01*
X93922730Y-53982362D01*
X93873873Y-53939633D01*
X93850035Y-53892655D01*
X93827103Y-53858022D01*
X93782182Y-53818581D01*
X93729377Y-53784509D01*
X93682790Y-53765980D01*
X93673048Y-53764962D01*
X93662082Y-53781715D01*
X93661421Y-53824539D01*
X93669480Y-53882281D01*
X93684673Y-53943789D01*
X93705414Y-53997909D01*
X93706462Y-54000010D01*
X93768879Y-54087160D01*
X93849774Y-54146439D01*
X93941644Y-54175534D01*
X94036987Y-54172134D01*
X94128302Y-54133928D01*
X94132362Y-54131241D01*
X94204194Y-54066142D01*
X94251427Y-53981205D01*
X94277566Y-53869521D01*
X94281074Y-53838143D01*
X94287287Y-53690036D01*
X94279839Y-53620968D01*
X94092346Y-53620968D01*
X94089910Y-53664052D01*
X94076586Y-53676626D01*
X94043368Y-53667219D01*
X93991006Y-53644983D01*
X93932476Y-53617110D01*
X93931021Y-53616372D01*
X93881411Y-53590277D01*
X93861500Y-53572863D01*
X93866410Y-53554607D01*
X93887084Y-53530620D01*
X93939681Y-53495906D01*
X93996323Y-53493356D01*
X94047131Y-53518619D01*
X94082224Y-53567347D01*
X94092346Y-53620968D01*
X94279839Y-53620968D01*
X94274508Y-53571536D01*
X94241722Y-53477555D01*
X94196079Y-53411715D01*
X94113698Y-53345181D01*
X94022954Y-53312176D01*
X93930315Y-53310073D01*
X93842246Y-53336245D01*
X93842246Y-53336245D01*
G37*
X93842246Y-53336245D02*
X93765214Y-53388067D01*
X93705684Y-53462912D01*
X93670122Y-53558154D01*
X93662929Y-53628256D01*
X93663746Y-53657509D01*
X93670586Y-53679907D01*
X93689388Y-53699974D01*
X93726092Y-53722233D01*
X93786638Y-53751209D01*
X93876966Y-53791427D01*
X93877423Y-53791629D01*
X93960567Y-53829710D01*
X94028747Y-53863525D01*
X94074995Y-53889433D01*
X94092342Y-53903795D01*
X94092346Y-53903911D01*
X94077057Y-53935185D01*
X94041304Y-53969657D01*
X94000258Y-53994490D01*
X93979463Y-53999423D01*
X93922730Y-53982362D01*
X93873873Y-53939633D01*
X93850035Y-53892655D01*
X93827103Y-53858022D01*
X93782182Y-53818581D01*
X93729377Y-53784509D01*
X93682790Y-53765980D01*
X93673048Y-53764962D01*
X93662082Y-53781715D01*
X93661421Y-53824539D01*
X93669480Y-53882281D01*
X93684673Y-53943789D01*
X93705414Y-53997909D01*
X93706462Y-54000010D01*
X93768879Y-54087160D01*
X93849774Y-54146439D01*
X93941644Y-54175534D01*
X94036987Y-54172134D01*
X94128302Y-54133928D01*
X94132362Y-54131241D01*
X94204194Y-54066142D01*
X94251427Y-53981205D01*
X94277566Y-53869521D01*
X94281074Y-53838143D01*
X94287287Y-53690036D01*
X94279839Y-53620968D01*
X94092346Y-53620968D01*
X94089910Y-53664052D01*
X94076586Y-53676626D01*
X94043368Y-53667219D01*
X93991006Y-53644983D01*
X93932476Y-53617110D01*
X93931021Y-53616372D01*
X93881411Y-53590277D01*
X93861500Y-53572863D01*
X93866410Y-53554607D01*
X93887084Y-53530620D01*
X93939681Y-53495906D01*
X93996323Y-53493356D01*
X94047131Y-53518619D01*
X94082224Y-53567347D01*
X94092346Y-53620968D01*
X94279839Y-53620968D01*
X94274508Y-53571536D01*
X94241722Y-53477555D01*
X94196079Y-53411715D01*
X94113698Y-53345181D01*
X94022954Y-53312176D01*
X93930315Y-53310073D01*
X93842246Y-53336245D01*
G36*
X92216654Y-53228620D02*
G01*
X92210928Y-53308480D01*
X92204351Y-53355539D01*
X92195238Y-53376066D01*
X92181902Y-53376329D01*
X92177577Y-53373878D01*
X92120056Y-53356136D01*
X92045232Y-53357172D01*
X91969161Y-53375410D01*
X91921582Y-53399005D01*
X91872798Y-53436698D01*
X91837136Y-53479355D01*
X91812655Y-53533557D01*
X91797413Y-53605884D01*
X91789470Y-53702919D01*
X91786884Y-53831242D01*
X91786838Y-53855858D01*
X91786808Y-54132370D01*
X91848339Y-54153820D01*
X91892041Y-54168412D01*
X91916018Y-54175206D01*
X91916723Y-54175269D01*
X91919085Y-54156845D01*
X91921094Y-54106026D01*
X91922599Y-54029493D01*
X91923447Y-53933930D01*
X91923577Y-53875829D01*
X91923849Y-53761271D01*
X91925248Y-53679167D01*
X91928651Y-53622893D01*
X91934933Y-53585826D01*
X91944971Y-53561344D01*
X91959639Y-53542825D01*
X91968798Y-53533906D01*
X92031711Y-53497966D01*
X92100364Y-53495275D01*
X92162652Y-53525670D01*
X92174171Y-53536644D01*
X92191067Y-53557279D01*
X92202786Y-53581756D01*
X92210267Y-53617147D01*
X92214446Y-53670526D01*
X92216263Y-53748966D01*
X92216654Y-53857117D01*
X92216654Y-54132370D01*
X92278185Y-54153820D01*
X92321887Y-54168412D01*
X92345864Y-54175206D01*
X92346570Y-54175269D01*
X92348374Y-54156569D01*
X92350000Y-54103822D01*
X92351383Y-54022057D01*
X92352458Y-53916305D01*
X92353160Y-53791594D01*
X92353423Y-53652955D01*
X92353423Y-53118306D01*
X92226423Y-53064736D01*
X92216654Y-53228620D01*
X92216654Y-53228620D01*
G37*
X92216654Y-53228620D02*
X92210928Y-53308480D01*
X92204351Y-53355539D01*
X92195238Y-53376066D01*
X92181902Y-53376329D01*
X92177577Y-53373878D01*
X92120056Y-53356136D01*
X92045232Y-53357172D01*
X91969161Y-53375410D01*
X91921582Y-53399005D01*
X91872798Y-53436698D01*
X91837136Y-53479355D01*
X91812655Y-53533557D01*
X91797413Y-53605884D01*
X91789470Y-53702919D01*
X91786884Y-53831242D01*
X91786838Y-53855858D01*
X91786808Y-54132370D01*
X91848339Y-54153820D01*
X91892041Y-54168412D01*
X91916018Y-54175206D01*
X91916723Y-54175269D01*
X91919085Y-54156845D01*
X91921094Y-54106026D01*
X91922599Y-54029493D01*
X91923447Y-53933930D01*
X91923577Y-53875829D01*
X91923849Y-53761271D01*
X91925248Y-53679167D01*
X91928651Y-53622893D01*
X91934933Y-53585826D01*
X91944971Y-53561344D01*
X91959639Y-53542825D01*
X91968798Y-53533906D01*
X92031711Y-53497966D01*
X92100364Y-53495275D01*
X92162652Y-53525670D01*
X92174171Y-53536644D01*
X92191067Y-53557279D01*
X92202786Y-53581756D01*
X92210267Y-53617147D01*
X92214446Y-53670526D01*
X92216263Y-53748966D01*
X92216654Y-53857117D01*
X92216654Y-54132370D01*
X92278185Y-54153820D01*
X92321887Y-54168412D01*
X92345864Y-54175206D01*
X92346570Y-54175269D01*
X92348374Y-54156569D01*
X92350000Y-54103822D01*
X92351383Y-54022057D01*
X92352458Y-53916305D01*
X92353160Y-53791594D01*
X92353423Y-53652955D01*
X92353423Y-53118306D01*
X92226423Y-53064736D01*
X92216654Y-53228620D01*
G36*
X91322999Y-53362803D02*
G01*
X91246440Y-53391233D01*
X91245564Y-53391779D01*
X91198215Y-53426627D01*
X91163259Y-53467352D01*
X91138675Y-53520425D01*
X91122438Y-53592314D01*
X91112525Y-53689492D01*
X91106914Y-53818428D01*
X91106423Y-53836798D01*
X91099359Y-54113787D01*
X91158805Y-54144528D01*
X91201819Y-54165302D01*
X91227790Y-54175146D01*
X91228991Y-54175269D01*
X91233486Y-54157106D01*
X91237056Y-54108112D01*
X91239252Y-54036531D01*
X91239731Y-53978568D01*
X91239742Y-53884670D01*
X91244034Y-53825703D01*
X91258997Y-53797579D01*
X91291018Y-53796206D01*
X91346486Y-53817498D01*
X91430231Y-53856636D01*
X91491811Y-53889143D01*
X91523483Y-53917345D01*
X91532794Y-53948082D01*
X91532808Y-53949604D01*
X91517443Y-54002554D01*
X91471953Y-54031160D01*
X91402334Y-54035303D01*
X91352187Y-54034584D01*
X91325746Y-54049027D01*
X91309257Y-54083718D01*
X91299767Y-54127916D01*
X91313443Y-54152993D01*
X91318593Y-54156582D01*
X91367075Y-54170996D01*
X91434969Y-54173037D01*
X91504888Y-54163483D01*
X91554432Y-54146022D01*
X91622930Y-54087864D01*
X91661866Y-54006908D01*
X91669577Y-53943660D01*
X91663693Y-53886611D01*
X91642399Y-53840042D01*
X91600235Y-53798681D01*
X91531741Y-53757255D01*
X91431456Y-53710493D01*
X91425346Y-53707850D01*
X91335010Y-53666117D01*
X91279265Y-53631891D01*
X91255371Y-53601135D01*
X91260587Y-53569811D01*
X91292172Y-53533883D01*
X91301617Y-53525616D01*
X91364883Y-53493558D01*
X91430436Y-53494907D01*
X91487528Y-53526338D01*
X91525407Y-53584524D01*
X91528926Y-53595946D01*
X91563200Y-53651337D01*
X91606691Y-53678018D01*
X91669577Y-53704460D01*
X91669577Y-53636048D01*
X91650448Y-53536610D01*
X91593669Y-53445402D01*
X91564122Y-53414889D01*
X91496958Y-53375728D01*
X91411544Y-53358000D01*
X91322999Y-53362803D01*
X91322999Y-53362803D01*
G37*
X91322999Y-53362803D02*
X91246440Y-53391233D01*
X91245564Y-53391779D01*
X91198215Y-53426627D01*
X91163259Y-53467352D01*
X91138675Y-53520425D01*
X91122438Y-53592314D01*
X91112525Y-53689492D01*
X91106914Y-53818428D01*
X91106423Y-53836798D01*
X91099359Y-54113787D01*
X91158805Y-54144528D01*
X91201819Y-54165302D01*
X91227790Y-54175146D01*
X91228991Y-54175269D01*
X91233486Y-54157106D01*
X91237056Y-54108112D01*
X91239252Y-54036531D01*
X91239731Y-53978568D01*
X91239742Y-53884670D01*
X91244034Y-53825703D01*
X91258997Y-53797579D01*
X91291018Y-53796206D01*
X91346486Y-53817498D01*
X91430231Y-53856636D01*
X91491811Y-53889143D01*
X91523483Y-53917345D01*
X91532794Y-53948082D01*
X91532808Y-53949604D01*
X91517443Y-54002554D01*
X91471953Y-54031160D01*
X91402334Y-54035303D01*
X91352187Y-54034584D01*
X91325746Y-54049027D01*
X91309257Y-54083718D01*
X91299767Y-54127916D01*
X91313443Y-54152993D01*
X91318593Y-54156582D01*
X91367075Y-54170996D01*
X91434969Y-54173037D01*
X91504888Y-54163483D01*
X91554432Y-54146022D01*
X91622930Y-54087864D01*
X91661866Y-54006908D01*
X91669577Y-53943660D01*
X91663693Y-53886611D01*
X91642399Y-53840042D01*
X91600235Y-53798681D01*
X91531741Y-53757255D01*
X91431456Y-53710493D01*
X91425346Y-53707850D01*
X91335010Y-53666117D01*
X91279265Y-53631891D01*
X91255371Y-53601135D01*
X91260587Y-53569811D01*
X91292172Y-53533883D01*
X91301617Y-53525616D01*
X91364883Y-53493558D01*
X91430436Y-53494907D01*
X91487528Y-53526338D01*
X91525407Y-53584524D01*
X91528926Y-53595946D01*
X91563200Y-53651337D01*
X91606691Y-53678018D01*
X91669577Y-53704460D01*
X91669577Y-53636048D01*
X91650448Y-53536610D01*
X91593669Y-53445402D01*
X91564122Y-53414889D01*
X91496958Y-53375728D01*
X91411544Y-53358000D01*
X91322999Y-53362803D01*
G36*
X90663138Y-53361170D02*
G01*
X90574383Y-53393921D01*
X90502478Y-53451850D01*
X90474356Y-53492628D01*
X90443698Y-53567454D01*
X90444335Y-53621558D01*
X90476513Y-53657946D01*
X90488419Y-53664133D01*
X90539825Y-53683425D01*
X90566078Y-53678482D01*
X90574970Y-53646087D01*
X90575423Y-53628192D01*
X90591703Y-53562359D01*
X90634135Y-53516307D01*
X90693112Y-53494064D01*
X90759025Y-53499661D01*
X90812605Y-53528729D01*
X90830702Y-53545310D01*
X90843529Y-53565425D01*
X90852194Y-53595832D01*
X90857804Y-53643288D01*
X90861465Y-53714550D01*
X90864285Y-53816375D01*
X90865016Y-53848615D01*
X90867680Y-53958910D01*
X90870708Y-54036536D01*
X90875250Y-54087896D01*
X90882454Y-54119390D01*
X90893467Y-54137420D01*
X90909440Y-54148388D01*
X90919666Y-54153233D01*
X90963094Y-54169801D01*
X90988658Y-54175269D01*
X90997105Y-54157007D01*
X91002261Y-54101796D01*
X91004154Y-54008999D01*
X91002811Y-53877978D01*
X91002393Y-53857769D01*
X90999442Y-53738233D01*
X90995952Y-53650949D01*
X90990986Y-53589091D01*
X90983607Y-53545836D01*
X90972876Y-53514360D01*
X90957855Y-53487839D01*
X90949998Y-53476475D01*
X90904947Y-53426192D01*
X90854560Y-53387081D01*
X90848392Y-53383667D01*
X90758042Y-53356712D01*
X90663138Y-53361170D01*
X90663138Y-53361170D01*
G37*
X90663138Y-53361170D02*
X90574383Y-53393921D01*
X90502478Y-53451850D01*
X90474356Y-53492628D01*
X90443698Y-53567454D01*
X90444335Y-53621558D01*
X90476513Y-53657946D01*
X90488419Y-53664133D01*
X90539825Y-53683425D01*
X90566078Y-53678482D01*
X90574970Y-53646087D01*
X90575423Y-53628192D01*
X90591703Y-53562359D01*
X90634135Y-53516307D01*
X90693112Y-53494064D01*
X90759025Y-53499661D01*
X90812605Y-53528729D01*
X90830702Y-53545310D01*
X90843529Y-53565425D01*
X90852194Y-53595832D01*
X90857804Y-53643288D01*
X90861465Y-53714550D01*
X90864285Y-53816375D01*
X90865016Y-53848615D01*
X90867680Y-53958910D01*
X90870708Y-54036536D01*
X90875250Y-54087896D01*
X90882454Y-54119390D01*
X90893467Y-54137420D01*
X90909440Y-54148388D01*
X90919666Y-54153233D01*
X90963094Y-54169801D01*
X90988658Y-54175269D01*
X90997105Y-54157007D01*
X91002261Y-54101796D01*
X91004154Y-54008999D01*
X91002811Y-53877978D01*
X91002393Y-53857769D01*
X90999442Y-53738233D01*
X90995952Y-53650949D01*
X90990986Y-53589091D01*
X90983607Y-53545836D01*
X90972876Y-53514360D01*
X90957855Y-53487839D01*
X90949998Y-53476475D01*
X90904947Y-53426192D01*
X90854560Y-53387081D01*
X90848392Y-53383667D01*
X90758042Y-53356712D01*
X90663138Y-53361170D01*
G36*
X89774419Y-53516789D02*
G01*
X89774667Y-53662820D01*
X89775628Y-53775155D01*
X89777706Y-53859178D01*
X89781307Y-53920269D01*
X89786835Y-53963809D01*
X89794696Y-53995179D01*
X89805293Y-54019762D01*
X89813318Y-54033794D01*
X89879772Y-54109888D01*
X89964030Y-54157584D01*
X90057251Y-54174699D01*
X90150600Y-54159046D01*
X90206188Y-54130918D01*
X90264543Y-54082260D01*
X90304314Y-54022833D01*
X90328310Y-53945007D01*
X90339339Y-53841152D01*
X90340901Y-53764962D01*
X90340691Y-53759486D01*
X90204192Y-53759486D01*
X90203359Y-53846855D01*
X90199539Y-53904692D01*
X90190754Y-53942529D01*
X90175026Y-53969898D01*
X90156234Y-53990542D01*
X90093125Y-54030390D01*
X90025363Y-54033795D01*
X89961321Y-54000525D01*
X89956336Y-53996017D01*
X89935061Y-53972567D01*
X89921721Y-53944666D01*
X89914499Y-53903141D01*
X89911577Y-53838816D01*
X89911115Y-53767700D01*
X89912117Y-53678358D01*
X89916262Y-53618758D01*
X89925264Y-53579589D01*
X89940833Y-53551540D01*
X89953598Y-53536644D01*
X90012900Y-53499075D01*
X90081199Y-53494557D01*
X90146390Y-53523253D01*
X90158972Y-53533906D01*
X90180389Y-53557563D01*
X90193756Y-53585751D01*
X90200934Y-53627745D01*
X90203781Y-53692819D01*
X90204192Y-53759486D01*
X90340691Y-53759486D01*
X90336178Y-53642265D01*
X90320138Y-53550077D01*
X90289972Y-53480769D01*
X90242871Y-53426711D01*
X90206188Y-53399005D01*
X90139510Y-53369072D01*
X90062228Y-53355178D01*
X89990390Y-53358897D01*
X89950192Y-53373900D01*
X89934418Y-53378170D01*
X89923950Y-53362250D01*
X89916644Y-53319589D01*
X89911115Y-53254606D01*
X89905063Y-53182232D01*
X89896656Y-53138687D01*
X89881359Y-53113787D01*
X89854636Y-53097345D01*
X89837846Y-53090064D01*
X89774346Y-53063463D01*
X89774419Y-53516789D01*
X89774419Y-53516789D01*
G37*
X89774419Y-53516789D02*
X89774667Y-53662820D01*
X89775628Y-53775155D01*
X89777706Y-53859178D01*
X89781307Y-53920269D01*
X89786835Y-53963809D01*
X89794696Y-53995179D01*
X89805293Y-54019762D01*
X89813318Y-54033794D01*
X89879772Y-54109888D01*
X89964030Y-54157584D01*
X90057251Y-54174699D01*
X90150600Y-54159046D01*
X90206188Y-54130918D01*
X90264543Y-54082260D01*
X90304314Y-54022833D01*
X90328310Y-53945007D01*
X90339339Y-53841152D01*
X90340901Y-53764962D01*
X90340691Y-53759486D01*
X90204192Y-53759486D01*
X90203359Y-53846855D01*
X90199539Y-53904692D01*
X90190754Y-53942529D01*
X90175026Y-53969898D01*
X90156234Y-53990542D01*
X90093125Y-54030390D01*
X90025363Y-54033795D01*
X89961321Y-54000525D01*
X89956336Y-53996017D01*
X89935061Y-53972567D01*
X89921721Y-53944666D01*
X89914499Y-53903141D01*
X89911577Y-53838816D01*
X89911115Y-53767700D01*
X89912117Y-53678358D01*
X89916262Y-53618758D01*
X89925264Y-53579589D01*
X89940833Y-53551540D01*
X89953598Y-53536644D01*
X90012900Y-53499075D01*
X90081199Y-53494557D01*
X90146390Y-53523253D01*
X90158972Y-53533906D01*
X90180389Y-53557563D01*
X90193756Y-53585751D01*
X90200934Y-53627745D01*
X90203781Y-53692819D01*
X90204192Y-53759486D01*
X90340691Y-53759486D01*
X90336178Y-53642265D01*
X90320138Y-53550077D01*
X90289972Y-53480769D01*
X90242871Y-53426711D01*
X90206188Y-53399005D01*
X90139510Y-53369072D01*
X90062228Y-53355178D01*
X89990390Y-53358897D01*
X89950192Y-53373900D01*
X89934418Y-53378170D01*
X89923950Y-53362250D01*
X89916644Y-53319589D01*
X89911115Y-53254606D01*
X89905063Y-53182232D01*
X89896656Y-53138687D01*
X89881359Y-53113787D01*
X89854636Y-53097345D01*
X89837846Y-53090064D01*
X89774346Y-53063463D01*
X89774419Y-53516789D01*
G36*
X88980571Y-53373162D02*
G01*
X88977589Y-53424568D01*
X88975253Y-53502692D01*
X88973751Y-53601357D01*
X88973269Y-53704843D01*
X88973269Y-54055033D01*
X89035099Y-54116863D01*
X89077707Y-54154962D01*
X89115110Y-54170395D01*
X89166230Y-54169418D01*
X89186522Y-54166933D01*
X89249946Y-54159700D01*
X89302405Y-54155555D01*
X89315192Y-54155172D01*
X89358301Y-54157676D01*
X89419956Y-54163962D01*
X89443862Y-54166933D01*
X89502578Y-54171528D01*
X89542036Y-54161546D01*
X89581162Y-54130728D01*
X89595285Y-54116863D01*
X89657115Y-54055033D01*
X89657115Y-53400003D01*
X89607350Y-53377329D01*
X89564498Y-53360534D01*
X89539427Y-53354654D01*
X89532999Y-53373236D01*
X89526991Y-53425155D01*
X89521803Y-53504672D01*
X89517836Y-53606046D01*
X89515923Y-53691692D01*
X89510577Y-54028731D01*
X89463940Y-54035325D01*
X89421524Y-54030714D01*
X89400740Y-54015787D01*
X89394930Y-53987877D01*
X89389970Y-53928425D01*
X89386254Y-53844966D01*
X89384176Y-53745032D01*
X89383876Y-53693604D01*
X89383577Y-53397554D01*
X89322046Y-53376104D01*
X89278496Y-53361520D01*
X89254806Y-53354719D01*
X89254123Y-53354654D01*
X89251746Y-53373142D01*
X89249134Y-53424406D01*
X89246505Y-53502149D01*
X89244079Y-53600074D01*
X89242385Y-53691692D01*
X89237039Y-54028731D01*
X89119808Y-54028731D01*
X89114428Y-53721246D01*
X89109049Y-53413761D01*
X89051899Y-53384207D01*
X89009703Y-53363913D01*
X88984730Y-53354704D01*
X88984009Y-53354654D01*
X88980571Y-53373162D01*
X88980571Y-53373162D01*
G37*
X88980571Y-53373162D02*
X88977589Y-53424568D01*
X88975253Y-53502692D01*
X88973751Y-53601357D01*
X88973269Y-53704843D01*
X88973269Y-54055033D01*
X89035099Y-54116863D01*
X89077707Y-54154962D01*
X89115110Y-54170395D01*
X89166230Y-54169418D01*
X89186522Y-54166933D01*
X89249946Y-54159700D01*
X89302405Y-54155555D01*
X89315192Y-54155172D01*
X89358301Y-54157676D01*
X89419956Y-54163962D01*
X89443862Y-54166933D01*
X89502578Y-54171528D01*
X89542036Y-54161546D01*
X89581162Y-54130728D01*
X89595285Y-54116863D01*
X89657115Y-54055033D01*
X89657115Y-53400003D01*
X89607350Y-53377329D01*
X89564498Y-53360534D01*
X89539427Y-53354654D01*
X89532999Y-53373236D01*
X89526991Y-53425155D01*
X89521803Y-53504672D01*
X89517836Y-53606046D01*
X89515923Y-53691692D01*
X89510577Y-54028731D01*
X89463940Y-54035325D01*
X89421524Y-54030714D01*
X89400740Y-54015787D01*
X89394930Y-53987877D01*
X89389970Y-53928425D01*
X89386254Y-53844966D01*
X89384176Y-53745032D01*
X89383876Y-53693604D01*
X89383577Y-53397554D01*
X89322046Y-53376104D01*
X89278496Y-53361520D01*
X89254806Y-53354719D01*
X89254123Y-53354654D01*
X89251746Y-53373142D01*
X89249134Y-53424406D01*
X89246505Y-53502149D01*
X89244079Y-53600074D01*
X89242385Y-53691692D01*
X89237039Y-54028731D01*
X89119808Y-54028731D01*
X89114428Y-53721246D01*
X89109049Y-53413761D01*
X89051899Y-53384207D01*
X89009703Y-53363913D01*
X88984730Y-53354704D01*
X88984009Y-53354654D01*
X88980571Y-53373162D01*
G36*
X88489167Y-53370028D02*
G01*
X88432910Y-53395617D01*
X88388753Y-53426624D01*
X88356399Y-53461295D01*
X88334062Y-53506020D01*
X88319954Y-53567192D01*
X88312289Y-53651201D01*
X88309280Y-53764440D01*
X88308962Y-53839009D01*
X88308962Y-54129920D01*
X88358727Y-54152595D01*
X88397924Y-54169167D01*
X88417343Y-54175269D01*
X88421058Y-54157110D01*
X88424005Y-54108148D01*
X88425809Y-54036653D01*
X88426192Y-53979885D01*
X88427839Y-53897871D01*
X88432278Y-53832809D01*
X88438760Y-53792967D01*
X88443910Y-53784500D01*
X88478523Y-53793146D01*
X88532860Y-53815323D01*
X88595778Y-53845386D01*
X88656132Y-53877692D01*
X88702779Y-53906598D01*
X88724574Y-53926461D01*
X88724661Y-53926675D01*
X88722786Y-53963435D01*
X88705975Y-53998526D01*
X88676461Y-54027028D01*
X88633384Y-54036561D01*
X88596568Y-54035450D01*
X88544426Y-54034633D01*
X88517056Y-54046849D01*
X88500618Y-54079124D01*
X88498545Y-54085210D01*
X88491419Y-54131239D01*
X88510476Y-54159187D01*
X88560147Y-54172507D01*
X88613803Y-54174970D01*
X88710358Y-54156710D01*
X88760341Y-54130631D01*
X88822071Y-54069368D01*
X88854810Y-53994170D01*
X88857747Y-53914711D01*
X88830076Y-53840667D01*
X88788453Y-53794269D01*
X88746896Y-53768293D01*
X88681578Y-53735407D01*
X88605462Y-53702057D01*
X88592774Y-53696961D01*
X88509167Y-53660065D01*
X88460970Y-53627546D01*
X88445470Y-53595218D01*
X88459950Y-53558894D01*
X88484808Y-53530500D01*
X88543561Y-53495539D01*
X88608207Y-53492917D01*
X88667492Y-53519858D01*
X88710161Y-53573588D01*
X88715761Y-53587450D01*
X88748367Y-53638436D01*
X88795970Y-53676287D01*
X88856039Y-53707350D01*
X88856039Y-53619268D01*
X88852503Y-53565451D01*
X88837344Y-53523034D01*
X88803732Y-53477779D01*
X88771465Y-53442920D01*
X88721291Y-53393562D01*
X88682307Y-53367047D01*
X88640436Y-53356411D01*
X88593040Y-53354654D01*
X88489167Y-53370028D01*
X88489167Y-53370028D01*
G37*
X88489167Y-53370028D02*
X88432910Y-53395617D01*
X88388753Y-53426624D01*
X88356399Y-53461295D01*
X88334062Y-53506020D01*
X88319954Y-53567192D01*
X88312289Y-53651201D01*
X88309280Y-53764440D01*
X88308962Y-53839009D01*
X88308962Y-54129920D01*
X88358727Y-54152595D01*
X88397924Y-54169167D01*
X88417343Y-54175269D01*
X88421058Y-54157110D01*
X88424005Y-54108148D01*
X88425809Y-54036653D01*
X88426192Y-53979885D01*
X88427839Y-53897871D01*
X88432278Y-53832809D01*
X88438760Y-53792967D01*
X88443910Y-53784500D01*
X88478523Y-53793146D01*
X88532860Y-53815323D01*
X88595778Y-53845386D01*
X88656132Y-53877692D01*
X88702779Y-53906598D01*
X88724574Y-53926461D01*
X88724661Y-53926675D01*
X88722786Y-53963435D01*
X88705975Y-53998526D01*
X88676461Y-54027028D01*
X88633384Y-54036561D01*
X88596568Y-54035450D01*
X88544426Y-54034633D01*
X88517056Y-54046849D01*
X88500618Y-54079124D01*
X88498545Y-54085210D01*
X88491419Y-54131239D01*
X88510476Y-54159187D01*
X88560147Y-54172507D01*
X88613803Y-54174970D01*
X88710358Y-54156710D01*
X88760341Y-54130631D01*
X88822071Y-54069368D01*
X88854810Y-53994170D01*
X88857747Y-53914711D01*
X88830076Y-53840667D01*
X88788453Y-53794269D01*
X88746896Y-53768293D01*
X88681578Y-53735407D01*
X88605462Y-53702057D01*
X88592774Y-53696961D01*
X88509167Y-53660065D01*
X88460970Y-53627546D01*
X88445470Y-53595218D01*
X88459950Y-53558894D01*
X88484808Y-53530500D01*
X88543561Y-53495539D01*
X88608207Y-53492917D01*
X88667492Y-53519858D01*
X88710161Y-53573588D01*
X88715761Y-53587450D01*
X88748367Y-53638436D01*
X88795970Y-53676287D01*
X88856039Y-53707350D01*
X88856039Y-53619268D01*
X88852503Y-53565451D01*
X88837344Y-53523034D01*
X88803732Y-53477779D01*
X88771465Y-53442920D01*
X88721291Y-53393562D01*
X88682307Y-53367047D01*
X88640436Y-53356411D01*
X88593040Y-53354654D01*
X88489167Y-53370028D01*
G36*
X87805693Y-53373282D02*
G01*
X87782339Y-53383488D01*
X87726598Y-53427634D01*
X87678931Y-53491467D01*
X87649452Y-53559587D01*
X87644654Y-53593170D01*
X87660740Y-53640056D01*
X87696025Y-53664865D01*
X87733856Y-53679887D01*
X87751179Y-53682655D01*
X87759614Y-53662566D01*
X87776270Y-53618851D01*
X87783577Y-53599098D01*
X87824552Y-53530771D01*
X87883878Y-53496691D01*
X87959948Y-53497739D01*
X87965582Y-53499081D01*
X88006195Y-53518336D01*
X88036052Y-53555875D01*
X88056445Y-53616309D01*
X88068664Y-53704251D01*
X88074000Y-53824313D01*
X88074500Y-53888198D01*
X88074748Y-53988903D01*
X88076374Y-54057554D01*
X88080699Y-54101173D01*
X88089046Y-54126782D01*
X88102735Y-54141403D01*
X88123089Y-54152058D01*
X88124266Y-54152595D01*
X88163462Y-54169167D01*
X88182881Y-54175269D01*
X88185865Y-54156819D01*
X88188419Y-54105823D01*
X88190360Y-54028808D01*
X88191503Y-53932305D01*
X88191731Y-53861684D01*
X88190568Y-53725025D01*
X88186021Y-53621351D01*
X88176501Y-53544608D01*
X88160419Y-53488746D01*
X88136187Y-53447712D01*
X88102214Y-53415454D01*
X88068667Y-53392940D01*
X87988001Y-53362976D01*
X87894119Y-53356218D01*
X87805693Y-53373282D01*
X87805693Y-53373282D01*
G37*
X87805693Y-53373282D02*
X87782339Y-53383488D01*
X87726598Y-53427634D01*
X87678931Y-53491467D01*
X87649452Y-53559587D01*
X87644654Y-53593170D01*
X87660740Y-53640056D01*
X87696025Y-53664865D01*
X87733856Y-53679887D01*
X87751179Y-53682655D01*
X87759614Y-53662566D01*
X87776270Y-53618851D01*
X87783577Y-53599098D01*
X87824552Y-53530771D01*
X87883878Y-53496691D01*
X87959948Y-53497739D01*
X87965582Y-53499081D01*
X88006195Y-53518336D01*
X88036052Y-53555875D01*
X88056445Y-53616309D01*
X88068664Y-53704251D01*
X88074000Y-53824313D01*
X88074500Y-53888198D01*
X88074748Y-53988903D01*
X88076374Y-54057554D01*
X88080699Y-54101173D01*
X88089046Y-54126782D01*
X88102735Y-54141403D01*
X88123089Y-54152058D01*
X88124266Y-54152595D01*
X88163462Y-54169167D01*
X88182881Y-54175269D01*
X88185865Y-54156819D01*
X88188419Y-54105823D01*
X88190360Y-54028808D01*
X88191503Y-53932305D01*
X88191731Y-53861684D01*
X88190568Y-53725025D01*
X88186021Y-53621351D01*
X88176501Y-53544608D01*
X88160419Y-53488746D01*
X88136187Y-53447712D01*
X88102214Y-53415454D01*
X88068667Y-53392940D01*
X87988001Y-53362976D01*
X87894119Y-53356218D01*
X87805693Y-53373282D01*
G36*
X87131276Y-53384338D02*
G01*
X87053972Y-53434861D01*
X87016686Y-53480090D01*
X86987147Y-53562163D01*
X86984801Y-53627107D01*
X86990115Y-53713945D01*
X87190385Y-53801603D01*
X87287761Y-53846387D01*
X87351387Y-53882413D01*
X87384471Y-53913617D01*
X87390220Y-53943936D01*
X87371842Y-53977305D01*
X87351577Y-53999423D01*
X87292611Y-54034893D01*
X87228476Y-54037379D01*
X87169574Y-54009735D01*
X87126303Y-53954820D01*
X87118564Y-53935428D01*
X87081494Y-53874864D01*
X87038846Y-53849052D01*
X86980346Y-53826971D01*
X86980346Y-53910684D01*
X86985518Y-53967650D01*
X87005777Y-54015689D01*
X87048238Y-54070846D01*
X87054549Y-54078014D01*
X87101780Y-54127085D01*
X87142379Y-54153420D01*
X87193172Y-54165535D01*
X87235280Y-54169503D01*
X87310598Y-54170491D01*
X87364214Y-54157966D01*
X87397662Y-54139369D01*
X87450232Y-54098475D01*
X87486621Y-54054248D01*
X87509650Y-53998626D01*
X87522141Y-53923547D01*
X87526913Y-53820949D01*
X87527294Y-53768876D01*
X87525999Y-53706448D01*
X87408029Y-53706448D01*
X87406661Y-53739938D01*
X87403251Y-53745423D01*
X87380747Y-53737972D01*
X87332318Y-53718253D01*
X87267592Y-53690218D01*
X87254057Y-53684192D01*
X87172256Y-53642596D01*
X87127188Y-53606038D01*
X87117283Y-53571796D01*
X87140974Y-53537148D01*
X87160540Y-53521839D01*
X87231140Y-53491221D01*
X87297220Y-53496280D01*
X87352541Y-53533651D01*
X87390864Y-53599973D01*
X87403151Y-53652616D01*
X87408029Y-53706448D01*
X87525999Y-53706448D01*
X87524770Y-53647220D01*
X87515468Y-53557210D01*
X87497040Y-53491667D01*
X87467140Y-53443412D01*
X87423420Y-53405267D01*
X87404359Y-53392940D01*
X87317774Y-53360836D01*
X87222978Y-53358816D01*
X87131276Y-53384338D01*
X87131276Y-53384338D01*
G37*
X87131276Y-53384338D02*
X87053972Y-53434861D01*
X87016686Y-53480090D01*
X86987147Y-53562163D01*
X86984801Y-53627107D01*
X86990115Y-53713945D01*
X87190385Y-53801603D01*
X87287761Y-53846387D01*
X87351387Y-53882413D01*
X87384471Y-53913617D01*
X87390220Y-53943936D01*
X87371842Y-53977305D01*
X87351577Y-53999423D01*
X87292611Y-54034893D01*
X87228476Y-54037379D01*
X87169574Y-54009735D01*
X87126303Y-53954820D01*
X87118564Y-53935428D01*
X87081494Y-53874864D01*
X87038846Y-53849052D01*
X86980346Y-53826971D01*
X86980346Y-53910684D01*
X86985518Y-53967650D01*
X87005777Y-54015689D01*
X87048238Y-54070846D01*
X87054549Y-54078014D01*
X87101780Y-54127085D01*
X87142379Y-54153420D01*
X87193172Y-54165535D01*
X87235280Y-54169503D01*
X87310598Y-54170491D01*
X87364214Y-54157966D01*
X87397662Y-54139369D01*
X87450232Y-54098475D01*
X87486621Y-54054248D01*
X87509650Y-53998626D01*
X87522141Y-53923547D01*
X87526913Y-53820949D01*
X87527294Y-53768876D01*
X87525999Y-53706448D01*
X87408029Y-53706448D01*
X87406661Y-53739938D01*
X87403251Y-53745423D01*
X87380747Y-53737972D01*
X87332318Y-53718253D01*
X87267592Y-53690218D01*
X87254057Y-53684192D01*
X87172256Y-53642596D01*
X87127188Y-53606038D01*
X87117283Y-53571796D01*
X87140974Y-53537148D01*
X87160540Y-53521839D01*
X87231140Y-53491221D01*
X87297220Y-53496280D01*
X87352541Y-53533651D01*
X87390864Y-53599973D01*
X87403151Y-53652616D01*
X87408029Y-53706448D01*
X87525999Y-53706448D01*
X87524770Y-53647220D01*
X87515468Y-53557210D01*
X87497040Y-53491667D01*
X87467140Y-53443412D01*
X87423420Y-53405267D01*
X87404359Y-53392940D01*
X87317774Y-53360836D01*
X87222978Y-53358816D01*
X87131276Y-53384338D01*
G36*
X91236622Y-47024276D02*
G01*
X91130888Y-47024855D01*
X91054368Y-47026422D01*
X91002128Y-47029472D01*
X90969237Y-47034496D01*
X90950763Y-47041989D01*
X90941773Y-47052444D01*
X90937337Y-47066353D01*
X90936906Y-47068154D01*
X90930167Y-47100645D01*
X90917692Y-47164752D01*
X90900781Y-47253651D01*
X90880729Y-47360519D01*
X90858836Y-47478533D01*
X90858071Y-47482678D01*
X90836141Y-47598331D01*
X90815623Y-47700514D01*
X90797841Y-47783098D01*
X90784119Y-47839956D01*
X90775782Y-47864958D01*
X90775384Y-47865401D01*
X90750823Y-47877610D01*
X90700185Y-47897956D01*
X90634405Y-47922045D01*
X90634039Y-47922174D01*
X90551183Y-47953318D01*
X90453500Y-47992991D01*
X90361423Y-48032881D01*
X90357066Y-48034853D01*
X90207093Y-48102920D01*
X89875002Y-47876139D01*
X89773126Y-47807004D01*
X89680843Y-47745197D01*
X89603497Y-47694233D01*
X89546436Y-47657627D01*
X89515005Y-47638894D01*
X89512021Y-47637504D01*
X89489179Y-47643690D01*
X89446518Y-47673535D01*
X89382372Y-47728447D01*
X89295079Y-47809834D01*
X89205965Y-47896422D01*
X89120059Y-47981747D01*
X89043173Y-48059608D01*
X88979936Y-48125197D01*
X88934977Y-48173705D01*
X88912924Y-48200325D01*
X88912104Y-48201695D01*
X88909666Y-48219963D01*
X88918850Y-48249795D01*
X88941926Y-48295221D01*
X88981163Y-48360270D01*
X89038830Y-48448970D01*
X89115705Y-48563157D01*
X89183930Y-48663662D01*
X89244918Y-48753803D01*
X89295144Y-48828349D01*
X89331084Y-48882065D01*
X89349213Y-48909718D01*
X89350354Y-48911595D01*
X89348141Y-48938090D01*
X89331362Y-48989586D01*
X89303358Y-49056351D01*
X89293378Y-49077672D01*
X89249828Y-49172659D01*
X89203366Y-49280437D01*
X89165623Y-49373692D01*
X89138427Y-49442906D01*
X89116825Y-49495506D01*
X89104342Y-49522997D01*
X89102791Y-49525116D01*
X89079832Y-49528624D01*
X89025714Y-49538238D01*
X88947632Y-49552589D01*
X88852781Y-49570307D01*
X88748357Y-49590025D01*
X88641556Y-49610374D01*
X88539574Y-49629986D01*
X88449606Y-49647491D01*
X88378847Y-49661522D01*
X88334494Y-49670709D01*
X88323615Y-49673307D01*
X88312378Y-49679718D01*
X88303895Y-49694197D01*
X88297786Y-49721633D01*
X88293668Y-49766911D01*
X88291159Y-49834920D01*
X88289879Y-49930547D01*
X88289446Y-50058680D01*
X88289423Y-50111201D01*
X88289423Y-50538345D01*
X88392000Y-50558591D01*
X88449069Y-50569570D01*
X88534231Y-50585595D01*
X88637128Y-50604733D01*
X88747404Y-50625051D01*
X88777885Y-50630632D01*
X88879645Y-50650417D01*
X88968295Y-50669873D01*
X89036392Y-50687197D01*
X89076496Y-50700588D01*
X89083177Y-50704579D01*
X89099581Y-50732842D01*
X89123101Y-50787609D01*
X89149184Y-50858088D01*
X89154358Y-50873269D01*
X89188544Y-50967396D01*
X89230977Y-51073601D01*
X89272503Y-51168973D01*
X89272708Y-51169416D01*
X89341860Y-51319025D01*
X88886988Y-51988117D01*
X89179000Y-52280616D01*
X89267320Y-52367670D01*
X89347875Y-52444409D01*
X89416140Y-52506737D01*
X89467592Y-52550556D01*
X89497706Y-52571770D01*
X89502026Y-52573116D01*
X89527389Y-52562516D01*
X89579142Y-52533047D01*
X89651632Y-52488205D01*
X89739206Y-52431484D01*
X89833888Y-52367962D01*
X89929984Y-52303168D01*
X90015663Y-52246787D01*
X90085484Y-52202288D01*
X90134006Y-52173139D01*
X90155718Y-52162808D01*
X90182207Y-52171550D01*
X90232438Y-52194587D01*
X90296049Y-52227131D01*
X90302792Y-52230749D01*
X90388454Y-52273710D01*
X90447194Y-52294779D01*
X90483728Y-52295003D01*
X90502769Y-52275428D01*
X90502880Y-52275154D01*
X90512398Y-52251972D01*
X90535097Y-52196941D01*
X90569218Y-52114322D01*
X90613000Y-52008372D01*
X90664684Y-51883352D01*
X90722508Y-51743520D01*
X90778509Y-51608137D01*
X90840053Y-51458734D01*
X90896561Y-51320332D01*
X90946339Y-51197173D01*
X90987694Y-51093502D01*
X91018932Y-51013559D01*
X91038359Y-50961588D01*
X91044346Y-50942192D01*
X91029332Y-50919943D01*
X90990061Y-50884482D01*
X90937693Y-50845387D01*
X90788559Y-50721745D01*
X90671989Y-50580022D01*
X90589382Y-50423204D01*
X90542134Y-50254275D01*
X90531643Y-50076222D01*
X90539269Y-49994039D01*
X90580818Y-49823531D01*
X90652377Y-49672959D01*
X90749505Y-49543809D01*
X90867766Y-49437564D01*
X91002720Y-49355710D01*
X91149929Y-49299732D01*
X91304956Y-49271115D01*
X91463361Y-49271344D01*
X91620706Y-49301905D01*
X91772554Y-49364282D01*
X91914465Y-49459960D01*
X91973697Y-49514072D01*
X92087297Y-49653020D01*
X92166394Y-49804861D01*
X92211514Y-49965167D01*
X92223184Y-50129512D01*
X92201931Y-50293471D01*
X92148280Y-50452618D01*
X92062760Y-50602525D01*
X91945895Y-50738767D01*
X91815307Y-50845387D01*
X91760912Y-50886142D01*
X91722486Y-50921218D01*
X91708654Y-50942226D01*
X91715897Y-50965135D01*
X91736495Y-51019865D01*
X91768754Y-51102172D01*
X91810979Y-51207815D01*
X91861477Y-51332550D01*
X91918552Y-51472136D01*
X91974646Y-51608170D01*
X92036533Y-51757701D01*
X92093856Y-51896267D01*
X92144856Y-52019607D01*
X92187773Y-52123464D01*
X92220847Y-52203580D01*
X92242319Y-52255695D01*
X92250275Y-52275154D01*
X92269071Y-52294923D01*
X92305426Y-52294865D01*
X92364021Y-52273941D01*
X92449532Y-52231113D01*
X92450208Y-52230749D01*
X92514593Y-52197512D01*
X92566639Y-52173302D01*
X92595988Y-52162904D01*
X92597283Y-52162808D01*
X92619376Y-52173355D01*
X92668152Y-52202684D01*
X92738169Y-52247327D01*
X92823986Y-52303814D01*
X92919112Y-52367962D01*
X93015960Y-52432911D01*
X93103247Y-52489396D01*
X93175319Y-52533921D01*
X93226523Y-52562990D01*
X93250974Y-52573116D01*
X93273490Y-52559807D01*
X93318758Y-52522612D01*
X93382256Y-52465628D01*
X93459461Y-52392949D01*
X93545849Y-52308671D01*
X93574101Y-52280516D01*
X93866213Y-51987916D01*
X93643869Y-51661604D01*
X93576298Y-51561397D01*
X93516993Y-51471463D01*
X93469283Y-51397010D01*
X93436493Y-51343251D01*
X93421952Y-51315394D01*
X93421526Y-51313412D01*
X93429192Y-51287155D01*
X93449811Y-51234337D01*
X93479815Y-51163810D01*
X93500875Y-51116593D01*
X93540252Y-51026194D01*
X93577335Y-50934866D01*
X93606085Y-50857700D01*
X93613895Y-50834192D01*
X93636083Y-50771416D01*
X93657773Y-50722911D01*
X93669687Y-50704579D01*
X93695977Y-50693359D01*
X93753358Y-50677454D01*
X93834382Y-50658667D01*
X93931605Y-50638799D01*
X93975115Y-50630632D01*
X94085604Y-50610329D01*
X94191584Y-50590670D01*
X94282699Y-50573588D01*
X94348592Y-50561018D01*
X94361000Y-50558591D01*
X94463577Y-50538345D01*
X94463577Y-50111201D01*
X94463347Y-49970746D01*
X94462401Y-49864479D01*
X94460359Y-49787513D01*
X94456838Y-49734960D01*
X94451457Y-49701933D01*
X94443834Y-49683545D01*
X94433588Y-49674908D01*
X94429385Y-49673307D01*
X94404030Y-49667627D01*
X94348016Y-49656295D01*
X94268536Y-49640679D01*
X94172788Y-49622147D01*
X94067967Y-49602069D01*
X93961268Y-49581812D01*
X93859887Y-49562746D01*
X93771021Y-49546239D01*
X93701863Y-49533659D01*
X93659611Y-49526375D01*
X93650210Y-49525116D01*
X93641693Y-49508263D01*
X93622840Y-49463370D01*
X93597176Y-49398930D01*
X93587377Y-49373692D01*
X93547852Y-49276186D01*
X93501308Y-49168459D01*
X93459623Y-49077672D01*
X93428950Y-49008253D01*
X93408544Y-48951210D01*
X93401732Y-48916277D01*
X93402818Y-48911595D01*
X93417215Y-48889491D01*
X93450088Y-48840331D01*
X93497910Y-48769348D01*
X93557152Y-48681778D01*
X93624285Y-48582857D01*
X93637559Y-48563330D01*
X93715454Y-48447640D01*
X93772713Y-48359544D01*
X93811619Y-48294986D01*
X93834456Y-48249911D01*
X93843506Y-48220263D01*
X93841052Y-48201985D01*
X93840989Y-48201869D01*
X93821673Y-48177861D01*
X93778949Y-48131447D01*
X93717449Y-48067437D01*
X93641802Y-47990645D01*
X93556639Y-47905882D01*
X93547035Y-47896422D01*
X93439710Y-47792489D01*
X93356885Y-47716175D01*
X93296895Y-47666071D01*
X93258077Y-47640770D01*
X93240980Y-47637504D01*
X93216027Y-47651750D01*
X93164245Y-47684656D01*
X93090980Y-47732708D01*
X93001580Y-47792390D01*
X92901389Y-47860188D01*
X92877999Y-47876139D01*
X92545907Y-48102920D01*
X92395935Y-48034853D01*
X92304730Y-47995185D01*
X92206831Y-47955291D01*
X92122669Y-47923483D01*
X92118962Y-47922174D01*
X92053131Y-47898076D01*
X92002384Y-47877700D01*
X91977658Y-47865436D01*
X91977616Y-47865401D01*
X91969771Y-47843234D01*
X91956434Y-47788717D01*
X91938930Y-47707980D01*
X91918583Y-47607150D01*
X91896718Y-47492356D01*
X91894929Y-47482678D01*
X91872996Y-47364404D01*
X91852860Y-47257042D01*
X91835820Y-47167417D01*
X91823172Y-47102351D01*
X91816216Y-47068668D01*
X91816094Y-47068154D01*
X91811861Y-47053825D01*
X91803629Y-47043007D01*
X91786467Y-47035206D01*
X91755442Y-47029929D01*
X91705622Y-47026682D01*
X91632076Y-47024972D01*
X91529871Y-47024307D01*
X91394075Y-47024193D01*
X91376500Y-47024192D01*
X91236622Y-47024276D01*
X91236622Y-47024276D01*
G37*
X91236622Y-47024276D02*
X91130888Y-47024855D01*
X91054368Y-47026422D01*
X91002128Y-47029472D01*
X90969237Y-47034496D01*
X90950763Y-47041989D01*
X90941773Y-47052444D01*
X90937337Y-47066353D01*
X90936906Y-47068154D01*
X90930167Y-47100645D01*
X90917692Y-47164752D01*
X90900781Y-47253651D01*
X90880729Y-47360519D01*
X90858836Y-47478533D01*
X90858071Y-47482678D01*
X90836141Y-47598331D01*
X90815623Y-47700514D01*
X90797841Y-47783098D01*
X90784119Y-47839956D01*
X90775782Y-47864958D01*
X90775384Y-47865401D01*
X90750823Y-47877610D01*
X90700185Y-47897956D01*
X90634405Y-47922045D01*
X90634039Y-47922174D01*
X90551183Y-47953318D01*
X90453500Y-47992991D01*
X90361423Y-48032881D01*
X90357066Y-48034853D01*
X90207093Y-48102920D01*
X89875002Y-47876139D01*
X89773126Y-47807004D01*
X89680843Y-47745197D01*
X89603497Y-47694233D01*
X89546436Y-47657627D01*
X89515005Y-47638894D01*
X89512021Y-47637504D01*
X89489179Y-47643690D01*
X89446518Y-47673535D01*
X89382372Y-47728447D01*
X89295079Y-47809834D01*
X89205965Y-47896422D01*
X89120059Y-47981747D01*
X89043173Y-48059608D01*
X88979936Y-48125197D01*
X88934977Y-48173705D01*
X88912924Y-48200325D01*
X88912104Y-48201695D01*
X88909666Y-48219963D01*
X88918850Y-48249795D01*
X88941926Y-48295221D01*
X88981163Y-48360270D01*
X89038830Y-48448970D01*
X89115705Y-48563157D01*
X89183930Y-48663662D01*
X89244918Y-48753803D01*
X89295144Y-48828349D01*
X89331084Y-48882065D01*
X89349213Y-48909718D01*
X89350354Y-48911595D01*
X89348141Y-48938090D01*
X89331362Y-48989586D01*
X89303358Y-49056351D01*
X89293378Y-49077672D01*
X89249828Y-49172659D01*
X89203366Y-49280437D01*
X89165623Y-49373692D01*
X89138427Y-49442906D01*
X89116825Y-49495506D01*
X89104342Y-49522997D01*
X89102791Y-49525116D01*
X89079832Y-49528624D01*
X89025714Y-49538238D01*
X88947632Y-49552589D01*
X88852781Y-49570307D01*
X88748357Y-49590025D01*
X88641556Y-49610374D01*
X88539574Y-49629986D01*
X88449606Y-49647491D01*
X88378847Y-49661522D01*
X88334494Y-49670709D01*
X88323615Y-49673307D01*
X88312378Y-49679718D01*
X88303895Y-49694197D01*
X88297786Y-49721633D01*
X88293668Y-49766911D01*
X88291159Y-49834920D01*
X88289879Y-49930547D01*
X88289446Y-50058680D01*
X88289423Y-50111201D01*
X88289423Y-50538345D01*
X88392000Y-50558591D01*
X88449069Y-50569570D01*
X88534231Y-50585595D01*
X88637128Y-50604733D01*
X88747404Y-50625051D01*
X88777885Y-50630632D01*
X88879645Y-50650417D01*
X88968295Y-50669873D01*
X89036392Y-50687197D01*
X89076496Y-50700588D01*
X89083177Y-50704579D01*
X89099581Y-50732842D01*
X89123101Y-50787609D01*
X89149184Y-50858088D01*
X89154358Y-50873269D01*
X89188544Y-50967396D01*
X89230977Y-51073601D01*
X89272503Y-51168973D01*
X89272708Y-51169416D01*
X89341860Y-51319025D01*
X88886988Y-51988117D01*
X89179000Y-52280616D01*
X89267320Y-52367670D01*
X89347875Y-52444409D01*
X89416140Y-52506737D01*
X89467592Y-52550556D01*
X89497706Y-52571770D01*
X89502026Y-52573116D01*
X89527389Y-52562516D01*
X89579142Y-52533047D01*
X89651632Y-52488205D01*
X89739206Y-52431484D01*
X89833888Y-52367962D01*
X89929984Y-52303168D01*
X90015663Y-52246787D01*
X90085484Y-52202288D01*
X90134006Y-52173139D01*
X90155718Y-52162808D01*
X90182207Y-52171550D01*
X90232438Y-52194587D01*
X90296049Y-52227131D01*
X90302792Y-52230749D01*
X90388454Y-52273710D01*
X90447194Y-52294779D01*
X90483728Y-52295003D01*
X90502769Y-52275428D01*
X90502880Y-52275154D01*
X90512398Y-52251972D01*
X90535097Y-52196941D01*
X90569218Y-52114322D01*
X90613000Y-52008372D01*
X90664684Y-51883352D01*
X90722508Y-51743520D01*
X90778509Y-51608137D01*
X90840053Y-51458734D01*
X90896561Y-51320332D01*
X90946339Y-51197173D01*
X90987694Y-51093502D01*
X91018932Y-51013559D01*
X91038359Y-50961588D01*
X91044346Y-50942192D01*
X91029332Y-50919943D01*
X90990061Y-50884482D01*
X90937693Y-50845387D01*
X90788559Y-50721745D01*
X90671989Y-50580022D01*
X90589382Y-50423204D01*
X90542134Y-50254275D01*
X90531643Y-50076222D01*
X90539269Y-49994039D01*
X90580818Y-49823531D01*
X90652377Y-49672959D01*
X90749505Y-49543809D01*
X90867766Y-49437564D01*
X91002720Y-49355710D01*
X91149929Y-49299732D01*
X91304956Y-49271115D01*
X91463361Y-49271344D01*
X91620706Y-49301905D01*
X91772554Y-49364282D01*
X91914465Y-49459960D01*
X91973697Y-49514072D01*
X92087297Y-49653020D01*
X92166394Y-49804861D01*
X92211514Y-49965167D01*
X92223184Y-50129512D01*
X92201931Y-50293471D01*
X92148280Y-50452618D01*
X92062760Y-50602525D01*
X91945895Y-50738767D01*
X91815307Y-50845387D01*
X91760912Y-50886142D01*
X91722486Y-50921218D01*
X91708654Y-50942226D01*
X91715897Y-50965135D01*
X91736495Y-51019865D01*
X91768754Y-51102172D01*
X91810979Y-51207815D01*
X91861477Y-51332550D01*
X91918552Y-51472136D01*
X91974646Y-51608170D01*
X92036533Y-51757701D01*
X92093856Y-51896267D01*
X92144856Y-52019607D01*
X92187773Y-52123464D01*
X92220847Y-52203580D01*
X92242319Y-52255695D01*
X92250275Y-52275154D01*
X92269071Y-52294923D01*
X92305426Y-52294865D01*
X92364021Y-52273941D01*
X92449532Y-52231113D01*
X92450208Y-52230749D01*
X92514593Y-52197512D01*
X92566639Y-52173302D01*
X92595988Y-52162904D01*
X92597283Y-52162808D01*
X92619376Y-52173355D01*
X92668152Y-52202684D01*
X92738169Y-52247327D01*
X92823986Y-52303814D01*
X92919112Y-52367962D01*
X93015960Y-52432911D01*
X93103247Y-52489396D01*
X93175319Y-52533921D01*
X93226523Y-52562990D01*
X93250974Y-52573116D01*
X93273490Y-52559807D01*
X93318758Y-52522612D01*
X93382256Y-52465628D01*
X93459461Y-52392949D01*
X93545849Y-52308671D01*
X93574101Y-52280516D01*
X93866213Y-51987916D01*
X93643869Y-51661604D01*
X93576298Y-51561397D01*
X93516993Y-51471463D01*
X93469283Y-51397010D01*
X93436493Y-51343251D01*
X93421952Y-51315394D01*
X93421526Y-51313412D01*
X93429192Y-51287155D01*
X93449811Y-51234337D01*
X93479815Y-51163810D01*
X93500875Y-51116593D01*
X93540252Y-51026194D01*
X93577335Y-50934866D01*
X93606085Y-50857700D01*
X93613895Y-50834192D01*
X93636083Y-50771416D01*
X93657773Y-50722911D01*
X93669687Y-50704579D01*
X93695977Y-50693359D01*
X93753358Y-50677454D01*
X93834382Y-50658667D01*
X93931605Y-50638799D01*
X93975115Y-50630632D01*
X94085604Y-50610329D01*
X94191584Y-50590670D01*
X94282699Y-50573588D01*
X94348592Y-50561018D01*
X94361000Y-50558591D01*
X94463577Y-50538345D01*
X94463577Y-50111201D01*
X94463347Y-49970746D01*
X94462401Y-49864479D01*
X94460359Y-49787513D01*
X94456838Y-49734960D01*
X94451457Y-49701933D01*
X94443834Y-49683545D01*
X94433588Y-49674908D01*
X94429385Y-49673307D01*
X94404030Y-49667627D01*
X94348016Y-49656295D01*
X94268536Y-49640679D01*
X94172788Y-49622147D01*
X94067967Y-49602069D01*
X93961268Y-49581812D01*
X93859887Y-49562746D01*
X93771021Y-49546239D01*
X93701863Y-49533659D01*
X93659611Y-49526375D01*
X93650210Y-49525116D01*
X93641693Y-49508263D01*
X93622840Y-49463370D01*
X93597176Y-49398930D01*
X93587377Y-49373692D01*
X93547852Y-49276186D01*
X93501308Y-49168459D01*
X93459623Y-49077672D01*
X93428950Y-49008253D01*
X93408544Y-48951210D01*
X93401732Y-48916277D01*
X93402818Y-48911595D01*
X93417215Y-48889491D01*
X93450088Y-48840331D01*
X93497910Y-48769348D01*
X93557152Y-48681778D01*
X93624285Y-48582857D01*
X93637559Y-48563330D01*
X93715454Y-48447640D01*
X93772713Y-48359544D01*
X93811619Y-48294986D01*
X93834456Y-48249911D01*
X93843506Y-48220263D01*
X93841052Y-48201985D01*
X93840989Y-48201869D01*
X93821673Y-48177861D01*
X93778949Y-48131447D01*
X93717449Y-48067437D01*
X93641802Y-47990645D01*
X93556639Y-47905882D01*
X93547035Y-47896422D01*
X93439710Y-47792489D01*
X93356885Y-47716175D01*
X93296895Y-47666071D01*
X93258077Y-47640770D01*
X93240980Y-47637504D01*
X93216027Y-47651750D01*
X93164245Y-47684656D01*
X93090980Y-47732708D01*
X93001580Y-47792390D01*
X92901389Y-47860188D01*
X92877999Y-47876139D01*
X92545907Y-48102920D01*
X92395935Y-48034853D01*
X92304730Y-47995185D01*
X92206831Y-47955291D01*
X92122669Y-47923483D01*
X92118962Y-47922174D01*
X92053131Y-47898076D01*
X92002384Y-47877700D01*
X91977658Y-47865436D01*
X91977616Y-47865401D01*
X91969771Y-47843234D01*
X91956434Y-47788717D01*
X91938930Y-47707980D01*
X91918583Y-47607150D01*
X91896718Y-47492356D01*
X91894929Y-47482678D01*
X91872996Y-47364404D01*
X91852860Y-47257042D01*
X91835820Y-47167417D01*
X91823172Y-47102351D01*
X91816216Y-47068668D01*
X91816094Y-47068154D01*
X91811861Y-47053825D01*
X91803629Y-47043007D01*
X91786467Y-47035206D01*
X91755442Y-47029929D01*
X91705622Y-47026682D01*
X91632076Y-47024972D01*
X91529871Y-47024307D01*
X91394075Y-47024193D01*
X91376500Y-47024192D01*
X91236622Y-47024276D01*
G36*
X93268771Y-45995166D02*
G01*
X93229289Y-45995567D01*
X93113600Y-45998359D01*
X93016711Y-46006650D01*
X92935319Y-46021332D01*
X92866123Y-46043293D01*
X92805820Y-46073422D01*
X92751108Y-46112610D01*
X92731567Y-46129632D01*
X92699150Y-46169463D01*
X92669920Y-46223513D01*
X92647391Y-46283423D01*
X92635079Y-46340839D01*
X92633800Y-46362056D01*
X92641817Y-46420869D01*
X92663299Y-46485113D01*
X92694399Y-46545921D01*
X92731266Y-46594430D01*
X92737254Y-46600282D01*
X92787979Y-46641421D01*
X92843525Y-46673535D01*
X92907096Y-46697465D01*
X92981894Y-46714053D01*
X93071122Y-46724141D01*
X93177982Y-46728569D01*
X93226928Y-46728945D01*
X93289162Y-46728645D01*
X93332928Y-46727392D01*
X93362331Y-46724654D01*
X93381479Y-46719901D01*
X93394477Y-46712601D01*
X93401445Y-46706367D01*
X93408026Y-46698794D01*
X93413188Y-46689024D01*
X93417103Y-46674440D01*
X93419943Y-46652426D01*
X93421880Y-46620364D01*
X93423084Y-46575636D01*
X93423728Y-46515626D01*
X93423983Y-46437717D01*
X93424022Y-46362056D01*
X93424270Y-46261141D01*
X93424217Y-46180527D01*
X93423257Y-46141922D01*
X93277267Y-46141922D01*
X93277267Y-46582189D01*
X93184134Y-46582104D01*
X93128093Y-46580496D01*
X93069399Y-46576356D01*
X93020428Y-46570564D01*
X93018938Y-46570326D01*
X92939792Y-46551190D01*
X92878402Y-46521387D01*
X92831705Y-46478978D01*
X92802035Y-46433061D01*
X92783753Y-46382126D01*
X92785171Y-46334300D01*
X92806388Y-46283033D01*
X92847889Y-46229999D01*
X92905398Y-46190700D01*
X92980150Y-46164431D01*
X93030108Y-46155135D01*
X93086816Y-46148607D01*
X93146919Y-46143882D01*
X93198039Y-46141917D01*
X93201067Y-46141908D01*
X93277267Y-46141922D01*
X93423257Y-46141922D01*
X93422660Y-46117951D01*
X93418398Y-46071155D01*
X93410230Y-46037878D01*
X93396956Y-46015859D01*
X93377374Y-46002839D01*
X93350283Y-45996557D01*
X93314482Y-45994753D01*
X93268771Y-45995166D01*
X93268771Y-45995166D01*
G37*
X93268771Y-45995166D02*
X93229289Y-45995567D01*
X93113600Y-45998359D01*
X93016711Y-46006650D01*
X92935319Y-46021332D01*
X92866123Y-46043293D01*
X92805820Y-46073422D01*
X92751108Y-46112610D01*
X92731567Y-46129632D01*
X92699150Y-46169463D01*
X92669920Y-46223513D01*
X92647391Y-46283423D01*
X92635079Y-46340839D01*
X92633800Y-46362056D01*
X92641817Y-46420869D01*
X92663299Y-46485113D01*
X92694399Y-46545921D01*
X92731266Y-46594430D01*
X92737254Y-46600282D01*
X92787979Y-46641421D01*
X92843525Y-46673535D01*
X92907096Y-46697465D01*
X92981894Y-46714053D01*
X93071122Y-46724141D01*
X93177982Y-46728569D01*
X93226928Y-46728945D01*
X93289162Y-46728645D01*
X93332928Y-46727392D01*
X93362331Y-46724654D01*
X93381479Y-46719901D01*
X93394477Y-46712601D01*
X93401445Y-46706367D01*
X93408026Y-46698794D01*
X93413188Y-46689024D01*
X93417103Y-46674440D01*
X93419943Y-46652426D01*
X93421880Y-46620364D01*
X93423084Y-46575636D01*
X93423728Y-46515626D01*
X93423983Y-46437717D01*
X93424022Y-46362056D01*
X93424270Y-46261141D01*
X93424217Y-46180527D01*
X93423257Y-46141922D01*
X93277267Y-46141922D01*
X93277267Y-46582189D01*
X93184134Y-46582104D01*
X93128093Y-46580496D01*
X93069399Y-46576356D01*
X93020428Y-46570564D01*
X93018938Y-46570326D01*
X92939792Y-46551190D01*
X92878402Y-46521387D01*
X92831705Y-46478978D01*
X92802035Y-46433061D01*
X92783753Y-46382126D01*
X92785171Y-46334300D01*
X92806388Y-46283033D01*
X92847889Y-46229999D01*
X92905398Y-46190700D01*
X92980150Y-46164431D01*
X93030108Y-46155135D01*
X93086816Y-46148607D01*
X93146919Y-46143882D01*
X93198039Y-46141917D01*
X93201067Y-46141908D01*
X93277267Y-46141922D01*
X93423257Y-46141922D01*
X93422660Y-46117951D01*
X93418398Y-46071155D01*
X93410230Y-46037878D01*
X93396956Y-46015859D01*
X93377374Y-46002839D01*
X93350283Y-45996557D01*
X93314482Y-45994753D01*
X93268771Y-45995166D01*
G36*
X91860194Y-45995246D02*
G01*
X91790786Y-45995618D01*
X91738397Y-45996485D01*
X91700247Y-45998046D01*
X91673559Y-46000503D01*
X91655553Y-46004057D01*
X91643449Y-46008910D01*
X91634469Y-46015261D01*
X91631218Y-46018184D01*
X91611443Y-46049242D01*
X91607882Y-46084928D01*
X91620891Y-46116610D01*
X91626906Y-46123013D01*
X91636635Y-46129221D01*
X91652301Y-46134010D01*
X91676808Y-46137614D01*
X91713061Y-46140264D01*
X91763965Y-46142195D01*
X91832426Y-46143639D01*
X91895017Y-46144518D01*
X92142734Y-46147567D01*
X92146119Y-46212478D01*
X92149505Y-46277389D01*
X91981358Y-46277389D01*
X91908359Y-46278019D01*
X91854917Y-46280653D01*
X91818028Y-46286409D01*
X91794688Y-46296404D01*
X91781894Y-46311756D01*
X91776642Y-46333582D01*
X91775845Y-46353838D01*
X91778323Y-46378692D01*
X91787677Y-46397006D01*
X91806783Y-46409737D01*
X91838518Y-46417841D01*
X91885759Y-46422276D01*
X91951383Y-46423999D01*
X91987201Y-46424145D01*
X92148378Y-46424145D01*
X92148378Y-46582189D01*
X91900022Y-46582189D01*
X91818613Y-46582302D01*
X91756742Y-46582812D01*
X91711368Y-46583970D01*
X91679454Y-46586030D01*
X91657959Y-46589246D01*
X91643843Y-46593872D01*
X91634068Y-46600159D01*
X91629089Y-46604767D01*
X91612010Y-46631660D01*
X91606511Y-46655567D01*
X91614363Y-46684767D01*
X91629089Y-46706367D01*
X91636946Y-46713166D01*
X91647088Y-46718446D01*
X91662244Y-46722398D01*
X91685141Y-46725213D01*
X91718509Y-46727082D01*
X91765075Y-46728198D01*
X91827567Y-46728751D01*
X91908714Y-46728933D01*
X91950822Y-46728945D01*
X92040998Y-46728865D01*
X92111324Y-46728498D01*
X92164529Y-46727652D01*
X92203340Y-46726136D01*
X92230487Y-46723759D01*
X92248698Y-46720329D01*
X92260700Y-46715654D01*
X92269222Y-46709544D01*
X92272556Y-46706367D01*
X92279155Y-46698770D01*
X92284327Y-46688970D01*
X92288246Y-46674339D01*
X92291084Y-46652252D01*
X92293015Y-46620082D01*
X92294212Y-46575203D01*
X92294848Y-46514989D01*
X92295097Y-46436813D01*
X92295134Y-46364023D01*
X92295100Y-46270807D01*
X92294865Y-46197531D01*
X92294230Y-46141558D01*
X92292994Y-46100251D01*
X92290956Y-46070972D01*
X92287917Y-46051084D01*
X92283677Y-46037950D01*
X92278035Y-46028932D01*
X92270791Y-46021393D01*
X92269006Y-46019712D01*
X92260345Y-46012272D01*
X92250282Y-46006509D01*
X92236025Y-46002212D01*
X92214783Y-45999164D01*
X92183764Y-45997151D01*
X92140177Y-45995960D01*
X92081231Y-45995375D01*
X92004134Y-45995183D01*
X91949401Y-45995167D01*
X91860194Y-45995246D01*
X91860194Y-45995246D01*
G37*
X91860194Y-45995246D02*
X91790786Y-45995618D01*
X91738397Y-45996485D01*
X91700247Y-45998046D01*
X91673559Y-46000503D01*
X91655553Y-46004057D01*
X91643449Y-46008910D01*
X91634469Y-46015261D01*
X91631218Y-46018184D01*
X91611443Y-46049242D01*
X91607882Y-46084928D01*
X91620891Y-46116610D01*
X91626906Y-46123013D01*
X91636635Y-46129221D01*
X91652301Y-46134010D01*
X91676808Y-46137614D01*
X91713061Y-46140264D01*
X91763965Y-46142195D01*
X91832426Y-46143639D01*
X91895017Y-46144518D01*
X92142734Y-46147567D01*
X92146119Y-46212478D01*
X92149505Y-46277389D01*
X91981358Y-46277389D01*
X91908359Y-46278019D01*
X91854917Y-46280653D01*
X91818028Y-46286409D01*
X91794688Y-46296404D01*
X91781894Y-46311756D01*
X91776642Y-46333582D01*
X91775845Y-46353838D01*
X91778323Y-46378692D01*
X91787677Y-46397006D01*
X91806783Y-46409737D01*
X91838518Y-46417841D01*
X91885759Y-46422276D01*
X91951383Y-46423999D01*
X91987201Y-46424145D01*
X92148378Y-46424145D01*
X92148378Y-46582189D01*
X91900022Y-46582189D01*
X91818613Y-46582302D01*
X91756742Y-46582812D01*
X91711368Y-46583970D01*
X91679454Y-46586030D01*
X91657959Y-46589246D01*
X91643843Y-46593872D01*
X91634068Y-46600159D01*
X91629089Y-46604767D01*
X91612010Y-46631660D01*
X91606511Y-46655567D01*
X91614363Y-46684767D01*
X91629089Y-46706367D01*
X91636946Y-46713166D01*
X91647088Y-46718446D01*
X91662244Y-46722398D01*
X91685141Y-46725213D01*
X91718509Y-46727082D01*
X91765075Y-46728198D01*
X91827567Y-46728751D01*
X91908714Y-46728933D01*
X91950822Y-46728945D01*
X92040998Y-46728865D01*
X92111324Y-46728498D01*
X92164529Y-46727652D01*
X92203340Y-46726136D01*
X92230487Y-46723759D01*
X92248698Y-46720329D01*
X92260700Y-46715654D01*
X92269222Y-46709544D01*
X92272556Y-46706367D01*
X92279155Y-46698770D01*
X92284327Y-46688970D01*
X92288246Y-46674339D01*
X92291084Y-46652252D01*
X92293015Y-46620082D01*
X92294212Y-46575203D01*
X92294848Y-46514989D01*
X92295097Y-46436813D01*
X92295134Y-46364023D01*
X92295100Y-46270807D01*
X92294865Y-46197531D01*
X92294230Y-46141558D01*
X92292994Y-46100251D01*
X92290956Y-46070972D01*
X92287917Y-46051084D01*
X92283677Y-46037950D01*
X92278035Y-46028932D01*
X92270791Y-46021393D01*
X92269006Y-46019712D01*
X92260345Y-46012272D01*
X92250282Y-46006509D01*
X92236025Y-46002212D01*
X92214783Y-45999164D01*
X92183764Y-45997151D01*
X92140177Y-45995960D01*
X92081231Y-45995375D01*
X92004134Y-45995183D01*
X91949401Y-45995167D01*
X91860194Y-45995246D01*
G36*
X90839103Y-45996451D02*
G01*
X90764288Y-46001681D01*
X90694706Y-46009850D01*
X90634402Y-46020650D01*
X90587420Y-46033773D01*
X90557806Y-46048913D01*
X90553260Y-46053369D01*
X90537454Y-46087950D01*
X90542247Y-46123451D01*
X90566764Y-46153825D01*
X90567934Y-46154696D01*
X90582354Y-46164054D01*
X90597408Y-46168976D01*
X90618405Y-46169573D01*
X90650657Y-46165961D01*
X90699473Y-46158254D01*
X90703400Y-46157605D01*
X90776139Y-46148669D01*
X90854617Y-46144261D01*
X90933327Y-46144219D01*
X91006761Y-46148379D01*
X91069411Y-46156579D01*
X91115770Y-46168657D01*
X91118816Y-46169871D01*
X91152448Y-46188715D01*
X91164264Y-46207785D01*
X91155014Y-46226539D01*
X91125447Y-46244437D01*
X91076311Y-46260937D01*
X91008357Y-46275496D01*
X90963045Y-46282506D01*
X90868856Y-46295989D01*
X90793944Y-46308314D01*
X90735117Y-46320549D01*
X90689185Y-46333761D01*
X90652955Y-46349017D01*
X90623238Y-46367385D01*
X90596842Y-46389931D01*
X90575630Y-46412071D01*
X90550465Y-46442919D01*
X90538081Y-46469445D01*
X90534208Y-46502126D01*
X90534067Y-46514095D01*
X90536976Y-46553812D01*
X90548602Y-46583359D01*
X90568723Y-46609586D01*
X90609616Y-46649676D01*
X90655217Y-46680249D01*
X90708913Y-46702303D01*
X90774092Y-46716835D01*
X90854144Y-46724841D01*
X90952457Y-46727318D01*
X90968689Y-46727277D01*
X91034249Y-46725918D01*
X91099266Y-46722830D01*
X91156652Y-46718456D01*
X91199322Y-46713240D01*
X91202772Y-46712641D01*
X91245196Y-46702591D01*
X91281180Y-46689896D01*
X91301550Y-46678290D01*
X91320507Y-46647672D01*
X91321827Y-46612018D01*
X91305485Y-46580244D01*
X91301829Y-46576651D01*
X91286715Y-46565976D01*
X91267815Y-46561376D01*
X91238562Y-46562159D01*
X91203051Y-46566227D01*
X91163370Y-46569862D01*
X91107745Y-46572928D01*
X91042806Y-46575153D01*
X90975185Y-46576264D01*
X90957400Y-46576337D01*
X90889528Y-46576064D01*
X90839854Y-46574746D01*
X90804010Y-46571927D01*
X90777624Y-46567150D01*
X90756326Y-46559957D01*
X90743526Y-46553967D01*
X90715400Y-46537333D01*
X90697468Y-46522268D01*
X90694847Y-46517997D01*
X90700376Y-46500363D01*
X90726660Y-46483292D01*
X90771878Y-46467558D01*
X90834208Y-46453938D01*
X90852571Y-46450904D01*
X90948490Y-46435838D01*
X91025041Y-46423246D01*
X91085180Y-46412211D01*
X91131860Y-46401820D01*
X91168037Y-46391156D01*
X91196665Y-46379305D01*
X91220698Y-46365351D01*
X91243092Y-46348381D01*
X91266802Y-46327478D01*
X91274780Y-46320149D01*
X91302753Y-46292799D01*
X91317560Y-46271129D01*
X91323352Y-46246332D01*
X91324289Y-46215083D01*
X91313975Y-46153805D01*
X91283152Y-46101740D01*
X91231995Y-46059058D01*
X91160683Y-46025925D01*
X91109800Y-46011064D01*
X91054500Y-46001466D01*
X90988253Y-45996036D01*
X90915106Y-45994467D01*
X90839103Y-45996451D01*
X90839103Y-45996451D01*
G37*
X90839103Y-45996451D02*
X90764288Y-46001681D01*
X90694706Y-46009850D01*
X90634402Y-46020650D01*
X90587420Y-46033773D01*
X90557806Y-46048913D01*
X90553260Y-46053369D01*
X90537454Y-46087950D01*
X90542247Y-46123451D01*
X90566764Y-46153825D01*
X90567934Y-46154696D01*
X90582354Y-46164054D01*
X90597408Y-46168976D01*
X90618405Y-46169573D01*
X90650657Y-46165961D01*
X90699473Y-46158254D01*
X90703400Y-46157605D01*
X90776139Y-46148669D01*
X90854617Y-46144261D01*
X90933327Y-46144219D01*
X91006761Y-46148379D01*
X91069411Y-46156579D01*
X91115770Y-46168657D01*
X91118816Y-46169871D01*
X91152448Y-46188715D01*
X91164264Y-46207785D01*
X91155014Y-46226539D01*
X91125447Y-46244437D01*
X91076311Y-46260937D01*
X91008357Y-46275496D01*
X90963045Y-46282506D01*
X90868856Y-46295989D01*
X90793944Y-46308314D01*
X90735117Y-46320549D01*
X90689185Y-46333761D01*
X90652955Y-46349017D01*
X90623238Y-46367385D01*
X90596842Y-46389931D01*
X90575630Y-46412071D01*
X90550465Y-46442919D01*
X90538081Y-46469445D01*
X90534208Y-46502126D01*
X90534067Y-46514095D01*
X90536976Y-46553812D01*
X90548602Y-46583359D01*
X90568723Y-46609586D01*
X90609616Y-46649676D01*
X90655217Y-46680249D01*
X90708913Y-46702303D01*
X90774092Y-46716835D01*
X90854144Y-46724841D01*
X90952457Y-46727318D01*
X90968689Y-46727277D01*
X91034249Y-46725918D01*
X91099266Y-46722830D01*
X91156652Y-46718456D01*
X91199322Y-46713240D01*
X91202772Y-46712641D01*
X91245196Y-46702591D01*
X91281180Y-46689896D01*
X91301550Y-46678290D01*
X91320507Y-46647672D01*
X91321827Y-46612018D01*
X91305485Y-46580244D01*
X91301829Y-46576651D01*
X91286715Y-46565976D01*
X91267815Y-46561376D01*
X91238562Y-46562159D01*
X91203051Y-46566227D01*
X91163370Y-46569862D01*
X91107745Y-46572928D01*
X91042806Y-46575153D01*
X90975185Y-46576264D01*
X90957400Y-46576337D01*
X90889528Y-46576064D01*
X90839854Y-46574746D01*
X90804010Y-46571927D01*
X90777624Y-46567150D01*
X90756326Y-46559957D01*
X90743526Y-46553967D01*
X90715400Y-46537333D01*
X90697468Y-46522268D01*
X90694847Y-46517997D01*
X90700376Y-46500363D01*
X90726660Y-46483292D01*
X90771878Y-46467558D01*
X90834208Y-46453938D01*
X90852571Y-46450904D01*
X90948490Y-46435838D01*
X91025041Y-46423246D01*
X91085180Y-46412211D01*
X91131860Y-46401820D01*
X91168037Y-46391156D01*
X91196665Y-46379305D01*
X91220698Y-46365351D01*
X91243092Y-46348381D01*
X91266802Y-46327478D01*
X91274780Y-46320149D01*
X91302753Y-46292799D01*
X91317560Y-46271129D01*
X91323352Y-46246332D01*
X91324289Y-46215083D01*
X91313975Y-46153805D01*
X91283152Y-46101740D01*
X91231995Y-46059058D01*
X91160683Y-46025925D01*
X91109800Y-46011064D01*
X91054500Y-46001466D01*
X90988253Y-45996036D01*
X90915106Y-45994467D01*
X90839103Y-45996451D01*
G36*
X90071222Y-46017745D02*
G01*
X90064642Y-46025318D01*
X90059479Y-46035087D01*
X90055564Y-46049671D01*
X90052724Y-46071685D01*
X90050787Y-46103748D01*
X90049583Y-46148475D01*
X90048939Y-46208485D01*
X90048684Y-46286394D01*
X90048645Y-46362056D01*
X90048714Y-46455902D01*
X90049038Y-46529789D01*
X90049786Y-46586332D01*
X90051132Y-46628149D01*
X90053246Y-46657857D01*
X90056300Y-46678073D01*
X90060466Y-46691414D01*
X90065916Y-46700498D01*
X90071222Y-46706367D01*
X90104226Y-46726047D01*
X90139391Y-46724281D01*
X90170855Y-46702817D01*
X90178084Y-46694437D01*
X90183734Y-46684714D01*
X90187999Y-46670961D01*
X90191073Y-46650489D01*
X90193152Y-46620612D01*
X90194430Y-46578641D01*
X90195101Y-46521889D01*
X90195359Y-46447667D01*
X90195400Y-46363637D01*
X90195400Y-46050585D01*
X90167691Y-46022876D01*
X90133537Y-45999563D01*
X90100406Y-45998723D01*
X90071222Y-46017745D01*
X90071222Y-46017745D01*
G37*
X90071222Y-46017745D02*
X90064642Y-46025318D01*
X90059479Y-46035087D01*
X90055564Y-46049671D01*
X90052724Y-46071685D01*
X90050787Y-46103748D01*
X90049583Y-46148475D01*
X90048939Y-46208485D01*
X90048684Y-46286394D01*
X90048645Y-46362056D01*
X90048714Y-46455902D01*
X90049038Y-46529789D01*
X90049786Y-46586332D01*
X90051132Y-46628149D01*
X90053246Y-46657857D01*
X90056300Y-46678073D01*
X90060466Y-46691414D01*
X90065916Y-46700498D01*
X90071222Y-46706367D01*
X90104226Y-46726047D01*
X90139391Y-46724281D01*
X90170855Y-46702817D01*
X90178084Y-46694437D01*
X90183734Y-46684714D01*
X90187999Y-46670961D01*
X90191073Y-46650489D01*
X90193152Y-46620612D01*
X90194430Y-46578641D01*
X90195101Y-46521889D01*
X90195359Y-46447667D01*
X90195400Y-46363637D01*
X90195400Y-46050585D01*
X90167691Y-46022876D01*
X90133537Y-45999563D01*
X90100406Y-45998723D01*
X90071222Y-46017745D01*
G36*
X89097481Y-46000699D02*
G01*
X89028965Y-46012195D01*
X88976343Y-46030067D01*
X88942108Y-46053599D01*
X88932779Y-46067024D01*
X88923293Y-46098248D01*
X88929677Y-46126495D01*
X88949830Y-46153282D01*
X88981145Y-46165813D01*
X89026583Y-46164796D01*
X89061726Y-46158006D01*
X89139819Y-46145071D01*
X89219626Y-46143842D01*
X89308955Y-46154341D01*
X89333629Y-46158790D01*
X89416691Y-46182208D01*
X89481673Y-46217045D01*
X89527861Y-46262704D01*
X89554545Y-46318594D01*
X89560063Y-46347488D01*
X89556451Y-46406112D01*
X89533129Y-46457979D01*
X89492224Y-46502078D01*
X89435859Y-46537399D01*
X89366160Y-46562929D01*
X89285252Y-46577659D01*
X89195260Y-46580578D01*
X89098310Y-46570675D01*
X89092836Y-46569741D01*
X89054275Y-46562559D01*
X89032894Y-46555621D01*
X89023627Y-46545327D01*
X89021406Y-46528076D01*
X89021356Y-46518941D01*
X89021356Y-46480589D01*
X89089831Y-46480589D01*
X89150300Y-46476447D01*
X89191565Y-46463247D01*
X89215575Y-46439830D01*
X89224277Y-46405036D01*
X89224383Y-46400494D01*
X89219292Y-46370754D01*
X89201833Y-46349519D01*
X89169339Y-46335466D01*
X89119143Y-46327273D01*
X89070523Y-46324261D01*
X88999856Y-46322533D01*
X88948598Y-46325170D01*
X88913639Y-46334900D01*
X88891870Y-46354453D01*
X88880180Y-46386556D01*
X88875460Y-46433938D01*
X88874600Y-46496171D01*
X88876009Y-46565635D01*
X88880248Y-46612886D01*
X88887336Y-46638112D01*
X88888711Y-46640088D01*
X88927628Y-46671608D01*
X88984686Y-46696570D01*
X89056269Y-46714440D01*
X89138758Y-46724686D01*
X89228539Y-46726773D01*
X89321992Y-46720168D01*
X89376956Y-46712056D01*
X89463166Y-46687654D01*
X89543292Y-46647762D01*
X89610377Y-46595987D01*
X89620573Y-46585639D01*
X89653702Y-46542135D01*
X89683594Y-46488218D01*
X89706757Y-46431692D01*
X89719698Y-46380359D01*
X89721258Y-46360644D01*
X89714618Y-46319519D01*
X89696968Y-46268352D01*
X89671697Y-46214494D01*
X89642189Y-46165295D01*
X89616119Y-46132434D01*
X89555165Y-46083552D01*
X89476369Y-46044645D01*
X89382557Y-46016594D01*
X89276550Y-46000279D01*
X89179400Y-45996292D01*
X89097481Y-46000699D01*
X89097481Y-46000699D01*
G37*
X89097481Y-46000699D02*
X89028965Y-46012195D01*
X88976343Y-46030067D01*
X88942108Y-46053599D01*
X88932779Y-46067024D01*
X88923293Y-46098248D01*
X88929677Y-46126495D01*
X88949830Y-46153282D01*
X88981145Y-46165813D01*
X89026583Y-46164796D01*
X89061726Y-46158006D01*
X89139819Y-46145071D01*
X89219626Y-46143842D01*
X89308955Y-46154341D01*
X89333629Y-46158790D01*
X89416691Y-46182208D01*
X89481673Y-46217045D01*
X89527861Y-46262704D01*
X89554545Y-46318594D01*
X89560063Y-46347488D01*
X89556451Y-46406112D01*
X89533129Y-46457979D01*
X89492224Y-46502078D01*
X89435859Y-46537399D01*
X89366160Y-46562929D01*
X89285252Y-46577659D01*
X89195260Y-46580578D01*
X89098310Y-46570675D01*
X89092836Y-46569741D01*
X89054275Y-46562559D01*
X89032894Y-46555621D01*
X89023627Y-46545327D01*
X89021406Y-46528076D01*
X89021356Y-46518941D01*
X89021356Y-46480589D01*
X89089831Y-46480589D01*
X89150300Y-46476447D01*
X89191565Y-46463247D01*
X89215575Y-46439830D01*
X89224277Y-46405036D01*
X89224383Y-46400494D01*
X89219292Y-46370754D01*
X89201833Y-46349519D01*
X89169339Y-46335466D01*
X89119143Y-46327273D01*
X89070523Y-46324261D01*
X88999856Y-46322533D01*
X88948598Y-46325170D01*
X88913639Y-46334900D01*
X88891870Y-46354453D01*
X88880180Y-46386556D01*
X88875460Y-46433938D01*
X88874600Y-46496171D01*
X88876009Y-46565635D01*
X88880248Y-46612886D01*
X88887336Y-46638112D01*
X88888711Y-46640088D01*
X88927628Y-46671608D01*
X88984686Y-46696570D01*
X89056269Y-46714440D01*
X89138758Y-46724686D01*
X89228539Y-46726773D01*
X89321992Y-46720168D01*
X89376956Y-46712056D01*
X89463166Y-46687654D01*
X89543292Y-46647762D01*
X89610377Y-46595987D01*
X89620573Y-46585639D01*
X89653702Y-46542135D01*
X89683594Y-46488218D01*
X89706757Y-46431692D01*
X89719698Y-46380359D01*
X89721258Y-46360644D01*
X89714618Y-46319519D01*
X89696968Y-46268352D01*
X89671697Y-46214494D01*
X89642189Y-46165295D01*
X89616119Y-46132434D01*
X89555165Y-46083552D01*
X89476369Y-46044645D01*
X89382557Y-46016594D01*
X89276550Y-46000279D01*
X89179400Y-45996292D01*
X89097481Y-46000699D01*
G36*
X88447514Y-45999548D02*
G01*
X88423948Y-46013373D01*
X88393135Y-46035981D01*
X88353478Y-46068438D01*
X88303380Y-46111808D01*
X88241243Y-46167158D01*
X88165472Y-46235551D01*
X88078734Y-46314184D01*
X87898111Y-46477978D01*
X87892467Y-46258129D01*
X87890429Y-46182451D01*
X87888463Y-46126094D01*
X87886134Y-46085806D01*
X87883006Y-46058335D01*
X87878645Y-46040429D01*
X87872616Y-46028837D01*
X87864484Y-46020308D01*
X87860172Y-46016723D01*
X87825641Y-45997770D01*
X87792783Y-46000541D01*
X87766718Y-46016733D01*
X87740067Y-46038299D01*
X87736752Y-46353251D01*
X87735835Y-46445879D01*
X87735368Y-46518644D01*
X87735513Y-46574261D01*
X87736432Y-46615442D01*
X87738287Y-46644903D01*
X87741239Y-46665355D01*
X87745450Y-46679513D01*
X87751082Y-46690091D01*
X87757327Y-46698574D01*
X87770839Y-46714307D01*
X87784283Y-46724736D01*
X87799524Y-46728739D01*
X87818426Y-46725194D01*
X87842855Y-46712979D01*
X87874673Y-46690971D01*
X87915748Y-46658049D01*
X87967942Y-46613091D01*
X88033122Y-46554975D01*
X88106956Y-46488199D01*
X88372245Y-46247558D01*
X88377889Y-46466689D01*
X88379931Y-46542228D01*
X88381902Y-46598454D01*
X88384239Y-46638624D01*
X88387381Y-46665996D01*
X88391764Y-46683828D01*
X88397824Y-46695379D01*
X88406000Y-46703907D01*
X88410184Y-46707382D01*
X88447165Y-46726472D01*
X88482108Y-46723593D01*
X88512536Y-46699200D01*
X88519497Y-46689386D01*
X88524923Y-46677926D01*
X88529003Y-46662068D01*
X88531929Y-46639063D01*
X88533892Y-46606162D01*
X88535083Y-46560616D01*
X88535692Y-46499673D01*
X88535911Y-46420586D01*
X88535934Y-46362056D01*
X88535860Y-46270507D01*
X88535513Y-46198787D01*
X88534701Y-46144145D01*
X88533233Y-46103832D01*
X88530919Y-46075098D01*
X88527567Y-46055193D01*
X88522988Y-46041368D01*
X88516989Y-46030872D01*
X88512536Y-46024911D01*
X88501250Y-46010791D01*
X88490701Y-46000129D01*
X88479293Y-45993992D01*
X88465430Y-45993443D01*
X88447514Y-45999548D01*
X88447514Y-45999548D01*
G37*
X88447514Y-45999548D02*
X88423948Y-46013373D01*
X88393135Y-46035981D01*
X88353478Y-46068438D01*
X88303380Y-46111808D01*
X88241243Y-46167158D01*
X88165472Y-46235551D01*
X88078734Y-46314184D01*
X87898111Y-46477978D01*
X87892467Y-46258129D01*
X87890429Y-46182451D01*
X87888463Y-46126094D01*
X87886134Y-46085806D01*
X87883006Y-46058335D01*
X87878645Y-46040429D01*
X87872616Y-46028837D01*
X87864484Y-46020308D01*
X87860172Y-46016723D01*
X87825641Y-45997770D01*
X87792783Y-46000541D01*
X87766718Y-46016733D01*
X87740067Y-46038299D01*
X87736752Y-46353251D01*
X87735835Y-46445879D01*
X87735368Y-46518644D01*
X87735513Y-46574261D01*
X87736432Y-46615442D01*
X87738287Y-46644903D01*
X87741239Y-46665355D01*
X87745450Y-46679513D01*
X87751082Y-46690091D01*
X87757327Y-46698574D01*
X87770839Y-46714307D01*
X87784283Y-46724736D01*
X87799524Y-46728739D01*
X87818426Y-46725194D01*
X87842855Y-46712979D01*
X87874673Y-46690971D01*
X87915748Y-46658049D01*
X87967942Y-46613091D01*
X88033122Y-46554975D01*
X88106956Y-46488199D01*
X88372245Y-46247558D01*
X88377889Y-46466689D01*
X88379931Y-46542228D01*
X88381902Y-46598454D01*
X88384239Y-46638624D01*
X88387381Y-46665996D01*
X88391764Y-46683828D01*
X88397824Y-46695379D01*
X88406000Y-46703907D01*
X88410184Y-46707382D01*
X88447165Y-46726472D01*
X88482108Y-46723593D01*
X88512536Y-46699200D01*
X88519497Y-46689386D01*
X88524923Y-46677926D01*
X88529003Y-46662068D01*
X88531929Y-46639063D01*
X88533892Y-46606162D01*
X88535083Y-46560616D01*
X88535692Y-46499673D01*
X88535911Y-46420586D01*
X88535934Y-46362056D01*
X88535860Y-46270507D01*
X88535513Y-46198787D01*
X88534701Y-46144145D01*
X88533233Y-46103832D01*
X88530919Y-46075098D01*
X88527567Y-46055193D01*
X88522988Y-46041368D01*
X88516989Y-46030872D01*
X88512536Y-46024911D01*
X88501250Y-46010791D01*
X88490701Y-46000129D01*
X88479293Y-45993992D01*
X88465430Y-45993443D01*
X88447514Y-45999548D01*
G36*
X86917057Y-45995360D02*
G01*
X86840699Y-45996274D01*
X86782183Y-45998411D01*
X86739145Y-46002275D01*
X86709217Y-46008367D01*
X86690032Y-46017190D01*
X86679224Y-46029246D01*
X86674427Y-46045039D01*
X86673273Y-46065070D01*
X86673267Y-46067435D01*
X86674269Y-46090092D01*
X86679004Y-46107603D01*
X86690067Y-46120674D01*
X86710052Y-46130013D01*
X86741554Y-46136327D01*
X86787168Y-46140322D01*
X86849487Y-46142706D01*
X86931107Y-46144186D01*
X86956123Y-46144514D01*
X87198200Y-46147567D01*
X87201586Y-46212478D01*
X87204971Y-46277389D01*
X87036824Y-46277389D01*
X86971134Y-46277631D01*
X86924228Y-46278656D01*
X86892317Y-46280911D01*
X86871609Y-46284842D01*
X86858316Y-46290898D01*
X86848645Y-46299524D01*
X86848583Y-46299593D01*
X86831044Y-46333212D01*
X86831678Y-46369548D01*
X86850086Y-46400523D01*
X86853729Y-46403707D01*
X86866659Y-46411912D01*
X86884376Y-46417621D01*
X86910830Y-46421262D01*
X86949968Y-46423267D01*
X87005738Y-46424064D01*
X87041406Y-46424145D01*
X87203845Y-46424145D01*
X87203845Y-46582189D01*
X86957239Y-46582189D01*
X86875820Y-46582331D01*
X86813990Y-46582914D01*
X86768763Y-46584168D01*
X86737152Y-46586327D01*
X86716169Y-46589623D01*
X86702827Y-46594289D01*
X86694139Y-46600557D01*
X86691950Y-46602833D01*
X86675786Y-46634380D01*
X86674603Y-46670268D01*
X86687864Y-46701385D01*
X86698357Y-46711371D01*
X86709271Y-46716869D01*
X86726183Y-46721122D01*
X86751767Y-46724280D01*
X86788699Y-46726492D01*
X86839654Y-46727906D01*
X86907306Y-46728672D01*
X86994331Y-46728938D01*
X87014006Y-46728945D01*
X87102489Y-46728887D01*
X87171173Y-46728567D01*
X87222836Y-46727767D01*
X87260255Y-46726267D01*
X87286210Y-46723849D01*
X87303478Y-46720294D01*
X87314838Y-46715382D01*
X87323068Y-46708895D01*
X87327583Y-46704238D01*
X87334379Y-46695989D01*
X87339688Y-46685769D01*
X87343694Y-46670900D01*
X87346579Y-46648702D01*
X87348526Y-46616493D01*
X87349719Y-46571596D01*
X87350339Y-46511328D01*
X87350571Y-46433011D01*
X87350600Y-46367094D01*
X87350529Y-46274728D01*
X87350192Y-46202217D01*
X87349402Y-46146837D01*
X87347974Y-46105865D01*
X87345721Y-46076578D01*
X87342457Y-46056253D01*
X87337996Y-46042166D01*
X87332152Y-46031595D01*
X87327203Y-46024911D01*
X87303806Y-45995167D01*
X87013626Y-45995167D01*
X86917057Y-45995360D01*
X86917057Y-45995360D01*
G37*
X86917057Y-45995360D02*
X86840699Y-45996274D01*
X86782183Y-45998411D01*
X86739145Y-46002275D01*
X86709217Y-46008367D01*
X86690032Y-46017190D01*
X86679224Y-46029246D01*
X86674427Y-46045039D01*
X86673273Y-46065070D01*
X86673267Y-46067435D01*
X86674269Y-46090092D01*
X86679004Y-46107603D01*
X86690067Y-46120674D01*
X86710052Y-46130013D01*
X86741554Y-46136327D01*
X86787168Y-46140322D01*
X86849487Y-46142706D01*
X86931107Y-46144186D01*
X86956123Y-46144514D01*
X87198200Y-46147567D01*
X87201586Y-46212478D01*
X87204971Y-46277389D01*
X87036824Y-46277389D01*
X86971134Y-46277631D01*
X86924228Y-46278656D01*
X86892317Y-46280911D01*
X86871609Y-46284842D01*
X86858316Y-46290898D01*
X86848645Y-46299524D01*
X86848583Y-46299593D01*
X86831044Y-46333212D01*
X86831678Y-46369548D01*
X86850086Y-46400523D01*
X86853729Y-46403707D01*
X86866659Y-46411912D01*
X86884376Y-46417621D01*
X86910830Y-46421262D01*
X86949968Y-46423267D01*
X87005738Y-46424064D01*
X87041406Y-46424145D01*
X87203845Y-46424145D01*
X87203845Y-46582189D01*
X86957239Y-46582189D01*
X86875820Y-46582331D01*
X86813990Y-46582914D01*
X86768763Y-46584168D01*
X86737152Y-46586327D01*
X86716169Y-46589623D01*
X86702827Y-46594289D01*
X86694139Y-46600557D01*
X86691950Y-46602833D01*
X86675786Y-46634380D01*
X86674603Y-46670268D01*
X86687864Y-46701385D01*
X86698357Y-46711371D01*
X86709271Y-46716869D01*
X86726183Y-46721122D01*
X86751767Y-46724280D01*
X86788699Y-46726492D01*
X86839654Y-46727906D01*
X86907306Y-46728672D01*
X86994331Y-46728938D01*
X87014006Y-46728945D01*
X87102489Y-46728887D01*
X87171173Y-46728567D01*
X87222836Y-46727767D01*
X87260255Y-46726267D01*
X87286210Y-46723849D01*
X87303478Y-46720294D01*
X87314838Y-46715382D01*
X87323068Y-46708895D01*
X87327583Y-46704238D01*
X87334379Y-46695989D01*
X87339688Y-46685769D01*
X87343694Y-46670900D01*
X87346579Y-46648702D01*
X87348526Y-46616493D01*
X87349719Y-46571596D01*
X87350339Y-46511328D01*
X87350571Y-46433011D01*
X87350600Y-46367094D01*
X87350529Y-46274728D01*
X87350192Y-46202217D01*
X87349402Y-46146837D01*
X87347974Y-46105865D01*
X87345721Y-46076578D01*
X87342457Y-46056253D01*
X87337996Y-46042166D01*
X87332152Y-46031595D01*
X87327203Y-46024911D01*
X87303806Y-45995167D01*
X87013626Y-45995167D01*
X86917057Y-45995360D01*
G36*
X86129091Y-45995375D02*
G01*
X86000112Y-45999736D01*
X85890409Y-46012961D01*
X85798174Y-46035841D01*
X85721598Y-46069170D01*
X85658873Y-46113738D01*
X85608188Y-46170336D01*
X85567737Y-46239758D01*
X85566941Y-46241451D01*
X85542799Y-46303583D01*
X85534197Y-46358609D01*
X85541169Y-46413987D01*
X85563746Y-46477173D01*
X85568028Y-46486789D01*
X85597228Y-46543066D01*
X85630044Y-46586551D01*
X85672398Y-46623517D01*
X85730210Y-46660235D01*
X85733569Y-46662152D01*
X85783896Y-46686327D01*
X85840779Y-46704382D01*
X85907873Y-46716939D01*
X85988835Y-46724622D01*
X86087318Y-46728053D01*
X86122114Y-46728351D01*
X86287806Y-46728945D01*
X86311203Y-46699200D01*
X86318143Y-46689419D01*
X86323558Y-46677997D01*
X86327635Y-46662195D01*
X86330563Y-46639275D01*
X86332533Y-46606496D01*
X86333175Y-46582189D01*
X86176556Y-46582189D01*
X86082674Y-46582189D01*
X86027736Y-46580583D01*
X85971340Y-46576355D01*
X85925055Y-46570392D01*
X85922261Y-46569890D01*
X85840052Y-46547836D01*
X85776286Y-46514700D01*
X85728948Y-46468947D01*
X85696018Y-46409039D01*
X85690292Y-46393161D01*
X85684679Y-46368433D01*
X85687109Y-46344002D01*
X85698933Y-46311500D01*
X85706060Y-46295534D01*
X85729400Y-46253106D01*
X85757520Y-46223340D01*
X85788460Y-46202611D01*
X85850434Y-46175637D01*
X85929749Y-46156098D01*
X86022147Y-46144846D01*
X86089067Y-46142370D01*
X86176556Y-46141922D01*
X86176556Y-46582189D01*
X86333175Y-46582189D01*
X86333732Y-46561121D01*
X86334350Y-46500411D01*
X86334575Y-46421626D01*
X86334600Y-46360020D01*
X86334600Y-46050585D01*
X86306891Y-46022876D01*
X86294594Y-46011644D01*
X86281297Y-46003953D01*
X86262728Y-45999140D01*
X86234614Y-45996546D01*
X86192683Y-45995510D01*
X86132663Y-45995370D01*
X86129091Y-45995375D01*
X86129091Y-45995375D01*
G37*
X86129091Y-45995375D02*
X86000112Y-45999736D01*
X85890409Y-46012961D01*
X85798174Y-46035841D01*
X85721598Y-46069170D01*
X85658873Y-46113738D01*
X85608188Y-46170336D01*
X85567737Y-46239758D01*
X85566941Y-46241451D01*
X85542799Y-46303583D01*
X85534197Y-46358609D01*
X85541169Y-46413987D01*
X85563746Y-46477173D01*
X85568028Y-46486789D01*
X85597228Y-46543066D01*
X85630044Y-46586551D01*
X85672398Y-46623517D01*
X85730210Y-46660235D01*
X85733569Y-46662152D01*
X85783896Y-46686327D01*
X85840779Y-46704382D01*
X85907873Y-46716939D01*
X85988835Y-46724622D01*
X86087318Y-46728053D01*
X86122114Y-46728351D01*
X86287806Y-46728945D01*
X86311203Y-46699200D01*
X86318143Y-46689419D01*
X86323558Y-46677997D01*
X86327635Y-46662195D01*
X86330563Y-46639275D01*
X86332533Y-46606496D01*
X86333175Y-46582189D01*
X86176556Y-46582189D01*
X86082674Y-46582189D01*
X86027736Y-46580583D01*
X85971340Y-46576355D01*
X85925055Y-46570392D01*
X85922261Y-46569890D01*
X85840052Y-46547836D01*
X85776286Y-46514700D01*
X85728948Y-46468947D01*
X85696018Y-46409039D01*
X85690292Y-46393161D01*
X85684679Y-46368433D01*
X85687109Y-46344002D01*
X85698933Y-46311500D01*
X85706060Y-46295534D01*
X85729400Y-46253106D01*
X85757520Y-46223340D01*
X85788460Y-46202611D01*
X85850434Y-46175637D01*
X85929749Y-46156098D01*
X86022147Y-46144846D01*
X86089067Y-46142370D01*
X86176556Y-46141922D01*
X86176556Y-46582189D01*
X86333175Y-46582189D01*
X86333732Y-46561121D01*
X86334350Y-46500411D01*
X86334575Y-46421626D01*
X86334600Y-46360020D01*
X86334600Y-46050585D01*
X86306891Y-46022876D01*
X86294594Y-46011644D01*
X86281297Y-46003953D01*
X86262728Y-45999140D01*
X86234614Y-45996546D01*
X86192683Y-45995510D01*
X86132663Y-45995370D01*
X86129091Y-45995375D01*
G36*
X83402735Y-45997134D02*
G01*
X83383145Y-46004135D01*
X83382390Y-46004477D01*
X83355787Y-46024778D01*
X83341130Y-46045661D01*
X83338262Y-46055452D01*
X83338404Y-46068461D01*
X83342439Y-46086995D01*
X83351254Y-46113357D01*
X83365731Y-46149852D01*
X83386755Y-46198787D01*
X83415212Y-46262465D01*
X83451985Y-46343193D01*
X83472225Y-46387316D01*
X83508775Y-46466085D01*
X83543085Y-46538523D01*
X83573848Y-46601980D01*
X83599752Y-46653808D01*
X83619490Y-46691359D01*
X83631750Y-46711984D01*
X83634176Y-46714833D01*
X83665217Y-46727402D01*
X83700279Y-46725719D01*
X83728400Y-46710432D01*
X83729546Y-46709189D01*
X83740732Y-46692254D01*
X83759496Y-46659270D01*
X83783525Y-46614480D01*
X83810503Y-46562132D01*
X83820199Y-46542842D01*
X83893386Y-46396250D01*
X83973160Y-46555493D01*
X84001633Y-46610515D01*
X84028050Y-46658232D01*
X84050252Y-46694993D01*
X84066081Y-46717144D01*
X84071446Y-46721841D01*
X84113143Y-46728202D01*
X84147551Y-46714833D01*
X84157672Y-46700546D01*
X84175186Y-46668792D01*
X84198665Y-46622697D01*
X84226680Y-46565385D01*
X84257801Y-46499980D01*
X84290601Y-46429607D01*
X84323650Y-46357391D01*
X84355519Y-46286455D01*
X84384781Y-46219925D01*
X84410005Y-46160926D01*
X84429764Y-46112581D01*
X84442628Y-46078015D01*
X84447169Y-46060353D01*
X84447123Y-46059713D01*
X84436074Y-46037488D01*
X84413990Y-46014853D01*
X84412690Y-46013868D01*
X84385547Y-45998525D01*
X84360442Y-45998674D01*
X84351032Y-46001566D01*
X84339566Y-46007818D01*
X84327390Y-46020114D01*
X84313043Y-46041008D01*
X84295064Y-46073049D01*
X84271993Y-46118788D01*
X84242370Y-46180777D01*
X84215655Y-46237998D01*
X84184920Y-46304326D01*
X84157379Y-46363974D01*
X84134462Y-46413825D01*
X84117602Y-46450764D01*
X84108227Y-46471673D01*
X84106860Y-46474945D01*
X84100711Y-46469597D01*
X84086578Y-46447209D01*
X84066343Y-46411046D01*
X84041885Y-46364377D01*
X84032152Y-46345122D01*
X83999183Y-46280104D01*
X83973757Y-46232754D01*
X83953788Y-46200319D01*
X83937190Y-46180046D01*
X83921876Y-46169182D01*
X83905760Y-46164975D01*
X83895257Y-46164500D01*
X83876730Y-46166142D01*
X83860496Y-46172931D01*
X83844365Y-46187666D01*
X83826149Y-46213144D01*
X83803661Y-46252161D01*
X83774711Y-46307514D01*
X83758738Y-46339003D01*
X83732830Y-46389187D01*
X83710233Y-46430804D01*
X83692942Y-46460342D01*
X83682950Y-46474289D01*
X83681591Y-46474870D01*
X83675139Y-46463893D01*
X83660692Y-46435390D01*
X83639697Y-46392344D01*
X83613603Y-46337738D01*
X83583854Y-46274554D01*
X83569220Y-46243171D01*
X83531150Y-46162178D01*
X83500495Y-46099856D01*
X83475663Y-46054171D01*
X83455063Y-46023089D01*
X83437102Y-46004578D01*
X83420190Y-45996604D01*
X83402735Y-45997134D01*
X83402735Y-45997134D01*
G37*
X83402735Y-45997134D02*
X83383145Y-46004135D01*
X83382390Y-46004477D01*
X83355787Y-46024778D01*
X83341130Y-46045661D01*
X83338262Y-46055452D01*
X83338404Y-46068461D01*
X83342439Y-46086995D01*
X83351254Y-46113357D01*
X83365731Y-46149852D01*
X83386755Y-46198787D01*
X83415212Y-46262465D01*
X83451985Y-46343193D01*
X83472225Y-46387316D01*
X83508775Y-46466085D01*
X83543085Y-46538523D01*
X83573848Y-46601980D01*
X83599752Y-46653808D01*
X83619490Y-46691359D01*
X83631750Y-46711984D01*
X83634176Y-46714833D01*
X83665217Y-46727402D01*
X83700279Y-46725719D01*
X83728400Y-46710432D01*
X83729546Y-46709189D01*
X83740732Y-46692254D01*
X83759496Y-46659270D01*
X83783525Y-46614480D01*
X83810503Y-46562132D01*
X83820199Y-46542842D01*
X83893386Y-46396250D01*
X83973160Y-46555493D01*
X84001633Y-46610515D01*
X84028050Y-46658232D01*
X84050252Y-46694993D01*
X84066081Y-46717144D01*
X84071446Y-46721841D01*
X84113143Y-46728202D01*
X84147551Y-46714833D01*
X84157672Y-46700546D01*
X84175186Y-46668792D01*
X84198665Y-46622697D01*
X84226680Y-46565385D01*
X84257801Y-46499980D01*
X84290601Y-46429607D01*
X84323650Y-46357391D01*
X84355519Y-46286455D01*
X84384781Y-46219925D01*
X84410005Y-46160926D01*
X84429764Y-46112581D01*
X84442628Y-46078015D01*
X84447169Y-46060353D01*
X84447123Y-46059713D01*
X84436074Y-46037488D01*
X84413990Y-46014853D01*
X84412690Y-46013868D01*
X84385547Y-45998525D01*
X84360442Y-45998674D01*
X84351032Y-46001566D01*
X84339566Y-46007818D01*
X84327390Y-46020114D01*
X84313043Y-46041008D01*
X84295064Y-46073049D01*
X84271993Y-46118788D01*
X84242370Y-46180777D01*
X84215655Y-46237998D01*
X84184920Y-46304326D01*
X84157379Y-46363974D01*
X84134462Y-46413825D01*
X84117602Y-46450764D01*
X84108227Y-46471673D01*
X84106860Y-46474945D01*
X84100711Y-46469597D01*
X84086578Y-46447209D01*
X84066343Y-46411046D01*
X84041885Y-46364377D01*
X84032152Y-46345122D01*
X83999183Y-46280104D01*
X83973757Y-46232754D01*
X83953788Y-46200319D01*
X83937190Y-46180046D01*
X83921876Y-46169182D01*
X83905760Y-46164975D01*
X83895257Y-46164500D01*
X83876730Y-46166142D01*
X83860496Y-46172931D01*
X83844365Y-46187666D01*
X83826149Y-46213144D01*
X83803661Y-46252161D01*
X83774711Y-46307514D01*
X83758738Y-46339003D01*
X83732830Y-46389187D01*
X83710233Y-46430804D01*
X83692942Y-46460342D01*
X83682950Y-46474289D01*
X83681591Y-46474870D01*
X83675139Y-46463893D01*
X83660692Y-46435390D01*
X83639697Y-46392344D01*
X83613603Y-46337738D01*
X83583854Y-46274554D01*
X83569220Y-46243171D01*
X83531150Y-46162178D01*
X83500495Y-46099856D01*
X83475663Y-46054171D01*
X83455063Y-46023089D01*
X83437102Y-46004578D01*
X83420190Y-45996604D01*
X83402735Y-45997134D01*
G36*
X82958786Y-46001977D02*
G01*
X82935073Y-46016747D01*
X82908422Y-46038327D01*
X82908422Y-46359873D01*
X82908507Y-46453930D01*
X82908871Y-46528032D01*
X82909676Y-46584804D01*
X82911087Y-46626868D01*
X82913267Y-46656848D01*
X82916379Y-46677367D01*
X82920586Y-46691049D01*
X82926052Y-46700516D01*
X82929928Y-46705182D01*
X82961366Y-46725675D01*
X82997167Y-46724839D01*
X83028527Y-46707364D01*
X83055178Y-46685784D01*
X83055178Y-46038327D01*
X83028527Y-46016747D01*
X83002806Y-46001049D01*
X82981800Y-45995167D01*
X82958786Y-46001977D01*
X82958786Y-46001977D01*
G37*
X82958786Y-46001977D02*
X82935073Y-46016747D01*
X82908422Y-46038327D01*
X82908422Y-46359873D01*
X82908507Y-46453930D01*
X82908871Y-46528032D01*
X82909676Y-46584804D01*
X82911087Y-46626868D01*
X82913267Y-46656848D01*
X82916379Y-46677367D01*
X82920586Y-46691049D01*
X82926052Y-46700516D01*
X82929928Y-46705182D01*
X82961366Y-46725675D01*
X82997167Y-46724839D01*
X83028527Y-46707364D01*
X83055178Y-46685784D01*
X83055178Y-46038327D01*
X83028527Y-46016747D01*
X83002806Y-46001049D01*
X82981800Y-45995167D01*
X82958786Y-46001977D01*
G36*
X82184335Y-45995263D02*
G01*
X82105628Y-45995642D01*
X82044537Y-45996433D01*
X81998583Y-45997770D01*
X81965286Y-45999783D01*
X81942164Y-46002606D01*
X81926738Y-46006369D01*
X81916529Y-46011205D01*
X81911587Y-46014922D01*
X81885943Y-46047458D01*
X81882841Y-46081238D01*
X81898689Y-46111926D01*
X81909052Y-46124189D01*
X81920204Y-46132550D01*
X81936365Y-46137757D01*
X81961758Y-46140557D01*
X82000602Y-46141696D01*
X82057120Y-46141921D01*
X82068220Y-46141922D01*
X82214156Y-46141922D01*
X82214156Y-46412856D01*
X82214252Y-46498254D01*
X82214689Y-46563964D01*
X82215688Y-46612874D01*
X82217472Y-46647873D01*
X82220263Y-46671849D01*
X82224283Y-46687693D01*
X82229755Y-46698291D01*
X82236734Y-46706367D01*
X82269666Y-46726212D01*
X82304046Y-46724648D01*
X82335224Y-46702006D01*
X82337514Y-46699200D01*
X82344971Y-46688592D01*
X82350653Y-46676181D01*
X82354799Y-46658950D01*
X82357650Y-46633884D01*
X82359446Y-46597967D01*
X82360428Y-46548183D01*
X82360836Y-46481517D01*
X82360911Y-46405689D01*
X82360911Y-46141922D01*
X82500273Y-46141922D01*
X82560078Y-46141518D01*
X82601482Y-46139940D01*
X82628652Y-46136647D01*
X82645754Y-46131092D01*
X82656957Y-46122731D01*
X82658317Y-46121278D01*
X82674675Y-46088039D01*
X82673228Y-46050462D01*
X82654422Y-46017745D01*
X82647150Y-46011398D01*
X82637773Y-46006366D01*
X82623791Y-46002496D01*
X82602704Y-45999637D01*
X82572011Y-45997635D01*
X82529211Y-45996339D01*
X82471805Y-45995598D01*
X82397290Y-45995258D01*
X82303167Y-45995168D01*
X82283140Y-45995167D01*
X82184335Y-45995263D01*
X82184335Y-45995263D01*
G37*
X82184335Y-45995263D02*
X82105628Y-45995642D01*
X82044537Y-45996433D01*
X81998583Y-45997770D01*
X81965286Y-45999783D01*
X81942164Y-46002606D01*
X81926738Y-46006369D01*
X81916529Y-46011205D01*
X81911587Y-46014922D01*
X81885943Y-46047458D01*
X81882841Y-46081238D01*
X81898689Y-46111926D01*
X81909052Y-46124189D01*
X81920204Y-46132550D01*
X81936365Y-46137757D01*
X81961758Y-46140557D01*
X82000602Y-46141696D01*
X82057120Y-46141921D01*
X82068220Y-46141922D01*
X82214156Y-46141922D01*
X82214156Y-46412856D01*
X82214252Y-46498254D01*
X82214689Y-46563964D01*
X82215688Y-46612874D01*
X82217472Y-46647873D01*
X82220263Y-46671849D01*
X82224283Y-46687693D01*
X82229755Y-46698291D01*
X82236734Y-46706367D01*
X82269666Y-46726212D01*
X82304046Y-46724648D01*
X82335224Y-46702006D01*
X82337514Y-46699200D01*
X82344971Y-46688592D01*
X82350653Y-46676181D01*
X82354799Y-46658950D01*
X82357650Y-46633884D01*
X82359446Y-46597967D01*
X82360428Y-46548183D01*
X82360836Y-46481517D01*
X82360911Y-46405689D01*
X82360911Y-46141922D01*
X82500273Y-46141922D01*
X82560078Y-46141518D01*
X82601482Y-46139940D01*
X82628652Y-46136647D01*
X82645754Y-46131092D01*
X82656957Y-46122731D01*
X82658317Y-46121278D01*
X82674675Y-46088039D01*
X82673228Y-46050462D01*
X82654422Y-46017745D01*
X82647150Y-46011398D01*
X82637773Y-46006366D01*
X82623791Y-46002496D01*
X82602704Y-45999637D01*
X82572011Y-45997635D01*
X82529211Y-45996339D01*
X82471805Y-45995598D01*
X82397290Y-45995258D01*
X82303167Y-45995168D01*
X82283140Y-45995167D01*
X82184335Y-45995263D01*
G36*
X80918577Y-46000633D02*
G01*
X80887198Y-46022876D01*
X80859489Y-46050585D01*
X80859489Y-46360020D01*
X80859562Y-46451899D01*
X80859905Y-46523940D01*
X80860708Y-46578880D01*
X80862159Y-46619460D01*
X80864448Y-46648417D01*
X80867764Y-46668491D01*
X80872295Y-46682421D01*
X80878231Y-46692945D01*
X80882886Y-46699200D01*
X80913617Y-46723773D01*
X80948904Y-46726441D01*
X80981155Y-46711371D01*
X80991812Y-46702474D01*
X80998936Y-46690657D01*
X81003233Y-46671626D01*
X81005409Y-46641092D01*
X81006172Y-46594762D01*
X81006245Y-46558971D01*
X81006245Y-46424145D01*
X81502956Y-46424145D01*
X81502956Y-46546800D01*
X81503469Y-46602887D01*
X81505524Y-46641433D01*
X81509892Y-46667461D01*
X81517344Y-46685997D01*
X81526353Y-46699200D01*
X81557256Y-46723704D01*
X81592204Y-46726606D01*
X81625662Y-46709189D01*
X81634796Y-46700059D01*
X81641248Y-46687955D01*
X81645503Y-46669101D01*
X81648048Y-46639720D01*
X81649371Y-46596037D01*
X81649957Y-46534275D01*
X81650025Y-46520100D01*
X81650509Y-46403731D01*
X81650759Y-46307827D01*
X81650677Y-46230277D01*
X81650169Y-46168969D01*
X81649138Y-46121790D01*
X81647487Y-46086630D01*
X81645121Y-46061376D01*
X81641943Y-46043917D01*
X81637856Y-46032141D01*
X81632766Y-46023935D01*
X81627134Y-46017745D01*
X81595272Y-45997944D01*
X81562043Y-46000633D01*
X81530665Y-46022876D01*
X81517967Y-46037226D01*
X81509874Y-46053078D01*
X81505358Y-46075654D01*
X81503394Y-46110178D01*
X81502956Y-46161876D01*
X81502956Y-46277389D01*
X81006245Y-46277389D01*
X81006245Y-46158856D01*
X81005738Y-46104248D01*
X81003702Y-46067375D01*
X80999365Y-46043407D01*
X80991953Y-46027515D01*
X80983667Y-46017745D01*
X80951806Y-45997944D01*
X80918577Y-46000633D01*
X80918577Y-46000633D01*
G37*
X80918577Y-46000633D02*
X80887198Y-46022876D01*
X80859489Y-46050585D01*
X80859489Y-46360020D01*
X80859562Y-46451899D01*
X80859905Y-46523940D01*
X80860708Y-46578880D01*
X80862159Y-46619460D01*
X80864448Y-46648417D01*
X80867764Y-46668491D01*
X80872295Y-46682421D01*
X80878231Y-46692945D01*
X80882886Y-46699200D01*
X80913617Y-46723773D01*
X80948904Y-46726441D01*
X80981155Y-46711371D01*
X80991812Y-46702474D01*
X80998936Y-46690657D01*
X81003233Y-46671626D01*
X81005409Y-46641092D01*
X81006172Y-46594762D01*
X81006245Y-46558971D01*
X81006245Y-46424145D01*
X81502956Y-46424145D01*
X81502956Y-46546800D01*
X81503469Y-46602887D01*
X81505524Y-46641433D01*
X81509892Y-46667461D01*
X81517344Y-46685997D01*
X81526353Y-46699200D01*
X81557256Y-46723704D01*
X81592204Y-46726606D01*
X81625662Y-46709189D01*
X81634796Y-46700059D01*
X81641248Y-46687955D01*
X81645503Y-46669101D01*
X81648048Y-46639720D01*
X81649371Y-46596037D01*
X81649957Y-46534275D01*
X81650025Y-46520100D01*
X81650509Y-46403731D01*
X81650759Y-46307827D01*
X81650677Y-46230277D01*
X81650169Y-46168969D01*
X81649138Y-46121790D01*
X81647487Y-46086630D01*
X81645121Y-46061376D01*
X81641943Y-46043917D01*
X81637856Y-46032141D01*
X81632766Y-46023935D01*
X81627134Y-46017745D01*
X81595272Y-45997944D01*
X81562043Y-46000633D01*
X81530665Y-46022876D01*
X81517967Y-46037226D01*
X81509874Y-46053078D01*
X81505358Y-46075654D01*
X81503394Y-46110178D01*
X81502956Y-46161876D01*
X81502956Y-46277389D01*
X81006245Y-46277389D01*
X81006245Y-46158856D01*
X81005738Y-46104248D01*
X81003702Y-46067375D01*
X80999365Y-46043407D01*
X80991953Y-46027515D01*
X80983667Y-46017745D01*
X80951806Y-45997944D01*
X80918577Y-46000633D01*
G36*
X90093800Y-41215154D02*
G01*
X90082935Y-41329093D01*
X90051318Y-41436716D01*
X90000415Y-41535715D01*
X89931693Y-41623784D01*
X89846619Y-41698616D01*
X89749632Y-41756484D01*
X89643364Y-41796105D01*
X89536350Y-41814673D01*
X89430700Y-41813534D01*
X89328525Y-41794030D01*
X89231934Y-41757506D01*
X89143038Y-41705305D01*
X89063946Y-41638773D01*
X88996769Y-41559252D01*
X88943617Y-41468087D01*
X88906599Y-41366623D01*
X88887827Y-41256202D01*
X88885889Y-41206306D01*
X88885889Y-41118367D01*
X88833960Y-41118367D01*
X88797653Y-41121211D01*
X88770755Y-41133011D01*
X88743649Y-41156749D01*
X88705267Y-41195131D01*
X88705267Y-43386702D01*
X88705276Y-43648839D01*
X88705308Y-43889341D01*
X88705372Y-44109148D01*
X88705476Y-44309201D01*
X88705627Y-44490444D01*
X88705834Y-44653816D01*
X88706106Y-44800260D01*
X88706450Y-44930717D01*
X88706874Y-45046129D01*
X88707387Y-45147438D01*
X88707997Y-45235584D01*
X88708712Y-45311510D01*
X88709540Y-45376157D01*
X88710489Y-45430467D01*
X88711567Y-45475380D01*
X88712783Y-45511840D01*
X88714145Y-45540787D01*
X88715661Y-45563163D01*
X88717338Y-45579909D01*
X88719186Y-45591968D01*
X88721213Y-45600280D01*
X88723425Y-45605787D01*
X88724508Y-45607637D01*
X88728671Y-45614649D01*
X88732205Y-45621096D01*
X88736035Y-45627000D01*
X88741082Y-45632386D01*
X88748271Y-45637278D01*
X88758523Y-45641698D01*
X88772764Y-45645672D01*
X88791914Y-45649221D01*
X88816899Y-45652370D01*
X88848640Y-45655142D01*
X88888062Y-45657561D01*
X88936086Y-45659651D01*
X88993637Y-45661435D01*
X89061637Y-45662937D01*
X89141010Y-45664180D01*
X89232679Y-45665189D01*
X89337566Y-45665985D01*
X89456596Y-45666594D01*
X89590690Y-45667039D01*
X89740773Y-45667343D01*
X89907767Y-45667530D01*
X90092596Y-45667624D01*
X90296183Y-45667648D01*
X90519450Y-45667625D01*
X90763322Y-45667580D01*
X91028721Y-45667537D01*
X91067104Y-45667532D01*
X91334082Y-45667489D01*
X91579402Y-45667418D01*
X91803983Y-45667313D01*
X92008745Y-45667166D01*
X92194606Y-45666969D01*
X92362488Y-45666716D01*
X92513308Y-45666400D01*
X92647987Y-45666013D01*
X92767444Y-45665547D01*
X92872599Y-45664997D01*
X92964371Y-45664353D01*
X93043679Y-45663611D01*
X93111443Y-45662761D01*
X93168582Y-45661797D01*
X93216017Y-45660711D01*
X93254666Y-45659497D01*
X93285449Y-45658147D01*
X93309285Y-45656655D01*
X93327094Y-45655011D01*
X93339795Y-45653211D01*
X93348308Y-45651245D01*
X93352666Y-45649577D01*
X93361128Y-45646006D01*
X93368897Y-45643370D01*
X93376002Y-45640734D01*
X93382473Y-45637162D01*
X93388339Y-45631721D01*
X93393629Y-45623475D01*
X93398374Y-45611490D01*
X93402602Y-45594831D01*
X93406343Y-45572563D01*
X93409627Y-45543752D01*
X93412483Y-45507463D01*
X93414940Y-45462761D01*
X93417029Y-45408711D01*
X93418778Y-45344379D01*
X93420217Y-45268830D01*
X93421376Y-45181130D01*
X93422283Y-45080343D01*
X93422969Y-44965534D01*
X93423463Y-44835770D01*
X93423795Y-44690115D01*
X93423993Y-44527635D01*
X93424087Y-44347395D01*
X93424108Y-44148460D01*
X93424085Y-43929896D01*
X93424046Y-43690768D01*
X93424022Y-43430140D01*
X93424022Y-43387989D01*
X93424036Y-43125092D01*
X93424061Y-42883832D01*
X93424071Y-42663265D01*
X93424042Y-42462452D01*
X93423948Y-42280449D01*
X93423762Y-42116316D01*
X93423459Y-41969111D01*
X93423014Y-41837892D01*
X93422434Y-41727967D01*
X93119597Y-41727967D01*
X93079807Y-41785811D01*
X93068636Y-41801579D01*
X93058566Y-41815541D01*
X93049538Y-41828884D01*
X93041497Y-41842793D01*
X93034386Y-41858456D01*
X93028147Y-41877058D01*
X93022725Y-41899786D01*
X93018062Y-41927827D01*
X93014101Y-41962367D01*
X93010785Y-42004592D01*
X93008059Y-42055689D01*
X93005864Y-42116844D01*
X93004145Y-42189244D01*
X93002844Y-42274075D01*
X93001905Y-42372522D01*
X93001270Y-42485774D01*
X93000884Y-42615016D01*
X93000688Y-42761434D01*
X93000627Y-42926216D01*
X93000643Y-43110547D01*
X93000680Y-43315613D01*
X93000689Y-43438233D01*
X93000665Y-43655182D01*
X93000631Y-43850742D01*
X93000643Y-44026099D01*
X93000758Y-44182441D01*
X93001030Y-44320957D01*
X93001518Y-44442834D01*
X93002276Y-44549260D01*
X93003362Y-44641422D01*
X93004831Y-44720509D01*
X93006740Y-44787708D01*
X93009144Y-44844207D01*
X93012101Y-44891193D01*
X93015666Y-44929855D01*
X93019895Y-44961380D01*
X93024846Y-44986955D01*
X93030573Y-45007770D01*
X93037133Y-45025011D01*
X93044583Y-45039865D01*
X93052979Y-45053522D01*
X93062376Y-45067169D01*
X93072832Y-45081993D01*
X93078923Y-45090883D01*
X93117696Y-45148500D01*
X92586132Y-45148500D01*
X92462883Y-45148465D01*
X92360387Y-45148315D01*
X92276820Y-45147978D01*
X92210356Y-45147386D01*
X92159171Y-45146467D01*
X92121441Y-45145151D01*
X92095340Y-45143369D01*
X92079044Y-45141051D01*
X92070728Y-45138126D01*
X92068568Y-45134524D01*
X92070739Y-45130175D01*
X92071935Y-45128745D01*
X92097085Y-45091673D01*
X92122983Y-45038872D01*
X92146592Y-44976870D01*
X92154861Y-44950457D01*
X92159478Y-44932516D01*
X92163379Y-44911455D01*
X92166648Y-44885189D01*
X92169366Y-44851632D01*
X92171615Y-44808699D01*
X92173477Y-44754304D01*
X92175036Y-44686362D01*
X92176372Y-44602788D01*
X92177569Y-44501495D01*
X92178708Y-44380400D01*
X92179085Y-44335700D01*
X92180102Y-44210549D01*
X92180860Y-44106182D01*
X92181303Y-44020807D01*
X92181370Y-43952633D01*
X92181005Y-43899865D01*
X92180148Y-43860714D01*
X92178741Y-43833385D01*
X92176725Y-43816086D01*
X92174043Y-43807026D01*
X92170636Y-43804412D01*
X92166444Y-43806451D01*
X92161971Y-43810767D01*
X92151616Y-43823702D01*
X92129558Y-43852776D01*
X92097357Y-43895859D01*
X92056574Y-43950818D01*
X92008770Y-44015523D01*
X91955505Y-44087842D01*
X91898340Y-44165644D01*
X91838837Y-44246798D01*
X91778555Y-44329172D01*
X91719055Y-44410636D01*
X91661898Y-44489057D01*
X91608645Y-44562304D01*
X91560857Y-44628247D01*
X91520093Y-44684754D01*
X91487916Y-44729693D01*
X91465885Y-44760934D01*
X91461317Y-44767566D01*
X91438396Y-44804469D01*
X91411588Y-44852459D01*
X91386189Y-44901997D01*
X91382968Y-44908677D01*
X91361290Y-44956872D01*
X91348704Y-44994434D01*
X91342974Y-45030260D01*
X91341856Y-45072300D01*
X91342490Y-45148500D01*
X90188051Y-45148500D01*
X90279215Y-45054769D01*
X90326012Y-45004875D01*
X90376299Y-44948395D01*
X90422344Y-44894126D01*
X90442769Y-44868773D01*
X90473207Y-44829228D01*
X90513262Y-44776016D01*
X90561761Y-44710767D01*
X90617535Y-44635111D01*
X90679411Y-44550677D01*
X90746219Y-44459094D01*
X90816787Y-44361992D01*
X90889945Y-44261001D01*
X90964521Y-44157750D01*
X91039344Y-44053868D01*
X91113243Y-43950985D01*
X91185046Y-43850731D01*
X91253584Y-43754736D01*
X91317684Y-43664627D01*
X91376175Y-43582036D01*
X91427886Y-43508592D01*
X91471647Y-43445924D01*
X91506285Y-43395661D01*
X91530630Y-43359434D01*
X91543511Y-43338871D01*
X91545269Y-43334768D01*
X91537310Y-43323442D01*
X91516515Y-43296262D01*
X91484247Y-43254929D01*
X91441870Y-43201144D01*
X91390747Y-43136606D01*
X91332241Y-43063018D01*
X91267714Y-42982078D01*
X91198531Y-42895488D01*
X91126053Y-42804948D01*
X91051646Y-42712160D01*
X90991917Y-42637802D01*
X89980911Y-42637802D01*
X89975002Y-42650759D01*
X89960672Y-42673008D01*
X89959625Y-42674491D01*
X89940838Y-42704644D01*
X89921191Y-42741475D01*
X89917292Y-42749611D01*
X89913756Y-42758040D01*
X89910630Y-42768159D01*
X89907886Y-42781360D01*
X89905492Y-42799038D01*
X89903419Y-42822584D01*
X89901635Y-42853393D01*
X89900112Y-42892857D01*
X89898819Y-42942369D01*
X89897726Y-43003323D01*
X89896803Y-43077111D01*
X89896019Y-43165128D01*
X89895345Y-43268765D01*
X89894750Y-43389416D01*
X89894205Y-43528474D01*
X89893679Y-43687332D01*
X89893145Y-43866189D01*
X89892606Y-44051307D01*
X89892172Y-44215245D01*
X89891909Y-44359403D01*
X89891884Y-44485179D01*
X89892165Y-44593971D01*
X89892819Y-44687177D01*
X89893914Y-44766197D01*
X89895518Y-44832428D01*
X89897697Y-44887270D01*
X89900519Y-44932121D01*
X89904051Y-44968378D01*
X89908361Y-44997441D01*
X89913517Y-45020709D01*
X89919585Y-45039579D01*
X89926633Y-45055451D01*
X89934729Y-45069722D01*
X89943940Y-45083791D01*
X89952440Y-45096258D01*
X89969576Y-45122552D01*
X89979722Y-45140137D01*
X89980911Y-45143357D01*
X89970004Y-45144434D01*
X89938811Y-45145435D01*
X89889623Y-45146335D01*
X89824733Y-45147110D01*
X89746430Y-45147737D01*
X89657007Y-45148191D01*
X89558756Y-45148449D01*
X89489845Y-45148500D01*
X89384852Y-45148280D01*
X89288010Y-45147648D01*
X89201507Y-45146649D01*
X89127532Y-45145327D01*
X89068274Y-45143726D01*
X89025920Y-45141891D01*
X89002660Y-45139865D01*
X88998778Y-45138593D01*
X89006476Y-45123691D01*
X89014474Y-45115660D01*
X89027646Y-45098534D01*
X89044885Y-45068283D01*
X89056807Y-45043722D01*
X89083445Y-44984811D01*
X89086520Y-43807945D01*
X89089595Y-42631078D01*
X89535253Y-42631078D01*
X89633070Y-42631242D01*
X89723464Y-42631711D01*
X89804030Y-42632447D01*
X89872362Y-42633416D01*
X89926056Y-42634580D01*
X89962705Y-42635903D01*
X89979904Y-42637349D01*
X89980911Y-42637802D01*
X90991917Y-42637802D01*
X90976670Y-42618822D01*
X90902490Y-42526637D01*
X90830469Y-42437304D01*
X90761969Y-42352524D01*
X90698355Y-42273998D01*
X90640988Y-42203426D01*
X90591233Y-42142509D01*
X90550452Y-42092947D01*
X90533288Y-42072278D01*
X90446996Y-41971616D01*
X90370397Y-41888359D01*
X90301583Y-41820538D01*
X90238648Y-41766189D01*
X90229267Y-41758822D01*
X90189756Y-41728217D01*
X91321516Y-41727967D01*
X91316227Y-41775944D01*
X91319530Y-41833288D01*
X91341061Y-41901563D01*
X91381035Y-41981312D01*
X91426343Y-42053595D01*
X91442561Y-42076240D01*
X91470614Y-42113796D01*
X91508830Y-42164121D01*
X91555537Y-42225073D01*
X91609061Y-42294511D01*
X91667731Y-42370294D01*
X91729875Y-42450280D01*
X91793821Y-42532328D01*
X91857895Y-42614296D01*
X91920427Y-42694043D01*
X91979743Y-42769427D01*
X92034171Y-42838307D01*
X92082039Y-42898542D01*
X92121675Y-42947989D01*
X92151406Y-42984508D01*
X92169561Y-43005958D01*
X92172620Y-43009256D01*
X92175479Y-43001249D01*
X92177693Y-42970955D01*
X92179257Y-42918656D01*
X92180167Y-42844631D01*
X92180420Y-42749163D01*
X92180013Y-42632534D01*
X92179104Y-42512545D01*
X92177782Y-42380433D01*
X92176257Y-42268694D01*
X92174281Y-42175125D01*
X92171606Y-42097519D01*
X92167982Y-42033674D01*
X92163161Y-41981383D01*
X92156894Y-41938444D01*
X92148932Y-41902651D01*
X92139027Y-41871800D01*
X92126931Y-41843686D01*
X92112393Y-41816105D01*
X92097711Y-41791066D01*
X92059714Y-41727967D01*
X93119597Y-41727967D01*
X93422434Y-41727967D01*
X93422401Y-41721717D01*
X93421595Y-41619644D01*
X93420570Y-41530733D01*
X93419300Y-41454041D01*
X93417760Y-41388627D01*
X93415924Y-41333549D01*
X93413767Y-41287865D01*
X93411263Y-41250634D01*
X93408387Y-41220913D01*
X93405113Y-41197762D01*
X93401415Y-41180239D01*
X93397269Y-41167401D01*
X93392647Y-41158308D01*
X93387526Y-41152018D01*
X93381878Y-41147588D01*
X93375679Y-41144078D01*
X93368904Y-41140545D01*
X93362908Y-41136976D01*
X93357675Y-41134400D01*
X93349499Y-41132072D01*
X93337286Y-41129978D01*
X93319941Y-41128107D01*
X93296369Y-41126447D01*
X93265477Y-41124984D01*
X93226168Y-41123708D01*
X93177350Y-41122604D01*
X93117927Y-41121661D01*
X93046804Y-41120867D01*
X92962888Y-41120209D01*
X92865083Y-41119675D01*
X92752294Y-41119253D01*
X92623429Y-41118929D01*
X92477391Y-41118692D01*
X92313086Y-41118530D01*
X92129420Y-41118430D01*
X91925297Y-41118380D01*
X91714153Y-41118367D01*
X90093800Y-41118367D01*
X90093800Y-41215154D01*
X90093800Y-41215154D01*
G37*
X90093800Y-41215154D02*
X90082935Y-41329093D01*
X90051318Y-41436716D01*
X90000415Y-41535715D01*
X89931693Y-41623784D01*
X89846619Y-41698616D01*
X89749632Y-41756484D01*
X89643364Y-41796105D01*
X89536350Y-41814673D01*
X89430700Y-41813534D01*
X89328525Y-41794030D01*
X89231934Y-41757506D01*
X89143038Y-41705305D01*
X89063946Y-41638773D01*
X88996769Y-41559252D01*
X88943617Y-41468087D01*
X88906599Y-41366623D01*
X88887827Y-41256202D01*
X88885889Y-41206306D01*
X88885889Y-41118367D01*
X88833960Y-41118367D01*
X88797653Y-41121211D01*
X88770755Y-41133011D01*
X88743649Y-41156749D01*
X88705267Y-41195131D01*
X88705267Y-43386702D01*
X88705276Y-43648839D01*
X88705308Y-43889341D01*
X88705372Y-44109148D01*
X88705476Y-44309201D01*
X88705627Y-44490444D01*
X88705834Y-44653816D01*
X88706106Y-44800260D01*
X88706450Y-44930717D01*
X88706874Y-45046129D01*
X88707387Y-45147438D01*
X88707997Y-45235584D01*
X88708712Y-45311510D01*
X88709540Y-45376157D01*
X88710489Y-45430467D01*
X88711567Y-45475380D01*
X88712783Y-45511840D01*
X88714145Y-45540787D01*
X88715661Y-45563163D01*
X88717338Y-45579909D01*
X88719186Y-45591968D01*
X88721213Y-45600280D01*
X88723425Y-45605787D01*
X88724508Y-45607637D01*
X88728671Y-45614649D01*
X88732205Y-45621096D01*
X88736035Y-45627000D01*
X88741082Y-45632386D01*
X88748271Y-45637278D01*
X88758523Y-45641698D01*
X88772764Y-45645672D01*
X88791914Y-45649221D01*
X88816899Y-45652370D01*
X88848640Y-45655142D01*
X88888062Y-45657561D01*
X88936086Y-45659651D01*
X88993637Y-45661435D01*
X89061637Y-45662937D01*
X89141010Y-45664180D01*
X89232679Y-45665189D01*
X89337566Y-45665985D01*
X89456596Y-45666594D01*
X89590690Y-45667039D01*
X89740773Y-45667343D01*
X89907767Y-45667530D01*
X90092596Y-45667624D01*
X90296183Y-45667648D01*
X90519450Y-45667625D01*
X90763322Y-45667580D01*
X91028721Y-45667537D01*
X91067104Y-45667532D01*
X91334082Y-45667489D01*
X91579402Y-45667418D01*
X91803983Y-45667313D01*
X92008745Y-45667166D01*
X92194606Y-45666969D01*
X92362488Y-45666716D01*
X92513308Y-45666400D01*
X92647987Y-45666013D01*
X92767444Y-45665547D01*
X92872599Y-45664997D01*
X92964371Y-45664353D01*
X93043679Y-45663611D01*
X93111443Y-45662761D01*
X93168582Y-45661797D01*
X93216017Y-45660711D01*
X93254666Y-45659497D01*
X93285449Y-45658147D01*
X93309285Y-45656655D01*
X93327094Y-45655011D01*
X93339795Y-45653211D01*
X93348308Y-45651245D01*
X93352666Y-45649577D01*
X93361128Y-45646006D01*
X93368897Y-45643370D01*
X93376002Y-45640734D01*
X93382473Y-45637162D01*
X93388339Y-45631721D01*
X93393629Y-45623475D01*
X93398374Y-45611490D01*
X93402602Y-45594831D01*
X93406343Y-45572563D01*
X93409627Y-45543752D01*
X93412483Y-45507463D01*
X93414940Y-45462761D01*
X93417029Y-45408711D01*
X93418778Y-45344379D01*
X93420217Y-45268830D01*
X93421376Y-45181130D01*
X93422283Y-45080343D01*
X93422969Y-44965534D01*
X93423463Y-44835770D01*
X93423795Y-44690115D01*
X93423993Y-44527635D01*
X93424087Y-44347395D01*
X93424108Y-44148460D01*
X93424085Y-43929896D01*
X93424046Y-43690768D01*
X93424022Y-43430140D01*
X93424022Y-43387989D01*
X93424036Y-43125092D01*
X93424061Y-42883832D01*
X93424071Y-42663265D01*
X93424042Y-42462452D01*
X93423948Y-42280449D01*
X93423762Y-42116316D01*
X93423459Y-41969111D01*
X93423014Y-41837892D01*
X93422434Y-41727967D01*
X93119597Y-41727967D01*
X93079807Y-41785811D01*
X93068636Y-41801579D01*
X93058566Y-41815541D01*
X93049538Y-41828884D01*
X93041497Y-41842793D01*
X93034386Y-41858456D01*
X93028147Y-41877058D01*
X93022725Y-41899786D01*
X93018062Y-41927827D01*
X93014101Y-41962367D01*
X93010785Y-42004592D01*
X93008059Y-42055689D01*
X93005864Y-42116844D01*
X93004145Y-42189244D01*
X93002844Y-42274075D01*
X93001905Y-42372522D01*
X93001270Y-42485774D01*
X93000884Y-42615016D01*
X93000688Y-42761434D01*
X93000627Y-42926216D01*
X93000643Y-43110547D01*
X93000680Y-43315613D01*
X93000689Y-43438233D01*
X93000665Y-43655182D01*
X93000631Y-43850742D01*
X93000643Y-44026099D01*
X93000758Y-44182441D01*
X93001030Y-44320957D01*
X93001518Y-44442834D01*
X93002276Y-44549260D01*
X93003362Y-44641422D01*
X93004831Y-44720509D01*
X93006740Y-44787708D01*
X93009144Y-44844207D01*
X93012101Y-44891193D01*
X93015666Y-44929855D01*
X93019895Y-44961380D01*
X93024846Y-44986955D01*
X93030573Y-45007770D01*
X93037133Y-45025011D01*
X93044583Y-45039865D01*
X93052979Y-45053522D01*
X93062376Y-45067169D01*
X93072832Y-45081993D01*
X93078923Y-45090883D01*
X93117696Y-45148500D01*
X92586132Y-45148500D01*
X92462883Y-45148465D01*
X92360387Y-45148315D01*
X92276820Y-45147978D01*
X92210356Y-45147386D01*
X92159171Y-45146467D01*
X92121441Y-45145151D01*
X92095340Y-45143369D01*
X92079044Y-45141051D01*
X92070728Y-45138126D01*
X92068568Y-45134524D01*
X92070739Y-45130175D01*
X92071935Y-45128745D01*
X92097085Y-45091673D01*
X92122983Y-45038872D01*
X92146592Y-44976870D01*
X92154861Y-44950457D01*
X92159478Y-44932516D01*
X92163379Y-44911455D01*
X92166648Y-44885189D01*
X92169366Y-44851632D01*
X92171615Y-44808699D01*
X92173477Y-44754304D01*
X92175036Y-44686362D01*
X92176372Y-44602788D01*
X92177569Y-44501495D01*
X92178708Y-44380400D01*
X92179085Y-44335700D01*
X92180102Y-44210549D01*
X92180860Y-44106182D01*
X92181303Y-44020807D01*
X92181370Y-43952633D01*
X92181005Y-43899865D01*
X92180148Y-43860714D01*
X92178741Y-43833385D01*
X92176725Y-43816086D01*
X92174043Y-43807026D01*
X92170636Y-43804412D01*
X92166444Y-43806451D01*
X92161971Y-43810767D01*
X92151616Y-43823702D01*
X92129558Y-43852776D01*
X92097357Y-43895859D01*
X92056574Y-43950818D01*
X92008770Y-44015523D01*
X91955505Y-44087842D01*
X91898340Y-44165644D01*
X91838837Y-44246798D01*
X91778555Y-44329172D01*
X91719055Y-44410636D01*
X91661898Y-44489057D01*
X91608645Y-44562304D01*
X91560857Y-44628247D01*
X91520093Y-44684754D01*
X91487916Y-44729693D01*
X91465885Y-44760934D01*
X91461317Y-44767566D01*
X91438396Y-44804469D01*
X91411588Y-44852459D01*
X91386189Y-44901997D01*
X91382968Y-44908677D01*
X91361290Y-44956872D01*
X91348704Y-44994434D01*
X91342974Y-45030260D01*
X91341856Y-45072300D01*
X91342490Y-45148500D01*
X90188051Y-45148500D01*
X90279215Y-45054769D01*
X90326012Y-45004875D01*
X90376299Y-44948395D01*
X90422344Y-44894126D01*
X90442769Y-44868773D01*
X90473207Y-44829228D01*
X90513262Y-44776016D01*
X90561761Y-44710767D01*
X90617535Y-44635111D01*
X90679411Y-44550677D01*
X90746219Y-44459094D01*
X90816787Y-44361992D01*
X90889945Y-44261001D01*
X90964521Y-44157750D01*
X91039344Y-44053868D01*
X91113243Y-43950985D01*
X91185046Y-43850731D01*
X91253584Y-43754736D01*
X91317684Y-43664627D01*
X91376175Y-43582036D01*
X91427886Y-43508592D01*
X91471647Y-43445924D01*
X91506285Y-43395661D01*
X91530630Y-43359434D01*
X91543511Y-43338871D01*
X91545269Y-43334768D01*
X91537310Y-43323442D01*
X91516515Y-43296262D01*
X91484247Y-43254929D01*
X91441870Y-43201144D01*
X91390747Y-43136606D01*
X91332241Y-43063018D01*
X91267714Y-42982078D01*
X91198531Y-42895488D01*
X91126053Y-42804948D01*
X91051646Y-42712160D01*
X90991917Y-42637802D01*
X89980911Y-42637802D01*
X89975002Y-42650759D01*
X89960672Y-42673008D01*
X89959625Y-42674491D01*
X89940838Y-42704644D01*
X89921191Y-42741475D01*
X89917292Y-42749611D01*
X89913756Y-42758040D01*
X89910630Y-42768159D01*
X89907886Y-42781360D01*
X89905492Y-42799038D01*
X89903419Y-42822584D01*
X89901635Y-42853393D01*
X89900112Y-42892857D01*
X89898819Y-42942369D01*
X89897726Y-43003323D01*
X89896803Y-43077111D01*
X89896019Y-43165128D01*
X89895345Y-43268765D01*
X89894750Y-43389416D01*
X89894205Y-43528474D01*
X89893679Y-43687332D01*
X89893145Y-43866189D01*
X89892606Y-44051307D01*
X89892172Y-44215245D01*
X89891909Y-44359403D01*
X89891884Y-44485179D01*
X89892165Y-44593971D01*
X89892819Y-44687177D01*
X89893914Y-44766197D01*
X89895518Y-44832428D01*
X89897697Y-44887270D01*
X89900519Y-44932121D01*
X89904051Y-44968378D01*
X89908361Y-44997441D01*
X89913517Y-45020709D01*
X89919585Y-45039579D01*
X89926633Y-45055451D01*
X89934729Y-45069722D01*
X89943940Y-45083791D01*
X89952440Y-45096258D01*
X89969576Y-45122552D01*
X89979722Y-45140137D01*
X89980911Y-45143357D01*
X89970004Y-45144434D01*
X89938811Y-45145435D01*
X89889623Y-45146335D01*
X89824733Y-45147110D01*
X89746430Y-45147737D01*
X89657007Y-45148191D01*
X89558756Y-45148449D01*
X89489845Y-45148500D01*
X89384852Y-45148280D01*
X89288010Y-45147648D01*
X89201507Y-45146649D01*
X89127532Y-45145327D01*
X89068274Y-45143726D01*
X89025920Y-45141891D01*
X89002660Y-45139865D01*
X88998778Y-45138593D01*
X89006476Y-45123691D01*
X89014474Y-45115660D01*
X89027646Y-45098534D01*
X89044885Y-45068283D01*
X89056807Y-45043722D01*
X89083445Y-44984811D01*
X89086520Y-43807945D01*
X89089595Y-42631078D01*
X89535253Y-42631078D01*
X89633070Y-42631242D01*
X89723464Y-42631711D01*
X89804030Y-42632447D01*
X89872362Y-42633416D01*
X89926056Y-42634580D01*
X89962705Y-42635903D01*
X89979904Y-42637349D01*
X89980911Y-42637802D01*
X90991917Y-42637802D01*
X90976670Y-42618822D01*
X90902490Y-42526637D01*
X90830469Y-42437304D01*
X90761969Y-42352524D01*
X90698355Y-42273998D01*
X90640988Y-42203426D01*
X90591233Y-42142509D01*
X90550452Y-42092947D01*
X90533288Y-42072278D01*
X90446996Y-41971616D01*
X90370397Y-41888359D01*
X90301583Y-41820538D01*
X90238648Y-41766189D01*
X90229267Y-41758822D01*
X90189756Y-41728217D01*
X91321516Y-41727967D01*
X91316227Y-41775944D01*
X91319530Y-41833288D01*
X91341061Y-41901563D01*
X91381035Y-41981312D01*
X91426343Y-42053595D01*
X91442561Y-42076240D01*
X91470614Y-42113796D01*
X91508830Y-42164121D01*
X91555537Y-42225073D01*
X91609061Y-42294511D01*
X91667731Y-42370294D01*
X91729875Y-42450280D01*
X91793821Y-42532328D01*
X91857895Y-42614296D01*
X91920427Y-42694043D01*
X91979743Y-42769427D01*
X92034171Y-42838307D01*
X92082039Y-42898542D01*
X92121675Y-42947989D01*
X92151406Y-42984508D01*
X92169561Y-43005958D01*
X92172620Y-43009256D01*
X92175479Y-43001249D01*
X92177693Y-42970955D01*
X92179257Y-42918656D01*
X92180167Y-42844631D01*
X92180420Y-42749163D01*
X92180013Y-42632534D01*
X92179104Y-42512545D01*
X92177782Y-42380433D01*
X92176257Y-42268694D01*
X92174281Y-42175125D01*
X92171606Y-42097519D01*
X92167982Y-42033674D01*
X92163161Y-41981383D01*
X92156894Y-41938444D01*
X92148932Y-41902651D01*
X92139027Y-41871800D01*
X92126931Y-41843686D01*
X92112393Y-41816105D01*
X92097711Y-41791066D01*
X92059714Y-41727967D01*
X93119597Y-41727967D01*
X93422434Y-41727967D01*
X93422401Y-41721717D01*
X93421595Y-41619644D01*
X93420570Y-41530733D01*
X93419300Y-41454041D01*
X93417760Y-41388627D01*
X93415924Y-41333549D01*
X93413767Y-41287865D01*
X93411263Y-41250634D01*
X93408387Y-41220913D01*
X93405113Y-41197762D01*
X93401415Y-41180239D01*
X93397269Y-41167401D01*
X93392647Y-41158308D01*
X93387526Y-41152018D01*
X93381878Y-41147588D01*
X93375679Y-41144078D01*
X93368904Y-41140545D01*
X93362908Y-41136976D01*
X93357675Y-41134400D01*
X93349499Y-41132072D01*
X93337286Y-41129978D01*
X93319941Y-41128107D01*
X93296369Y-41126447D01*
X93265477Y-41124984D01*
X93226168Y-41123708D01*
X93177350Y-41122604D01*
X93117927Y-41121661D01*
X93046804Y-41120867D01*
X92962888Y-41120209D01*
X92865083Y-41119675D01*
X92752294Y-41119253D01*
X92623429Y-41118929D01*
X92477391Y-41118692D01*
X92313086Y-41118530D01*
X92129420Y-41118430D01*
X91925297Y-41118380D01*
X91714153Y-41118367D01*
X90093800Y-41118367D01*
X90093800Y-41215154D01*
G36*
X86818971Y-41675171D02*
G01*
X86658830Y-41696345D01*
X86494890Y-41736485D01*
X86325087Y-41795989D01*
X86147357Y-41875254D01*
X86136090Y-41880799D01*
X86078395Y-41908825D01*
X86026848Y-41932902D01*
X85985209Y-41951349D01*
X85957238Y-41962486D01*
X85947667Y-41965033D01*
X85928450Y-41970041D01*
X85923839Y-41974247D01*
X85928942Y-41984680D01*
X85944982Y-42010968D01*
X85970112Y-42050357D01*
X86002486Y-42100091D01*
X86040257Y-42157415D01*
X86081578Y-42219576D01*
X86124602Y-42283818D01*
X86167483Y-42347385D01*
X86208374Y-42407525D01*
X86245429Y-42461480D01*
X86276800Y-42506497D01*
X86300641Y-42539821D01*
X86315106Y-42558697D01*
X86317091Y-42560887D01*
X86327209Y-42556238D01*
X86349550Y-42539062D01*
X86380120Y-42512540D01*
X86395864Y-42498064D01*
X86492353Y-42422782D01*
X86599064Y-42367341D01*
X86714568Y-42332241D01*
X86837438Y-42317980D01*
X86906839Y-42319151D01*
X87027977Y-42336312D01*
X87137195Y-42372194D01*
X87234818Y-42427059D01*
X87321172Y-42501170D01*
X87396585Y-42594788D01*
X87461382Y-42708176D01*
X87498799Y-42794767D01*
X87542652Y-42930466D01*
X87574972Y-43077950D01*
X87595843Y-43233414D01*
X87605349Y-43393056D01*
X87603573Y-43553073D01*
X87590597Y-43709661D01*
X87566506Y-43859018D01*
X87531382Y-43997340D01*
X87485308Y-44120824D01*
X87469027Y-44155078D01*
X87400780Y-44269164D01*
X87320321Y-44365657D01*
X87228830Y-44443770D01*
X87127489Y-44502717D01*
X87017480Y-44541712D01*
X86899985Y-44559968D01*
X86858517Y-44561311D01*
X86736959Y-44550390D01*
X86616522Y-44517574D01*
X86498734Y-44463539D01*
X86385123Y-44388965D01*
X86293715Y-44310639D01*
X86247185Y-44266108D01*
X86065917Y-44563371D01*
X86020820Y-44637533D01*
X85979581Y-44705746D01*
X85943665Y-44765559D01*
X85914534Y-44814520D01*
X85893650Y-44850179D01*
X85882476Y-44870084D01*
X85881025Y-44873179D01*
X85889254Y-44882818D01*
X85914833Y-44900099D01*
X85954527Y-44923383D01*
X86005103Y-44951034D01*
X86063326Y-44981415D01*
X86125963Y-45012890D01*
X86189779Y-45043822D01*
X86251540Y-45072573D01*
X86308012Y-45097508D01*
X86355962Y-45116989D01*
X86379414Y-45125418D01*
X86513179Y-45163233D01*
X86651073Y-45188236D01*
X86798778Y-45201240D01*
X86925567Y-45203568D01*
X86993522Y-45202473D01*
X87059123Y-45200375D01*
X87116553Y-45197534D01*
X87159997Y-45194206D01*
X87174102Y-45192522D01*
X87313116Y-45163687D01*
X87454643Y-45118568D01*
X87592125Y-45059850D01*
X87719006Y-44990220D01*
X87796511Y-44937541D01*
X87923919Y-44829339D01*
X88042222Y-44702771D01*
X88149228Y-44560966D01*
X88242748Y-44407051D01*
X88320590Y-44244153D01*
X88364444Y-44126856D01*
X88414692Y-43943228D01*
X88448191Y-43748681D01*
X88464951Y-43547425D01*
X88464984Y-43343668D01*
X88448299Y-43141621D01*
X88414907Y-42945492D01*
X88364820Y-42759491D01*
X88361003Y-42747903D01*
X88298119Y-42585850D01*
X88221372Y-42437932D01*
X88128158Y-42299965D01*
X88015873Y-42167761D01*
X87972008Y-42122499D01*
X87835866Y-41998557D01*
X87695909Y-41896015D01*
X87549989Y-41813756D01*
X87395958Y-41750664D01*
X87231668Y-41705623D01*
X87136111Y-41688133D01*
X86977377Y-41672566D01*
X86818971Y-41675171D01*
X86818971Y-41675171D01*
G37*
X86818971Y-41675171D02*
X86658830Y-41696345D01*
X86494890Y-41736485D01*
X86325087Y-41795989D01*
X86147357Y-41875254D01*
X86136090Y-41880799D01*
X86078395Y-41908825D01*
X86026848Y-41932902D01*
X85985209Y-41951349D01*
X85957238Y-41962486D01*
X85947667Y-41965033D01*
X85928450Y-41970041D01*
X85923839Y-41974247D01*
X85928942Y-41984680D01*
X85944982Y-42010968D01*
X85970112Y-42050357D01*
X86002486Y-42100091D01*
X86040257Y-42157415D01*
X86081578Y-42219576D01*
X86124602Y-42283818D01*
X86167483Y-42347385D01*
X86208374Y-42407525D01*
X86245429Y-42461480D01*
X86276800Y-42506497D01*
X86300641Y-42539821D01*
X86315106Y-42558697D01*
X86317091Y-42560887D01*
X86327209Y-42556238D01*
X86349550Y-42539062D01*
X86380120Y-42512540D01*
X86395864Y-42498064D01*
X86492353Y-42422782D01*
X86599064Y-42367341D01*
X86714568Y-42332241D01*
X86837438Y-42317980D01*
X86906839Y-42319151D01*
X87027977Y-42336312D01*
X87137195Y-42372194D01*
X87234818Y-42427059D01*
X87321172Y-42501170D01*
X87396585Y-42594788D01*
X87461382Y-42708176D01*
X87498799Y-42794767D01*
X87542652Y-42930466D01*
X87574972Y-43077950D01*
X87595843Y-43233414D01*
X87605349Y-43393056D01*
X87603573Y-43553073D01*
X87590597Y-43709661D01*
X87566506Y-43859018D01*
X87531382Y-43997340D01*
X87485308Y-44120824D01*
X87469027Y-44155078D01*
X87400780Y-44269164D01*
X87320321Y-44365657D01*
X87228830Y-44443770D01*
X87127489Y-44502717D01*
X87017480Y-44541712D01*
X86899985Y-44559968D01*
X86858517Y-44561311D01*
X86736959Y-44550390D01*
X86616522Y-44517574D01*
X86498734Y-44463539D01*
X86385123Y-44388965D01*
X86293715Y-44310639D01*
X86247185Y-44266108D01*
X86065917Y-44563371D01*
X86020820Y-44637533D01*
X85979581Y-44705746D01*
X85943665Y-44765559D01*
X85914534Y-44814520D01*
X85893650Y-44850179D01*
X85882476Y-44870084D01*
X85881025Y-44873179D01*
X85889254Y-44882818D01*
X85914833Y-44900099D01*
X85954527Y-44923383D01*
X86005103Y-44951034D01*
X86063326Y-44981415D01*
X86125963Y-45012890D01*
X86189779Y-45043822D01*
X86251540Y-45072573D01*
X86308012Y-45097508D01*
X86355962Y-45116989D01*
X86379414Y-45125418D01*
X86513179Y-45163233D01*
X86651073Y-45188236D01*
X86798778Y-45201240D01*
X86925567Y-45203568D01*
X86993522Y-45202473D01*
X87059123Y-45200375D01*
X87116553Y-45197534D01*
X87159997Y-45194206D01*
X87174102Y-45192522D01*
X87313116Y-45163687D01*
X87454643Y-45118568D01*
X87592125Y-45059850D01*
X87719006Y-44990220D01*
X87796511Y-44937541D01*
X87923919Y-44829339D01*
X88042222Y-44702771D01*
X88149228Y-44560966D01*
X88242748Y-44407051D01*
X88320590Y-44244153D01*
X88364444Y-44126856D01*
X88414692Y-43943228D01*
X88448191Y-43748681D01*
X88464951Y-43547425D01*
X88464984Y-43343668D01*
X88448299Y-43141621D01*
X88414907Y-42945492D01*
X88364820Y-42759491D01*
X88361003Y-42747903D01*
X88298119Y-42585850D01*
X88221372Y-42437932D01*
X88128158Y-42299965D01*
X88015873Y-42167761D01*
X87972008Y-42122499D01*
X87835866Y-41998557D01*
X87695909Y-41896015D01*
X87549989Y-41813756D01*
X87395958Y-41750664D01*
X87231668Y-41705623D01*
X87136111Y-41688133D01*
X86977377Y-41672566D01*
X86818971Y-41675171D01*
G36*
X84473826Y-42592652D02*
G01*
X84321908Y-42612667D01*
X84186644Y-42646302D01*
X84067161Y-42693825D01*
X83962585Y-42755505D01*
X83884976Y-42819065D01*
X83816135Y-42893199D01*
X83762394Y-42972971D01*
X83719490Y-43065191D01*
X83704016Y-43108261D01*
X83691156Y-43147242D01*
X83679954Y-43183389D01*
X83670280Y-43218534D01*
X83662004Y-43254510D01*
X83654997Y-43293150D01*
X83649128Y-43336285D01*
X83644269Y-43385749D01*
X83640290Y-43443373D01*
X83637060Y-43510991D01*
X83634451Y-43590434D01*
X83632333Y-43683536D01*
X83630576Y-43792127D01*
X83629051Y-43918042D01*
X83627628Y-44063112D01*
X83626375Y-44205878D01*
X83625049Y-44362068D01*
X83623844Y-44497339D01*
X83622634Y-44613346D01*
X83621294Y-44711745D01*
X83619700Y-44794193D01*
X83617725Y-44862346D01*
X83615244Y-44917860D01*
X83612131Y-44962392D01*
X83608262Y-44997598D01*
X83603511Y-45025134D01*
X83597752Y-45046656D01*
X83590861Y-45063822D01*
X83582711Y-45078286D01*
X83573177Y-45091706D01*
X83562134Y-45105738D01*
X83557834Y-45111171D01*
X83542014Y-45134010D01*
X83534978Y-45149563D01*
X83534956Y-45150022D01*
X83545833Y-45152221D01*
X83576818Y-45154247D01*
X83625443Y-45156042D01*
X83689237Y-45157551D01*
X83765731Y-45158716D01*
X83852456Y-45159480D01*
X83946943Y-45159786D01*
X83957850Y-45159789D01*
X84380743Y-45159789D01*
X84384005Y-45063722D01*
X84387267Y-44967656D01*
X84449356Y-45018643D01*
X84546686Y-45086157D01*
X84656587Y-45140849D01*
X84743051Y-45171078D01*
X84812122Y-45185766D01*
X84895475Y-45195759D01*
X84985241Y-45200746D01*
X85073555Y-45200413D01*
X85152549Y-45194451D01*
X85188778Y-45188738D01*
X85328797Y-45150876D01*
X85455222Y-45096032D01*
X85567140Y-45025024D01*
X85663638Y-44938668D01*
X85743800Y-44837779D01*
X85806713Y-44723176D01*
X85851088Y-44597084D01*
X85863422Y-44540501D01*
X85871032Y-44478302D01*
X85874661Y-44403463D01*
X85875155Y-44369567D01*
X85875090Y-44366382D01*
X85115152Y-44366382D01*
X85105859Y-44441433D01*
X85077672Y-44505260D01*
X85029203Y-44560898D01*
X85024146Y-44565311D01*
X84975852Y-44600137D01*
X84924143Y-44622720D01*
X84863411Y-44634640D01*
X84788048Y-44637483D01*
X84769941Y-44637078D01*
X84716122Y-44634425D01*
X84676092Y-44629009D01*
X84641076Y-44618845D01*
X84602297Y-44601950D01*
X84591655Y-44596772D01*
X84531004Y-44560944D01*
X84484185Y-44518312D01*
X84471448Y-44503073D01*
X84426778Y-44446562D01*
X84426778Y-44250686D01*
X84427314Y-44172039D01*
X84429004Y-44114088D01*
X84431972Y-44074975D01*
X84436343Y-44052841D01*
X84440428Y-44046374D01*
X84456353Y-44043211D01*
X84490136Y-44040588D01*
X84537060Y-44038755D01*
X84592407Y-44037957D01*
X84601294Y-44037942D01*
X84722070Y-44043196D01*
X84824740Y-44059363D01*
X84911294Y-44087061D01*
X84983719Y-44126908D01*
X85038649Y-44173858D01*
X85083196Y-44231745D01*
X85107920Y-44294793D01*
X85115152Y-44366382D01*
X85875090Y-44366382D01*
X85873222Y-44275812D01*
X85864878Y-44196912D01*
X85848632Y-44125690D01*
X85822995Y-44054964D01*
X85798999Y-44002593D01*
X85740380Y-43907296D01*
X85662283Y-43819270D01*
X85567085Y-43740117D01*
X85457162Y-43671440D01*
X85334890Y-43614841D01*
X85202645Y-43571921D01*
X85137978Y-43556982D01*
X85001796Y-43534877D01*
X84853351Y-43520294D01*
X84701895Y-43513913D01*
X84575336Y-43515545D01*
X84413450Y-43522324D01*
X84420870Y-43463345D01*
X84440162Y-43364192D01*
X84471296Y-43283472D01*
X84515131Y-43220566D01*
X84572529Y-43174856D01*
X84644352Y-43145722D01*
X84731459Y-43132547D01*
X84834714Y-43134711D01*
X84872689Y-43138712D01*
X85013880Y-43163880D01*
X85150693Y-43204914D01*
X85245222Y-43242915D01*
X85290382Y-43262290D01*
X85328815Y-43277860D01*
X85355166Y-43287505D01*
X85362854Y-43289552D01*
X85372598Y-43280474D01*
X85389317Y-43251505D01*
X85413168Y-43202317D01*
X85444307Y-43132584D01*
X85482893Y-43041979D01*
X85489490Y-43026189D01*
X85519547Y-42953872D01*
X85546526Y-42888525D01*
X85569264Y-42833006D01*
X85586594Y-42790172D01*
X85597352Y-42762881D01*
X85600459Y-42754042D01*
X85590460Y-42749287D01*
X85564183Y-42744010D01*
X85535911Y-42740331D01*
X85505754Y-42735574D01*
X85457967Y-42726128D01*
X85396788Y-42712920D01*
X85326454Y-42696876D01*
X85251206Y-42678920D01*
X85222645Y-42671897D01*
X85117584Y-42646309D01*
X85029920Y-42626247D01*
X84955332Y-42611069D01*
X84889497Y-42600135D01*
X84828093Y-42592804D01*
X84766798Y-42588435D01*
X84701290Y-42586387D01*
X84643272Y-42585989D01*
X84473826Y-42592652D01*
X84473826Y-42592652D01*
G37*
X84473826Y-42592652D02*
X84321908Y-42612667D01*
X84186644Y-42646302D01*
X84067161Y-42693825D01*
X83962585Y-42755505D01*
X83884976Y-42819065D01*
X83816135Y-42893199D01*
X83762394Y-42972971D01*
X83719490Y-43065191D01*
X83704016Y-43108261D01*
X83691156Y-43147242D01*
X83679954Y-43183389D01*
X83670280Y-43218534D01*
X83662004Y-43254510D01*
X83654997Y-43293150D01*
X83649128Y-43336285D01*
X83644269Y-43385749D01*
X83640290Y-43443373D01*
X83637060Y-43510991D01*
X83634451Y-43590434D01*
X83632333Y-43683536D01*
X83630576Y-43792127D01*
X83629051Y-43918042D01*
X83627628Y-44063112D01*
X83626375Y-44205878D01*
X83625049Y-44362068D01*
X83623844Y-44497339D01*
X83622634Y-44613346D01*
X83621294Y-44711745D01*
X83619700Y-44794193D01*
X83617725Y-44862346D01*
X83615244Y-44917860D01*
X83612131Y-44962392D01*
X83608262Y-44997598D01*
X83603511Y-45025134D01*
X83597752Y-45046656D01*
X83590861Y-45063822D01*
X83582711Y-45078286D01*
X83573177Y-45091706D01*
X83562134Y-45105738D01*
X83557834Y-45111171D01*
X83542014Y-45134010D01*
X83534978Y-45149563D01*
X83534956Y-45150022D01*
X83545833Y-45152221D01*
X83576818Y-45154247D01*
X83625443Y-45156042D01*
X83689237Y-45157551D01*
X83765731Y-45158716D01*
X83852456Y-45159480D01*
X83946943Y-45159786D01*
X83957850Y-45159789D01*
X84380743Y-45159789D01*
X84384005Y-45063722D01*
X84387267Y-44967656D01*
X84449356Y-45018643D01*
X84546686Y-45086157D01*
X84656587Y-45140849D01*
X84743051Y-45171078D01*
X84812122Y-45185766D01*
X84895475Y-45195759D01*
X84985241Y-45200746D01*
X85073555Y-45200413D01*
X85152549Y-45194451D01*
X85188778Y-45188738D01*
X85328797Y-45150876D01*
X85455222Y-45096032D01*
X85567140Y-45025024D01*
X85663638Y-44938668D01*
X85743800Y-44837779D01*
X85806713Y-44723176D01*
X85851088Y-44597084D01*
X85863422Y-44540501D01*
X85871032Y-44478302D01*
X85874661Y-44403463D01*
X85875155Y-44369567D01*
X85875090Y-44366382D01*
X85115152Y-44366382D01*
X85105859Y-44441433D01*
X85077672Y-44505260D01*
X85029203Y-44560898D01*
X85024146Y-44565311D01*
X84975852Y-44600137D01*
X84924143Y-44622720D01*
X84863411Y-44634640D01*
X84788048Y-44637483D01*
X84769941Y-44637078D01*
X84716122Y-44634425D01*
X84676092Y-44629009D01*
X84641076Y-44618845D01*
X84602297Y-44601950D01*
X84591655Y-44596772D01*
X84531004Y-44560944D01*
X84484185Y-44518312D01*
X84471448Y-44503073D01*
X84426778Y-44446562D01*
X84426778Y-44250686D01*
X84427314Y-44172039D01*
X84429004Y-44114088D01*
X84431972Y-44074975D01*
X84436343Y-44052841D01*
X84440428Y-44046374D01*
X84456353Y-44043211D01*
X84490136Y-44040588D01*
X84537060Y-44038755D01*
X84592407Y-44037957D01*
X84601294Y-44037942D01*
X84722070Y-44043196D01*
X84824740Y-44059363D01*
X84911294Y-44087061D01*
X84983719Y-44126908D01*
X85038649Y-44173858D01*
X85083196Y-44231745D01*
X85107920Y-44294793D01*
X85115152Y-44366382D01*
X85875090Y-44366382D01*
X85873222Y-44275812D01*
X85864878Y-44196912D01*
X85848632Y-44125690D01*
X85822995Y-44054964D01*
X85798999Y-44002593D01*
X85740380Y-43907296D01*
X85662283Y-43819270D01*
X85567085Y-43740117D01*
X85457162Y-43671440D01*
X85334890Y-43614841D01*
X85202645Y-43571921D01*
X85137978Y-43556982D01*
X85001796Y-43534877D01*
X84853351Y-43520294D01*
X84701895Y-43513913D01*
X84575336Y-43515545D01*
X84413450Y-43522324D01*
X84420870Y-43463345D01*
X84440162Y-43364192D01*
X84471296Y-43283472D01*
X84515131Y-43220566D01*
X84572529Y-43174856D01*
X84644352Y-43145722D01*
X84731459Y-43132547D01*
X84834714Y-43134711D01*
X84872689Y-43138712D01*
X85013880Y-43163880D01*
X85150693Y-43204914D01*
X85245222Y-43242915D01*
X85290382Y-43262290D01*
X85328815Y-43277860D01*
X85355166Y-43287505D01*
X85362854Y-43289552D01*
X85372598Y-43280474D01*
X85389317Y-43251505D01*
X85413168Y-43202317D01*
X85444307Y-43132584D01*
X85482893Y-43041979D01*
X85489490Y-43026189D01*
X85519547Y-42953872D01*
X85546526Y-42888525D01*
X85569264Y-42833006D01*
X85586594Y-42790172D01*
X85597352Y-42762881D01*
X85600459Y-42754042D01*
X85590460Y-42749287D01*
X85564183Y-42744010D01*
X85535911Y-42740331D01*
X85505754Y-42735574D01*
X85457967Y-42726128D01*
X85396788Y-42712920D01*
X85326454Y-42696876D01*
X85251206Y-42678920D01*
X85222645Y-42671897D01*
X85117584Y-42646309D01*
X85029920Y-42626247D01*
X84955332Y-42611069D01*
X84889497Y-42600135D01*
X84828093Y-42592804D01*
X84766798Y-42588435D01*
X84701290Y-42586387D01*
X84643272Y-42585989D01*
X84473826Y-42592652D01*
G36*
X80960893Y-43198345D02*
G01*
X80960874Y-43432762D01*
X80960848Y-43645703D01*
X80960775Y-43838268D01*
X80960618Y-44011559D01*
X80960336Y-44166676D01*
X80959891Y-44304720D01*
X80959244Y-44426792D01*
X80958355Y-44533994D01*
X80957187Y-44627426D01*
X80955699Y-44708190D01*
X80953854Y-44777386D01*
X80951611Y-44836115D01*
X80948931Y-44885479D01*
X80945777Y-44926578D01*
X80942108Y-44960513D01*
X80937887Y-44988386D01*
X80933073Y-45011298D01*
X80927627Y-45030349D01*
X80921512Y-45046640D01*
X80914688Y-45061273D01*
X80907115Y-45075349D01*
X80898755Y-45089968D01*
X80893561Y-45099074D01*
X80859296Y-45159789D01*
X81717445Y-45159789D01*
X81717445Y-45063833D01*
X81718176Y-45020470D01*
X81720128Y-44987305D01*
X81722937Y-44969524D01*
X81724179Y-44967878D01*
X81735601Y-44974762D01*
X81758316Y-44992605D01*
X81781015Y-45011979D01*
X81835600Y-45052714D01*
X81905079Y-45093717D01*
X81982130Y-45131223D01*
X82059435Y-45161464D01*
X82090287Y-45171112D01*
X82158784Y-45185678D01*
X82241636Y-45195639D01*
X82331029Y-45200683D01*
X82419152Y-45200496D01*
X82498193Y-45194766D01*
X82535889Y-45188958D01*
X82673986Y-45150897D01*
X82801287Y-45093173D01*
X82917108Y-45016311D01*
X83020763Y-44920839D01*
X83111567Y-44807279D01*
X83178369Y-44696481D01*
X83233236Y-44579725D01*
X83275237Y-44460376D01*
X83305233Y-44334383D01*
X83324089Y-44197694D01*
X83332668Y-44046258D01*
X83333394Y-43968811D01*
X83331300Y-43912034D01*
X82502183Y-43912034D01*
X82501976Y-44005102D01*
X82499063Y-44092792D01*
X82493400Y-44169872D01*
X82484945Y-44231109D01*
X82482362Y-44243450D01*
X82450560Y-44350733D01*
X82408902Y-44437758D01*
X82357037Y-44504742D01*
X82294619Y-44551905D01*
X82221300Y-44579465D01*
X82136731Y-44587641D01*
X82040565Y-44576651D01*
X81977089Y-44560929D01*
X81927946Y-44542739D01*
X81873817Y-44516891D01*
X81833156Y-44493189D01*
X81762600Y-44446821D01*
X81762600Y-43296630D01*
X81830008Y-43253062D01*
X81908533Y-43212140D01*
X81992719Y-43185489D01*
X82077843Y-43173565D01*
X82159184Y-43176822D01*
X82232020Y-43195715D01*
X82263974Y-43211284D01*
X82321899Y-43254281D01*
X82370856Y-43311053D01*
X82412010Y-43383675D01*
X82446526Y-43474221D01*
X82475567Y-43584766D01*
X82476848Y-43590633D01*
X82487019Y-43652888D01*
X82494661Y-43730694D01*
X82499730Y-43818820D01*
X82502183Y-43912034D01*
X83331300Y-43912034D01*
X83325543Y-43755995D01*
X83303598Y-43560159D01*
X83267614Y-43381432D01*
X83217641Y-43219945D01*
X83153732Y-43075826D01*
X83075938Y-42949206D01*
X82984311Y-42840215D01*
X82878903Y-42748983D01*
X82833738Y-42718032D01*
X82732789Y-42661885D01*
X82629499Y-42622274D01*
X82519411Y-42598114D01*
X82398070Y-42588319D01*
X82305564Y-42589365D01*
X82175910Y-42600331D01*
X82063316Y-42622146D01*
X81964525Y-42655814D01*
X81876279Y-42702336D01*
X81827414Y-42736548D01*
X81798047Y-42758462D01*
X81776357Y-42773433D01*
X81768147Y-42777833D01*
X81766532Y-42767004D01*
X81765241Y-42736351D01*
X81764262Y-42688626D01*
X81763583Y-42626579D01*
X81763190Y-42552962D01*
X81763070Y-42470527D01*
X81763212Y-42382025D01*
X81763603Y-42290207D01*
X81764229Y-42197824D01*
X81765080Y-42107628D01*
X81766140Y-42022371D01*
X81767399Y-41944803D01*
X81768844Y-41877676D01*
X81770462Y-41823741D01*
X81772239Y-41785750D01*
X81772731Y-41778767D01*
X81780308Y-41708351D01*
X81791869Y-41653202D01*
X81809608Y-41606081D01*
X81835718Y-41559747D01*
X81841985Y-41550167D01*
X81866417Y-41513478D01*
X80961089Y-41513478D01*
X80960893Y-43198345D01*
X80960893Y-43198345D01*
G37*
X80960893Y-43198345D02*
X80960874Y-43432762D01*
X80960848Y-43645703D01*
X80960775Y-43838268D01*
X80960618Y-44011559D01*
X80960336Y-44166676D01*
X80959891Y-44304720D01*
X80959244Y-44426792D01*
X80958355Y-44533994D01*
X80957187Y-44627426D01*
X80955699Y-44708190D01*
X80953854Y-44777386D01*
X80951611Y-44836115D01*
X80948931Y-44885479D01*
X80945777Y-44926578D01*
X80942108Y-44960513D01*
X80937887Y-44988386D01*
X80933073Y-45011298D01*
X80927627Y-45030349D01*
X80921512Y-45046640D01*
X80914688Y-45061273D01*
X80907115Y-45075349D01*
X80898755Y-45089968D01*
X80893561Y-45099074D01*
X80859296Y-45159789D01*
X81717445Y-45159789D01*
X81717445Y-45063833D01*
X81718176Y-45020470D01*
X81720128Y-44987305D01*
X81722937Y-44969524D01*
X81724179Y-44967878D01*
X81735601Y-44974762D01*
X81758316Y-44992605D01*
X81781015Y-45011979D01*
X81835600Y-45052714D01*
X81905079Y-45093717D01*
X81982130Y-45131223D01*
X82059435Y-45161464D01*
X82090287Y-45171112D01*
X82158784Y-45185678D01*
X82241636Y-45195639D01*
X82331029Y-45200683D01*
X82419152Y-45200496D01*
X82498193Y-45194766D01*
X82535889Y-45188958D01*
X82673986Y-45150897D01*
X82801287Y-45093173D01*
X82917108Y-45016311D01*
X83020763Y-44920839D01*
X83111567Y-44807279D01*
X83178369Y-44696481D01*
X83233236Y-44579725D01*
X83275237Y-44460376D01*
X83305233Y-44334383D01*
X83324089Y-44197694D01*
X83332668Y-44046258D01*
X83333394Y-43968811D01*
X83331300Y-43912034D01*
X82502183Y-43912034D01*
X82501976Y-44005102D01*
X82499063Y-44092792D01*
X82493400Y-44169872D01*
X82484945Y-44231109D01*
X82482362Y-44243450D01*
X82450560Y-44350733D01*
X82408902Y-44437758D01*
X82357037Y-44504742D01*
X82294619Y-44551905D01*
X82221300Y-44579465D01*
X82136731Y-44587641D01*
X82040565Y-44576651D01*
X81977089Y-44560929D01*
X81927946Y-44542739D01*
X81873817Y-44516891D01*
X81833156Y-44493189D01*
X81762600Y-44446821D01*
X81762600Y-43296630D01*
X81830008Y-43253062D01*
X81908533Y-43212140D01*
X81992719Y-43185489D01*
X82077843Y-43173565D01*
X82159184Y-43176822D01*
X82232020Y-43195715D01*
X82263974Y-43211284D01*
X82321899Y-43254281D01*
X82370856Y-43311053D01*
X82412010Y-43383675D01*
X82446526Y-43474221D01*
X82475567Y-43584766D01*
X82476848Y-43590633D01*
X82487019Y-43652888D01*
X82494661Y-43730694D01*
X82499730Y-43818820D01*
X82502183Y-43912034D01*
X83331300Y-43912034D01*
X83325543Y-43755995D01*
X83303598Y-43560159D01*
X83267614Y-43381432D01*
X83217641Y-43219945D01*
X83153732Y-43075826D01*
X83075938Y-42949206D01*
X82984311Y-42840215D01*
X82878903Y-42748983D01*
X82833738Y-42718032D01*
X82732789Y-42661885D01*
X82629499Y-42622274D01*
X82519411Y-42598114D01*
X82398070Y-42588319D01*
X82305564Y-42589365D01*
X82175910Y-42600331D01*
X82063316Y-42622146D01*
X81964525Y-42655814D01*
X81876279Y-42702336D01*
X81827414Y-42736548D01*
X81798047Y-42758462D01*
X81776357Y-42773433D01*
X81768147Y-42777833D01*
X81766532Y-42767004D01*
X81765241Y-42736351D01*
X81764262Y-42688626D01*
X81763583Y-42626579D01*
X81763190Y-42552962D01*
X81763070Y-42470527D01*
X81763212Y-42382025D01*
X81763603Y-42290207D01*
X81764229Y-42197824D01*
X81765080Y-42107628D01*
X81766140Y-42022371D01*
X81767399Y-41944803D01*
X81768844Y-41877676D01*
X81770462Y-41823741D01*
X81772239Y-41785750D01*
X81772731Y-41778767D01*
X81780308Y-41708351D01*
X81791869Y-41653202D01*
X81809608Y-41606081D01*
X81835718Y-41559747D01*
X81841985Y-41550167D01*
X81866417Y-41513478D01*
X80961089Y-41513478D01*
X80960893Y-43198345D01*
G36*
X89420443Y-40752671D02*
G01*
X89324168Y-40776909D01*
X89237584Y-40819741D01*
X89162773Y-40879519D01*
X89101818Y-40954594D01*
X89056799Y-41043320D01*
X89030536Y-41139630D01*
X89024686Y-41236895D01*
X89039540Y-41330754D01*
X89073240Y-41418611D01*
X89123928Y-41497870D01*
X89189745Y-41565936D01*
X89268834Y-41620212D01*
X89359334Y-41658102D01*
X89410600Y-41670526D01*
X89455098Y-41678047D01*
X89489399Y-41681019D01*
X89522360Y-41679194D01*
X89562834Y-41672325D01*
X89595931Y-41665350D01*
X89689347Y-41633841D01*
X89773019Y-41582717D01*
X89845065Y-41513529D01*
X89903600Y-41427828D01*
X89917548Y-41400589D01*
X89933986Y-41364222D01*
X89944294Y-41333682D01*
X89949860Y-41301550D01*
X89952069Y-41260407D01*
X89952348Y-41214322D01*
X89948261Y-41129965D01*
X89934846Y-41060686D01*
X89909656Y-41000061D01*
X89870246Y-40941667D01*
X89831698Y-40897402D01*
X89759806Y-40831584D01*
X89684713Y-40786153D01*
X89601962Y-40758950D01*
X89524328Y-40748676D01*
X89420443Y-40752671D01*
X89420443Y-40752671D01*
G37*
X89420443Y-40752671D02*
X89324168Y-40776909D01*
X89237584Y-40819741D01*
X89162773Y-40879519D01*
X89101818Y-40954594D01*
X89056799Y-41043320D01*
X89030536Y-41139630D01*
X89024686Y-41236895D01*
X89039540Y-41330754D01*
X89073240Y-41418611D01*
X89123928Y-41497870D01*
X89189745Y-41565936D01*
X89268834Y-41620212D01*
X89359334Y-41658102D01*
X89410600Y-41670526D01*
X89455098Y-41678047D01*
X89489399Y-41681019D01*
X89522360Y-41679194D01*
X89562834Y-41672325D01*
X89595931Y-41665350D01*
X89689347Y-41633841D01*
X89773019Y-41582717D01*
X89845065Y-41513529D01*
X89903600Y-41427828D01*
X89917548Y-41400589D01*
X89933986Y-41364222D01*
X89944294Y-41333682D01*
X89949860Y-41301550D01*
X89952069Y-41260407D01*
X89952348Y-41214322D01*
X89948261Y-41129965D01*
X89934846Y-41060686D01*
X89909656Y-41000061D01*
X89870246Y-40941667D01*
X89831698Y-40897402D01*
X89759806Y-40831584D01*
X89684713Y-40786153D01*
X89601962Y-40758950D01*
X89524328Y-40748676D01*
X89420443Y-40752671D01*
D12*
X58191400Y-57197300D02*
X59301400Y-57197300D01*
X59301400Y-57197300D02*
X59301400Y-55867300D01*
X45561400Y-57197300D02*
X45561400Y-39297300D01*
X45561400Y-39297300D02*
X54191400Y-39297300D01*
X54191400Y-57197300D02*
X54191400Y-39297300D01*
X45561400Y-57197300D02*
X54191400Y-57197300D01*
X45561400Y-41897300D02*
X54191400Y-41897300D01*
X45561400Y-44437300D02*
X54191400Y-44437300D01*
X45561400Y-46977300D02*
X54191400Y-46977300D01*
X45561400Y-49517300D02*
X54191400Y-49517300D01*
X45561400Y-52057300D02*
X54191400Y-52057300D01*
X45561400Y-54597300D02*
X54191400Y-54597300D01*
X56701400Y-40267300D02*
X57141400Y-40267300D01*
X54191400Y-40267300D02*
X54601400Y-40267300D01*
X56701400Y-40987300D02*
X57141400Y-40987300D01*
X54191400Y-40987300D02*
X54601400Y-40987300D01*
X56701400Y-42807300D02*
X57141400Y-42807300D01*
X54191400Y-42807300D02*
X54601400Y-42807300D01*
X56701400Y-43527300D02*
X57141400Y-43527300D01*
X54191400Y-43527300D02*
X54601400Y-43527300D01*
X56701400Y-45347300D02*
X57141400Y-45347300D01*
X54191400Y-45347300D02*
X54601400Y-45347300D01*
X56701400Y-46067300D02*
X57141400Y-46067300D01*
X54191400Y-46067300D02*
X54601400Y-46067300D01*
X56701400Y-47887300D02*
X57141400Y-47887300D01*
X54191400Y-47887300D02*
X54601400Y-47887300D01*
X56701400Y-48607300D02*
X57141400Y-48607300D01*
X54191400Y-48607300D02*
X54601400Y-48607300D01*
X56701400Y-50427300D02*
X57141400Y-50427300D01*
X54191400Y-50427300D02*
X54601400Y-50427300D01*
X56701400Y-51147300D02*
X57141400Y-51147300D01*
X54191400Y-51147300D02*
X54601400Y-51147300D01*
X56701400Y-52967300D02*
X57141400Y-52967300D01*
X54191400Y-52967300D02*
X54601400Y-52967300D01*
X56701400Y-53687300D02*
X57141400Y-53687300D01*
X54191400Y-53687300D02*
X54601400Y-53687300D01*
X56701400Y-55507300D02*
X57081400Y-55507300D01*
X54191400Y-55507300D02*
X54601400Y-55507300D01*
X56701400Y-56227300D02*
X57081400Y-56227300D01*
X54191400Y-56227300D02*
X54601400Y-56227300D01*
X45561400Y-54715400D02*
X54191400Y-54715400D01*
X45561400Y-54833495D02*
X54191400Y-54833495D01*
X45561400Y-54951590D02*
X54191400Y-54951590D01*
X45561400Y-55069685D02*
X54191400Y-55069685D01*
X45561400Y-55187780D02*
X54191400Y-55187780D01*
X45561400Y-55305875D02*
X54191400Y-55305875D01*
X45561400Y-55423970D02*
X54191400Y-55423970D01*
X45561400Y-55542065D02*
X54191400Y-55542065D01*
X45561400Y-55660160D02*
X54191400Y-55660160D01*
X45561400Y-55778255D02*
X54191400Y-55778255D01*
X45561400Y-55896350D02*
X54191400Y-55896350D01*
X45561400Y-56014445D02*
X54191400Y-56014445D01*
X45561400Y-56132540D02*
X54191400Y-56132540D01*
X45561400Y-56250635D02*
X54191400Y-56250635D01*
X45561400Y-56368730D02*
X54191400Y-56368730D01*
X45561400Y-56486825D02*
X54191400Y-56486825D01*
X45561400Y-56604920D02*
X54191400Y-56604920D01*
X45561400Y-56723015D02*
X54191400Y-56723015D01*
X45561400Y-56841110D02*
X54191400Y-56841110D01*
X45561400Y-56959205D02*
X54191400Y-56959205D01*
X45561400Y-57077300D02*
X54191400Y-57077300D01*
X71499566Y-64353375D02*
X71499566Y-64027817D01*
X72519566Y-64353375D02*
X72519566Y-64027817D01*
X73125166Y-64353375D02*
X73125166Y-64027817D01*
X74145166Y-64353375D02*
X74145166Y-64027817D01*
X75540181Y-64028985D02*
X75770386Y-63798780D01*
X76261430Y-64750234D02*
X76491635Y-64520029D01*
X77807073Y-66302478D02*
X78037278Y-66072273D01*
X78528322Y-67023727D02*
X78758527Y-66793522D01*
X78917634Y-67398598D02*
X79147839Y-67168393D01*
X79638883Y-68119847D02*
X79869088Y-67889642D01*
X76710000Y-88864221D02*
X76710000Y-89189779D01*
X75690000Y-88864221D02*
X75690000Y-89189779D01*
X73501773Y-69096478D02*
X73731978Y-68866273D01*
X74223022Y-69817727D02*
X74453227Y-69587522D01*
X64356727Y-76890022D02*
X64126522Y-77120227D01*
X63635478Y-76168773D02*
X63405273Y-76398978D01*
X64714978Y-72675227D02*
X64484773Y-72445022D01*
X65436227Y-71953978D02*
X65206022Y-71723773D01*
X68588478Y-68801727D02*
X68358273Y-68571522D01*
X69309727Y-68080478D02*
X69079522Y-67850273D01*
X77057773Y-72652478D02*
X77287978Y-72422273D01*
X77779022Y-73373727D02*
X78009227Y-73143522D01*
X66810478Y-70516227D02*
X66580273Y-70286022D01*
X67531727Y-69794978D02*
X67301522Y-69564773D01*
X121667721Y-53290000D02*
X121993279Y-53290000D01*
X121667721Y-54310000D02*
X121993279Y-54310000D01*
X121993279Y-51770000D02*
X121667721Y-51770000D01*
X121993279Y-50750000D02*
X121667721Y-50750000D01*
X121993279Y-49230000D02*
X121667721Y-49230000D01*
X121993279Y-48210000D02*
X121667721Y-48210000D01*
X121993279Y-46690001D02*
X121667721Y-46690001D01*
X121993279Y-45670001D02*
X121667721Y-45670001D01*
X105754900Y-71439821D02*
X105754900Y-71765379D01*
X104734900Y-71439821D02*
X104734900Y-71765379D01*
X110902227Y-54601522D02*
X110672022Y-54831727D01*
X110180978Y-53880273D02*
X109950773Y-54110478D01*
X111981727Y-55681022D02*
X111751522Y-55911227D01*
X111260478Y-54959773D02*
X111030273Y-55189978D01*
X98782665Y-63524898D02*
X98552460Y-63755103D01*
X98061416Y-62803649D02*
X97831211Y-63033854D01*
X104668015Y-64069865D02*
X104898220Y-64300070D01*
X103946766Y-64791114D02*
X104176971Y-65021319D01*
X93376925Y-58804874D02*
X93146720Y-58574669D01*
X94098174Y-58083625D02*
X93867969Y-57853420D01*
X115256600Y-87026721D02*
X115256600Y-87352279D01*
X114236600Y-87026721D02*
X114236600Y-87352279D01*
X106787355Y-61950525D02*
X107017560Y-62180730D01*
X106066106Y-62671774D02*
X106296311Y-62901979D01*
X99336612Y-52404059D02*
X99106407Y-52173854D01*
X100057861Y-51682810D02*
X99827656Y-51452605D01*
X95746500Y-83873079D02*
X95746500Y-83355923D01*
X97166500Y-83873079D02*
X97166500Y-83355923D01*
X115005178Y-84089500D02*
X114488022Y-84089500D01*
X115005178Y-82669500D02*
X114488022Y-82669500D01*
X108197255Y-60540624D02*
X108427460Y-60770829D01*
X107476006Y-61261873D02*
X107706211Y-61492078D01*
X99896217Y-64638450D02*
X99666012Y-64868655D01*
X99174968Y-63917201D02*
X98944763Y-64147406D01*
X102234365Y-64815226D02*
X102464570Y-65045431D01*
X101513116Y-65536475D02*
X101743321Y-65766680D01*
X109285769Y-59453620D02*
X109515974Y-59683825D01*
X108564520Y-60174869D02*
X108794725Y-60405074D01*
X106734100Y-86851179D02*
X106734100Y-86334023D01*
X108154100Y-86851179D02*
X108154100Y-86334023D01*
X125085600Y-86813078D02*
X125085600Y-86295922D01*
X126505600Y-86813078D02*
X126505600Y-86295922D01*
D13*
X53279495Y-59089680D02*
X53279495Y-58089680D01*
X52898542Y-58089680D01*
X52803304Y-58137300D01*
X52755685Y-58184919D01*
X52708066Y-58280157D01*
X52708066Y-58423014D01*
X52755685Y-58518252D01*
X52803304Y-58565871D01*
X52898542Y-58613490D01*
X53279495Y-58613490D01*
X51850923Y-58423014D02*
X51850923Y-59089680D01*
X52089019Y-58042061D02*
X52327114Y-58756347D01*
X51708066Y-58756347D01*
X72461380Y-60634642D02*
X71985190Y-60301309D01*
X72461380Y-60063214D02*
X71461380Y-60063214D01*
X71461380Y-60444166D01*
X71509000Y-60539404D01*
X71556619Y-60587023D01*
X71651857Y-60634642D01*
X71794714Y-60634642D01*
X71889952Y-60587023D01*
X71937571Y-60539404D01*
X71985190Y-60444166D01*
X71985190Y-60063214D01*
X71556619Y-61015595D02*
X71509000Y-61063214D01*
X71461380Y-61158452D01*
X71461380Y-61396547D01*
X71509000Y-61491785D01*
X71556619Y-61539404D01*
X71651857Y-61587023D01*
X71747095Y-61587023D01*
X71889952Y-61539404D01*
X72461380Y-60967976D01*
X72461380Y-61587023D01*
X72461380Y-62539404D02*
X72461380Y-61967976D01*
X72461380Y-62253690D02*
X71461380Y-62253690D01*
X71604238Y-62158452D01*
X71699476Y-62063214D01*
X71747095Y-61967976D01*
X74099680Y-60596542D02*
X73623490Y-60263209D01*
X74099680Y-60025114D02*
X73099680Y-60025114D01*
X73099680Y-60406066D01*
X73147300Y-60501304D01*
X73194919Y-60548923D01*
X73290157Y-60596542D01*
X73433014Y-60596542D01*
X73528252Y-60548923D01*
X73575871Y-60501304D01*
X73623490Y-60406066D01*
X73623490Y-60025114D01*
X73194919Y-60977495D02*
X73147300Y-61025114D01*
X73099680Y-61120352D01*
X73099680Y-61358447D01*
X73147300Y-61453685D01*
X73194919Y-61501304D01*
X73290157Y-61548923D01*
X73385395Y-61548923D01*
X73528252Y-61501304D01*
X74099680Y-60929876D01*
X74099680Y-61548923D01*
X73099680Y-62167971D02*
X73099680Y-62263209D01*
X73147300Y-62358447D01*
X73194919Y-62406066D01*
X73290157Y-62453685D01*
X73480633Y-62501304D01*
X73718728Y-62501304D01*
X73909204Y-62453685D01*
X74004442Y-62406066D01*
X74052061Y-62358447D01*
X74099680Y-62263209D01*
X74099680Y-62167971D01*
X74052061Y-62072733D01*
X74004442Y-62025114D01*
X73909204Y-61977495D01*
X73718728Y-61929876D01*
X73480633Y-61929876D01*
X73290157Y-61977495D01*
X73194919Y-62025114D01*
X73147300Y-62072733D01*
X73099680Y-62167971D01*
X78879451Y-62108012D02*
X78778436Y-61535593D01*
X79283512Y-61703951D02*
X78576405Y-60996845D01*
X78307031Y-61266219D01*
X78273359Y-61367234D01*
X78273359Y-61434577D01*
X78307031Y-61535593D01*
X78408046Y-61636608D01*
X78509062Y-61670280D01*
X78576405Y-61670280D01*
X78677420Y-61636608D01*
X78946794Y-61367234D01*
X78206016Y-62781448D02*
X78610077Y-62377387D01*
X78408046Y-62579417D02*
X77700939Y-61872310D01*
X77869298Y-61905982D01*
X78003985Y-61905982D01*
X78105001Y-61872310D01*
X77869298Y-63118165D02*
X77734611Y-63252852D01*
X77633596Y-63286524D01*
X77566252Y-63286524D01*
X77397894Y-63252852D01*
X77229535Y-63151837D01*
X76960161Y-62882463D01*
X76926489Y-62781448D01*
X76926489Y-62714104D01*
X76960161Y-62613089D01*
X77094848Y-62478402D01*
X77195863Y-62444730D01*
X77263207Y-62444730D01*
X77364222Y-62478402D01*
X77532581Y-62646761D01*
X77566252Y-62747776D01*
X77566252Y-62815119D01*
X77532581Y-62916135D01*
X77397894Y-63050822D01*
X77296878Y-63084493D01*
X77229535Y-63084493D01*
X77128520Y-63050822D01*
X80068413Y-67424475D02*
X79967398Y-66852056D01*
X80472474Y-67020414D02*
X79765367Y-66313308D01*
X79495993Y-66582682D01*
X79462321Y-66683697D01*
X79462321Y-66751040D01*
X79495993Y-66852056D01*
X79597008Y-66953071D01*
X79698024Y-66986743D01*
X79765367Y-66986743D01*
X79866382Y-66953071D01*
X80135756Y-66683697D01*
X79394978Y-68097911D02*
X79799039Y-67693850D01*
X79597008Y-67895880D02*
X78889901Y-67188773D01*
X79058260Y-67222445D01*
X79192947Y-67222445D01*
X79293963Y-67188773D01*
X78586856Y-68097911D02*
X78620527Y-67996895D01*
X78620527Y-67929552D01*
X78586856Y-67828537D01*
X78553184Y-67794865D01*
X78452169Y-67761193D01*
X78384825Y-67761193D01*
X78283810Y-67794865D01*
X78149123Y-67929552D01*
X78115451Y-68030567D01*
X78115451Y-68097911D01*
X78149123Y-68198926D01*
X78182795Y-68232598D01*
X78283810Y-68266269D01*
X78351153Y-68266269D01*
X78452169Y-68232598D01*
X78586856Y-68097911D01*
X78687871Y-68064239D01*
X78755214Y-68064239D01*
X78856230Y-68097911D01*
X78990917Y-68232598D01*
X79024588Y-68333613D01*
X79024588Y-68400956D01*
X78990917Y-68501972D01*
X78856230Y-68636659D01*
X78755214Y-68670330D01*
X78687871Y-68670330D01*
X78586856Y-68636659D01*
X78452169Y-68501972D01*
X78418497Y-68400956D01*
X78418497Y-68333613D01*
X78452169Y-68232598D01*
X82257650Y-65435412D02*
X82156635Y-64862993D01*
X82661711Y-65031351D02*
X81954604Y-64324245D01*
X81685230Y-64593619D01*
X81651558Y-64694634D01*
X81651558Y-64761977D01*
X81685230Y-64862993D01*
X81786245Y-64964008D01*
X81887261Y-64997680D01*
X81954604Y-64997680D01*
X82055619Y-64964008D01*
X82324993Y-64694634D01*
X81584215Y-66108848D02*
X81988276Y-65704787D01*
X81786245Y-65906817D02*
X81079138Y-65199710D01*
X81247497Y-65233382D01*
X81382184Y-65233382D01*
X81483200Y-65199710D01*
X80641406Y-65637443D02*
X80170001Y-66108848D01*
X81180154Y-66512909D01*
X75222380Y-88860333D02*
X74746190Y-88527000D01*
X75222380Y-88288904D02*
X74222380Y-88288904D01*
X74222380Y-88669857D01*
X74270000Y-88765095D01*
X74317619Y-88812714D01*
X74412857Y-88860333D01*
X74555714Y-88860333D01*
X74650952Y-88812714D01*
X74698571Y-88765095D01*
X74746190Y-88669857D01*
X74746190Y-88288904D01*
X75222380Y-89336523D02*
X75222380Y-89527000D01*
X75174761Y-89622238D01*
X75127142Y-89669857D01*
X74984285Y-89765095D01*
X74793809Y-89812714D01*
X74412857Y-89812714D01*
X74317619Y-89765095D01*
X74270000Y-89717476D01*
X74222380Y-89622238D01*
X74222380Y-89431761D01*
X74270000Y-89336523D01*
X74317619Y-89288904D01*
X74412857Y-89241285D01*
X74650952Y-89241285D01*
X74746190Y-89288904D01*
X74793809Y-89336523D01*
X74841428Y-89431761D01*
X74841428Y-89622238D01*
X74793809Y-89717476D01*
X74746190Y-89765095D01*
X74650952Y-89812714D01*
X75627330Y-68474306D02*
X75627330Y-68541650D01*
X75694674Y-68676337D01*
X75762017Y-68743680D01*
X75896704Y-68811024D01*
X76031391Y-68811024D01*
X76132406Y-68777352D01*
X76300765Y-68676337D01*
X76401780Y-68575322D01*
X76502796Y-68406963D01*
X76536467Y-68305948D01*
X76536467Y-68171261D01*
X76469124Y-68036574D01*
X76401780Y-67969230D01*
X76267093Y-67901887D01*
X76199750Y-67901887D01*
X75930376Y-67632512D02*
X75930376Y-67565169D01*
X75896704Y-67464154D01*
X75728345Y-67295795D01*
X75627330Y-67262123D01*
X75559987Y-67262123D01*
X75458971Y-67295795D01*
X75391628Y-67363138D01*
X75324284Y-67497825D01*
X75324284Y-68305948D01*
X74886551Y-67868215D01*
X74549834Y-67531497D02*
X74415147Y-67396810D01*
X74381475Y-67295795D01*
X74381475Y-67228451D01*
X74415147Y-67060093D01*
X74516162Y-66891734D01*
X74785536Y-66622360D01*
X74886551Y-66588688D01*
X74953895Y-66588688D01*
X75054910Y-66622360D01*
X75189597Y-66757047D01*
X75223269Y-66858062D01*
X75223269Y-66925406D01*
X75189597Y-67026421D01*
X75021238Y-67194780D01*
X74920223Y-67228451D01*
X74852880Y-67228451D01*
X74751864Y-67194780D01*
X74617177Y-67060093D01*
X74583506Y-66959077D01*
X74583506Y-66891734D01*
X74617177Y-66790719D01*
X62543406Y-78537969D02*
X62610750Y-78537969D01*
X62745437Y-78470625D01*
X62812780Y-78403282D01*
X62880124Y-78268595D01*
X62880124Y-78133908D01*
X62846452Y-78032893D01*
X62745437Y-77864534D01*
X62644422Y-77763519D01*
X62476063Y-77662503D01*
X62375048Y-77628832D01*
X62240361Y-77628832D01*
X62105674Y-77696175D01*
X62038330Y-77763519D01*
X61970987Y-77898206D01*
X61970987Y-77965549D01*
X61701612Y-78234923D02*
X61634269Y-78234923D01*
X61533254Y-78268595D01*
X61364895Y-78436954D01*
X61331223Y-78537969D01*
X61331223Y-78605312D01*
X61364895Y-78706328D01*
X61432238Y-78773671D01*
X61566925Y-78841015D01*
X62375048Y-78841015D01*
X61937315Y-79278748D01*
X61129193Y-79278748D02*
X61162864Y-79177732D01*
X61162864Y-79110389D01*
X61129193Y-79009374D01*
X61095521Y-78975702D01*
X60994506Y-78942030D01*
X60927162Y-78942030D01*
X60826147Y-78975702D01*
X60691460Y-79110389D01*
X60657788Y-79211404D01*
X60657788Y-79278748D01*
X60691460Y-79379763D01*
X60725132Y-79413435D01*
X60826147Y-79447106D01*
X60893490Y-79447106D01*
X60994506Y-79413435D01*
X61129193Y-79278748D01*
X61230208Y-79245076D01*
X61297551Y-79245076D01*
X61398567Y-79278748D01*
X61533254Y-79413435D01*
X61566925Y-79514450D01*
X61566925Y-79581793D01*
X61533254Y-79682809D01*
X61398567Y-79817496D01*
X61297551Y-79851167D01*
X61230208Y-79851167D01*
X61129193Y-79817496D01*
X60994506Y-79682809D01*
X60960834Y-79581793D01*
X60960834Y-79514450D01*
X60994506Y-79413435D01*
X63041630Y-70887306D02*
X63041630Y-70954650D01*
X63108974Y-71089337D01*
X63176317Y-71156680D01*
X63311004Y-71224024D01*
X63445691Y-71224024D01*
X63546706Y-71190352D01*
X63715065Y-71089337D01*
X63816080Y-70988322D01*
X63917096Y-70819963D01*
X63950767Y-70718948D01*
X63950767Y-70584261D01*
X63883424Y-70449574D01*
X63816080Y-70382230D01*
X63681393Y-70314887D01*
X63614050Y-70314887D01*
X63344676Y-70045512D02*
X63344676Y-69978169D01*
X63311004Y-69877154D01*
X63142645Y-69708795D01*
X63041630Y-69675123D01*
X62974287Y-69675123D01*
X62873271Y-69708795D01*
X62805928Y-69776138D01*
X62738584Y-69910825D01*
X62738584Y-70718948D01*
X62300851Y-70281215D01*
X62772256Y-69338406D02*
X62300851Y-68867001D01*
X61896790Y-69877154D01*
X66915130Y-67001106D02*
X66915130Y-67068450D01*
X66982474Y-67203137D01*
X67049817Y-67270480D01*
X67184504Y-67337824D01*
X67319191Y-67337824D01*
X67420206Y-67304152D01*
X67588565Y-67203137D01*
X67689580Y-67102122D01*
X67790596Y-66933763D01*
X67824267Y-66832748D01*
X67824267Y-66698061D01*
X67756924Y-66563374D01*
X67689580Y-66496030D01*
X67554893Y-66428687D01*
X67487550Y-66428687D01*
X67218176Y-66159312D02*
X67218176Y-66091969D01*
X67184504Y-65990954D01*
X67016145Y-65822595D01*
X66915130Y-65788923D01*
X66847787Y-65788923D01*
X66746771Y-65822595D01*
X66679428Y-65889938D01*
X66612084Y-66024625D01*
X66612084Y-66832748D01*
X66174351Y-66395015D01*
X66275367Y-65081816D02*
X66410054Y-65216503D01*
X66443725Y-65317519D01*
X66443725Y-65384862D01*
X66410054Y-65553221D01*
X66309038Y-65721580D01*
X66039664Y-65990954D01*
X65938649Y-66024625D01*
X65871306Y-66024625D01*
X65770290Y-65990954D01*
X65635603Y-65856267D01*
X65601932Y-65755251D01*
X65601932Y-65687908D01*
X65635603Y-65586893D01*
X65803962Y-65418534D01*
X65904977Y-65384862D01*
X65972321Y-65384862D01*
X66073336Y-65418534D01*
X66208023Y-65553221D01*
X66241695Y-65654236D01*
X66241695Y-65721580D01*
X66208023Y-65822595D01*
X79208730Y-72055706D02*
X79208730Y-72123050D01*
X79276074Y-72257737D01*
X79343417Y-72325080D01*
X79478104Y-72392424D01*
X79612791Y-72392424D01*
X79713806Y-72358752D01*
X79882165Y-72257737D01*
X79983180Y-72156722D01*
X80084196Y-71988363D01*
X80117867Y-71887348D01*
X80117867Y-71752661D01*
X80050524Y-71617974D01*
X79983180Y-71550630D01*
X79848493Y-71483287D01*
X79781150Y-71483287D01*
X79511776Y-71213912D02*
X79511776Y-71146569D01*
X79478104Y-71045554D01*
X79309745Y-70877195D01*
X79208730Y-70843523D01*
X79141387Y-70843523D01*
X79040371Y-70877195D01*
X78973028Y-70944538D01*
X78905684Y-71079225D01*
X78905684Y-71887348D01*
X78467951Y-71449615D01*
X78535295Y-70102745D02*
X78872012Y-70439462D01*
X78568967Y-70809851D01*
X78568967Y-70742508D01*
X78535295Y-70641493D01*
X78366936Y-70473134D01*
X78265921Y-70439462D01*
X78198577Y-70439462D01*
X78097562Y-70473134D01*
X77929203Y-70641493D01*
X77895532Y-70742508D01*
X77895532Y-70809851D01*
X77929203Y-70910867D01*
X78097562Y-71079225D01*
X78198577Y-71112897D01*
X78265921Y-71112897D01*
X65200630Y-68715607D02*
X65200630Y-68782951D01*
X65267974Y-68917638D01*
X65335317Y-68984981D01*
X65470004Y-69052325D01*
X65604691Y-69052325D01*
X65705706Y-69018653D01*
X65874065Y-68917638D01*
X65975080Y-68816623D01*
X66076096Y-68648264D01*
X66109767Y-68547249D01*
X66109767Y-68412562D01*
X66042424Y-68277875D01*
X65975080Y-68210531D01*
X65840393Y-68143188D01*
X65773050Y-68143188D01*
X65503676Y-67873813D02*
X65503676Y-67806470D01*
X65470004Y-67705455D01*
X65301645Y-67537096D01*
X65200630Y-67503424D01*
X65133287Y-67503424D01*
X65032271Y-67537096D01*
X64964928Y-67604439D01*
X64897584Y-67739126D01*
X64897584Y-68547249D01*
X64459851Y-68109516D01*
X64325164Y-67032020D02*
X63853760Y-67503424D01*
X64762897Y-66931004D02*
X64426180Y-67604439D01*
X63988447Y-67166707D01*
X124448866Y-54262280D02*
X124782200Y-53786090D01*
X125020295Y-54262280D02*
X125020295Y-53262280D01*
X124639342Y-53262280D01*
X124544104Y-53309900D01*
X124496485Y-53357519D01*
X124448866Y-53452757D01*
X124448866Y-53595614D01*
X124496485Y-53690852D01*
X124544104Y-53738471D01*
X124639342Y-53786090D01*
X125020295Y-53786090D01*
X123877438Y-53690852D02*
X123972676Y-53643233D01*
X124020295Y-53595614D01*
X124067914Y-53500376D01*
X124067914Y-53452757D01*
X124020295Y-53357519D01*
X123972676Y-53309900D01*
X123877438Y-53262280D01*
X123686961Y-53262280D01*
X123591723Y-53309900D01*
X123544104Y-53357519D01*
X123496485Y-53452757D01*
X123496485Y-53500376D01*
X123544104Y-53595614D01*
X123591723Y-53643233D01*
X123686961Y-53690852D01*
X123877438Y-53690852D01*
X123972676Y-53738471D01*
X124020295Y-53786090D01*
X124067914Y-53881328D01*
X124067914Y-54071804D01*
X124020295Y-54167042D01*
X123972676Y-54214661D01*
X123877438Y-54262280D01*
X123686961Y-54262280D01*
X123591723Y-54214661D01*
X123544104Y-54167042D01*
X123496485Y-54071804D01*
X123496485Y-53881328D01*
X123544104Y-53786090D01*
X123591723Y-53738471D01*
X123686961Y-53690852D01*
X124537766Y-51671480D02*
X124871100Y-51195290D01*
X125109195Y-51671480D02*
X125109195Y-50671480D01*
X124728242Y-50671480D01*
X124633004Y-50719100D01*
X124585385Y-50766719D01*
X124537766Y-50861957D01*
X124537766Y-51004814D01*
X124585385Y-51100052D01*
X124633004Y-51147671D01*
X124728242Y-51195290D01*
X125109195Y-51195290D01*
X124204433Y-50671480D02*
X123537766Y-50671480D01*
X123966338Y-51671480D01*
X124474266Y-49156880D02*
X124807600Y-48680690D01*
X125045695Y-49156880D02*
X125045695Y-48156880D01*
X124664742Y-48156880D01*
X124569504Y-48204500D01*
X124521885Y-48252119D01*
X124474266Y-48347357D01*
X124474266Y-48490214D01*
X124521885Y-48585452D01*
X124569504Y-48633071D01*
X124664742Y-48680690D01*
X125045695Y-48680690D01*
X123617123Y-48156880D02*
X123807600Y-48156880D01*
X123902838Y-48204500D01*
X123950457Y-48252119D01*
X124045695Y-48394976D01*
X124093314Y-48585452D01*
X124093314Y-48966404D01*
X124045695Y-49061642D01*
X123998076Y-49109261D01*
X123902838Y-49156880D01*
X123712361Y-49156880D01*
X123617123Y-49109261D01*
X123569504Y-49061642D01*
X123521885Y-48966404D01*
X123521885Y-48728309D01*
X123569504Y-48633071D01*
X123617123Y-48585452D01*
X123712361Y-48537833D01*
X123902838Y-48537833D01*
X123998076Y-48585452D01*
X124045695Y-48633071D01*
X124093314Y-48728309D01*
X124436166Y-46718480D02*
X124769500Y-46242290D01*
X125007595Y-46718480D02*
X125007595Y-45718480D01*
X124626642Y-45718480D01*
X124531404Y-45766100D01*
X124483785Y-45813719D01*
X124436166Y-45908957D01*
X124436166Y-46051814D01*
X124483785Y-46147052D01*
X124531404Y-46194671D01*
X124626642Y-46242290D01*
X125007595Y-46242290D01*
X123531404Y-45718480D02*
X124007595Y-45718480D01*
X124055214Y-46194671D01*
X124007595Y-46147052D01*
X123912357Y-46099433D01*
X123674261Y-46099433D01*
X123579023Y-46147052D01*
X123531404Y-46194671D01*
X123483785Y-46289909D01*
X123483785Y-46528004D01*
X123531404Y-46623242D01*
X123579023Y-46670861D01*
X123674261Y-46718480D01*
X123912357Y-46718480D01*
X124007595Y-46670861D01*
X124055214Y-46623242D01*
X104267280Y-71435933D02*
X103791090Y-71102600D01*
X104267280Y-70864504D02*
X103267280Y-70864504D01*
X103267280Y-71245457D01*
X103314900Y-71340695D01*
X103362519Y-71388314D01*
X103457757Y-71435933D01*
X103600614Y-71435933D01*
X103695852Y-71388314D01*
X103743471Y-71340695D01*
X103791090Y-71245457D01*
X103791090Y-70864504D01*
X103600614Y-72293076D02*
X104267280Y-72293076D01*
X103219661Y-72054980D02*
X103933947Y-71816885D01*
X103933947Y-72435933D01*
X109853069Y-53546867D02*
X109752054Y-52974447D01*
X110257130Y-53142806D02*
X109550024Y-52435699D01*
X109280649Y-52705073D01*
X109246978Y-52806088D01*
X109246978Y-52873432D01*
X109280649Y-52974447D01*
X109381665Y-53075462D01*
X109482680Y-53109134D01*
X109550024Y-53109134D01*
X109651039Y-53075462D01*
X109920413Y-52806088D01*
X108943932Y-53176478D02*
X108876588Y-53176478D01*
X108775573Y-53210149D01*
X108607214Y-53378508D01*
X108573543Y-53479524D01*
X108573543Y-53546867D01*
X108607214Y-53647882D01*
X108674558Y-53715226D01*
X108809245Y-53782569D01*
X109617367Y-53782569D01*
X109179634Y-54220302D01*
X113048632Y-56666230D02*
X112947617Y-56093810D01*
X113452693Y-56262169D02*
X112745587Y-55555062D01*
X112476212Y-55824436D01*
X112442541Y-55925451D01*
X112442541Y-55992795D01*
X112476212Y-56093810D01*
X112577228Y-56194825D01*
X112678243Y-56228497D01*
X112745587Y-56228497D01*
X112846602Y-56194825D01*
X113115976Y-55925451D01*
X112375197Y-57339665D02*
X112779258Y-56935604D01*
X112577228Y-57137635D02*
X111870121Y-56430528D01*
X112038480Y-56464200D01*
X112173167Y-56464200D01*
X112274182Y-56430528D01*
X96909606Y-65114069D02*
X96976950Y-65114069D01*
X97111637Y-65046725D01*
X97178980Y-64979382D01*
X97246324Y-64844695D01*
X97246324Y-64710008D01*
X97212652Y-64608993D01*
X97111637Y-64440634D01*
X97010622Y-64339619D01*
X96842263Y-64238603D01*
X96741248Y-64204932D01*
X96606561Y-64204932D01*
X96471874Y-64272275D01*
X96404530Y-64339619D01*
X96337187Y-64474306D01*
X96337187Y-64541649D01*
X96303515Y-65854848D02*
X96707576Y-65450787D01*
X96505545Y-65652817D02*
X95798438Y-64945710D01*
X95966797Y-64979382D01*
X96101484Y-64979382D01*
X96202500Y-64945710D01*
X95495393Y-65854848D02*
X95529064Y-65753832D01*
X95529064Y-65686489D01*
X95495393Y-65585474D01*
X95461721Y-65551802D01*
X95360706Y-65518130D01*
X95293362Y-65518130D01*
X95192347Y-65551802D01*
X95057660Y-65686489D01*
X95023988Y-65787504D01*
X95023988Y-65854848D01*
X95057660Y-65955863D01*
X95091332Y-65989535D01*
X95192347Y-66023206D01*
X95259690Y-66023206D01*
X95360706Y-65989535D01*
X95495393Y-65854848D01*
X95596408Y-65821176D01*
X95663751Y-65821176D01*
X95764767Y-65854848D01*
X95899454Y-65989535D01*
X95933125Y-66090550D01*
X95933125Y-66157893D01*
X95899454Y-66258909D01*
X95764767Y-66393596D01*
X95663751Y-66427267D01*
X95596408Y-66427267D01*
X95495393Y-66393596D01*
X95360706Y-66258909D01*
X95327034Y-66157893D01*
X95327034Y-66090550D01*
X95360706Y-65989535D01*
X106628030Y-67102706D02*
X106628030Y-67170050D01*
X106695374Y-67304737D01*
X106762717Y-67372080D01*
X106897404Y-67439424D01*
X107032091Y-67439424D01*
X107133106Y-67405752D01*
X107301465Y-67304737D01*
X107402480Y-67203722D01*
X107503496Y-67035363D01*
X107537167Y-66934348D01*
X107537167Y-66799661D01*
X107469824Y-66664974D01*
X107402480Y-66597630D01*
X107267793Y-66530287D01*
X107200450Y-66530287D01*
X106931076Y-66260912D02*
X106931076Y-66193569D01*
X106897404Y-66092554D01*
X106729045Y-65924195D01*
X106628030Y-65890523D01*
X106560687Y-65890523D01*
X106459671Y-65924195D01*
X106392328Y-65991538D01*
X106324984Y-66126225D01*
X106324984Y-66934348D01*
X105887251Y-66496615D01*
X105213816Y-65823180D02*
X105617877Y-66227241D01*
X105415847Y-66025210D02*
X106122954Y-65318103D01*
X106089282Y-65486462D01*
X106089282Y-65621149D01*
X106122954Y-65722164D01*
X94835640Y-58025090D02*
X94835640Y-58092434D01*
X94902984Y-58227121D01*
X94970327Y-58294464D01*
X95105014Y-58361808D01*
X95239701Y-58361808D01*
X95340716Y-58328136D01*
X95509075Y-58227121D01*
X95610090Y-58126106D01*
X95711106Y-57957747D01*
X95744777Y-57856732D01*
X95744777Y-57722045D01*
X95677434Y-57587358D01*
X95610090Y-57520014D01*
X95475403Y-57452671D01*
X95408060Y-57452671D01*
X94094861Y-57418999D02*
X94498922Y-57823060D01*
X94296892Y-57621029D02*
X95003999Y-56913922D01*
X94970327Y-57082281D01*
X94970327Y-57216968D01*
X95003999Y-57317984D01*
X94566266Y-56476190D02*
X94094861Y-56004785D01*
X93690800Y-57014938D01*
X113673742Y-87022833D02*
X113721361Y-86975214D01*
X113768980Y-86832357D01*
X113768980Y-86737119D01*
X113721361Y-86594261D01*
X113626123Y-86499023D01*
X113530885Y-86451404D01*
X113340409Y-86403785D01*
X113197552Y-86403785D01*
X113007076Y-86451404D01*
X112911838Y-86499023D01*
X112816600Y-86594261D01*
X112768980Y-86737119D01*
X112768980Y-86832357D01*
X112816600Y-86975214D01*
X112864219Y-87022833D01*
X113102314Y-87879976D02*
X113768980Y-87879976D01*
X112721361Y-87641880D02*
X113435647Y-87403785D01*
X113435647Y-88022833D01*
X108875931Y-65197706D02*
X108875931Y-65265050D01*
X108943275Y-65399737D01*
X109010618Y-65467080D01*
X109145305Y-65534424D01*
X109279992Y-65534424D01*
X109381007Y-65500752D01*
X109549366Y-65399737D01*
X109650381Y-65298722D01*
X109751397Y-65130363D01*
X109785068Y-65029348D01*
X109785068Y-64894661D01*
X109717725Y-64759974D01*
X109650381Y-64692630D01*
X109515694Y-64625287D01*
X109448351Y-64625287D01*
X109178977Y-64355912D02*
X109178977Y-64288569D01*
X109145305Y-64187554D01*
X108976946Y-64019195D01*
X108875931Y-63985523D01*
X108808588Y-63985523D01*
X108707572Y-64019195D01*
X108640229Y-64086538D01*
X108572885Y-64221225D01*
X108572885Y-65029348D01*
X108135152Y-64591615D01*
X108404526Y-63446775D02*
X108337183Y-63379432D01*
X108236168Y-63345760D01*
X108168824Y-63345760D01*
X108067809Y-63379432D01*
X107899450Y-63480447D01*
X107731091Y-63648806D01*
X107630076Y-63817164D01*
X107596404Y-63918180D01*
X107596404Y-63985523D01*
X107630076Y-64086538D01*
X107697420Y-64153882D01*
X107798435Y-64187554D01*
X107865778Y-64187554D01*
X107966794Y-64153882D01*
X108135152Y-64052867D01*
X108303511Y-63884508D01*
X108404526Y-63716149D01*
X108438198Y-63615134D01*
X108438198Y-63547790D01*
X108404526Y-63446775D01*
X100795327Y-51624275D02*
X100795327Y-51691619D01*
X100862671Y-51826306D01*
X100930014Y-51893649D01*
X101064701Y-51960993D01*
X101199388Y-51960993D01*
X101300403Y-51927321D01*
X101468762Y-51826306D01*
X101569777Y-51725291D01*
X101670793Y-51556932D01*
X101704464Y-51455917D01*
X101704464Y-51321230D01*
X101637121Y-51186543D01*
X101569777Y-51119199D01*
X101435090Y-51051856D01*
X101367747Y-51051856D01*
X100054548Y-51018184D02*
X100458609Y-51422245D01*
X100256579Y-51220214D02*
X100963686Y-50513107D01*
X100930014Y-50681466D01*
X100930014Y-50816153D01*
X100963686Y-50917169D01*
X100155564Y-49704985D02*
X100290251Y-49839672D01*
X100323922Y-49940688D01*
X100323922Y-50008031D01*
X100290251Y-50176390D01*
X100189235Y-50344749D01*
X99919861Y-50614123D01*
X99818846Y-50647794D01*
X99751503Y-50647794D01*
X99650487Y-50614123D01*
X99515800Y-50479436D01*
X99482129Y-50378420D01*
X99482129Y-50311077D01*
X99515800Y-50210062D01*
X99684159Y-50041703D01*
X99785174Y-50008031D01*
X99852518Y-50008031D01*
X99953533Y-50041703D01*
X100088220Y-50176390D01*
X100121892Y-50277405D01*
X100121892Y-50344749D01*
X100088220Y-50445764D01*
X98769442Y-83412033D02*
X98817061Y-83364414D01*
X98864680Y-83221557D01*
X98864680Y-83126319D01*
X98817061Y-82983461D01*
X98721823Y-82888223D01*
X98626585Y-82840604D01*
X98436109Y-82792985D01*
X98293252Y-82792985D01*
X98102776Y-82840604D01*
X98007538Y-82888223D01*
X97912300Y-82983461D01*
X97864680Y-83126319D01*
X97864680Y-83221557D01*
X97912300Y-83364414D01*
X97959919Y-83412033D01*
X98293252Y-83983461D02*
X98245633Y-83888223D01*
X98198014Y-83840604D01*
X98102776Y-83792985D01*
X98055157Y-83792985D01*
X97959919Y-83840604D01*
X97912300Y-83888223D01*
X97864680Y-83983461D01*
X97864680Y-84173938D01*
X97912300Y-84269176D01*
X97959919Y-84316795D01*
X98055157Y-84364414D01*
X98102776Y-84364414D01*
X98198014Y-84316795D01*
X98245633Y-84269176D01*
X98293252Y-84173938D01*
X98293252Y-83983461D01*
X98340871Y-83888223D01*
X98388490Y-83840604D01*
X98483728Y-83792985D01*
X98674204Y-83792985D01*
X98769442Y-83840604D01*
X98817061Y-83888223D01*
X98864680Y-83983461D01*
X98864680Y-84173938D01*
X98817061Y-84269176D01*
X98769442Y-84316795D01*
X98674204Y-84364414D01*
X98483728Y-84364414D01*
X98388490Y-84316795D01*
X98340871Y-84269176D01*
X98293252Y-84173938D01*
X114913266Y-82086642D02*
X114960885Y-82134261D01*
X115103742Y-82181880D01*
X115198980Y-82181880D01*
X115341838Y-82134261D01*
X115437076Y-82039023D01*
X115484695Y-81943785D01*
X115532314Y-81753309D01*
X115532314Y-81610452D01*
X115484695Y-81419976D01*
X115437076Y-81324738D01*
X115341838Y-81229500D01*
X115198980Y-81181880D01*
X115103742Y-81181880D01*
X114960885Y-81229500D01*
X114913266Y-81277119D01*
X114579933Y-81181880D02*
X113960885Y-81181880D01*
X114294219Y-81562833D01*
X114151361Y-81562833D01*
X114056123Y-81610452D01*
X114008504Y-81658071D01*
X113960885Y-81753309D01*
X113960885Y-81991404D01*
X114008504Y-82086642D01*
X114056123Y-82134261D01*
X114151361Y-82181880D01*
X114437076Y-82181880D01*
X114532314Y-82134261D01*
X114579933Y-82086642D01*
X110260230Y-63749906D02*
X110260230Y-63817250D01*
X110327574Y-63951937D01*
X110394917Y-64019280D01*
X110529604Y-64086624D01*
X110664291Y-64086624D01*
X110765306Y-64052952D01*
X110933665Y-63951937D01*
X111034680Y-63850922D01*
X111135696Y-63682563D01*
X111169367Y-63581548D01*
X111169367Y-63446861D01*
X111102024Y-63312174D01*
X111034680Y-63244830D01*
X110899993Y-63177487D01*
X110832650Y-63177487D01*
X110563276Y-62908112D02*
X110563276Y-62840769D01*
X110529604Y-62739754D01*
X110361245Y-62571395D01*
X110260230Y-62537723D01*
X110192887Y-62537723D01*
X110091871Y-62571395D01*
X110024528Y-62638738D01*
X109957184Y-62773425D01*
X109957184Y-63581548D01*
X109519451Y-63143815D01*
X109990856Y-62201006D02*
X109553123Y-61763273D01*
X109519451Y-62268349D01*
X109418436Y-62167334D01*
X109317421Y-62133662D01*
X109250077Y-62133662D01*
X109149062Y-62167334D01*
X108980703Y-62335693D01*
X108947032Y-62436708D01*
X108947032Y-62504051D01*
X108980703Y-62605067D01*
X109182734Y-62807097D01*
X109283749Y-62840769D01*
X109351093Y-62840769D01*
X98027206Y-66244369D02*
X98094550Y-66244369D01*
X98229237Y-66177025D01*
X98296580Y-66109682D01*
X98363924Y-65974995D01*
X98363924Y-65840308D01*
X98330252Y-65739293D01*
X98229237Y-65570934D01*
X98128222Y-65469919D01*
X97959863Y-65368903D01*
X97858848Y-65335232D01*
X97724161Y-65335232D01*
X97589474Y-65402575D01*
X97522130Y-65469919D01*
X97454787Y-65604606D01*
X97454787Y-65671949D01*
X97185412Y-65941323D02*
X97118069Y-65941323D01*
X97017054Y-65974995D01*
X96848695Y-66143354D01*
X96815023Y-66244369D01*
X96815023Y-66311712D01*
X96848695Y-66412728D01*
X96916038Y-66480071D01*
X97050725Y-66547415D01*
X97858848Y-66547415D01*
X97421115Y-66985148D01*
X96511977Y-66614758D02*
X96444634Y-66614758D01*
X96343619Y-66648430D01*
X96175260Y-66816789D01*
X96141588Y-66917804D01*
X96141588Y-66985148D01*
X96175260Y-67086163D01*
X96242603Y-67153506D01*
X96377290Y-67220850D01*
X97185412Y-67220850D01*
X96747680Y-67658583D01*
X101179710Y-67009222D02*
X101179710Y-67076566D01*
X101247054Y-67211253D01*
X101314397Y-67278596D01*
X101449084Y-67345940D01*
X101583771Y-67345940D01*
X101684786Y-67312268D01*
X101853145Y-67211253D01*
X101954160Y-67110238D01*
X102055176Y-66941879D01*
X102088847Y-66840864D01*
X102088847Y-66706177D01*
X102021504Y-66571490D01*
X101954160Y-66504146D01*
X101819473Y-66436803D01*
X101752130Y-66436803D01*
X100438931Y-66403131D02*
X100842992Y-66807192D01*
X100640962Y-66605161D02*
X101348069Y-65898054D01*
X101314397Y-66066413D01*
X101314397Y-66201100D01*
X101348069Y-66302116D01*
X100102214Y-66066413D02*
X99967527Y-65931726D01*
X99933855Y-65830711D01*
X99933855Y-65763367D01*
X99967527Y-65595009D01*
X100068542Y-65426650D01*
X100337916Y-65157276D01*
X100438931Y-65123604D01*
X100506275Y-65123604D01*
X100607290Y-65157276D01*
X100741977Y-65291963D01*
X100775649Y-65392978D01*
X100775649Y-65460322D01*
X100741977Y-65561337D01*
X100573618Y-65729696D01*
X100472603Y-65763367D01*
X100405260Y-65763367D01*
X100304244Y-65729696D01*
X100169557Y-65595009D01*
X100135886Y-65493993D01*
X100135886Y-65426650D01*
X100169557Y-65325635D01*
X111276230Y-62733906D02*
X111276230Y-62801250D01*
X111343574Y-62935937D01*
X111410917Y-63003280D01*
X111545604Y-63070624D01*
X111680291Y-63070624D01*
X111781306Y-63036952D01*
X111949665Y-62935937D01*
X112050680Y-62834922D01*
X112151696Y-62666563D01*
X112185367Y-62565548D01*
X112185367Y-62430861D01*
X112118024Y-62296174D01*
X112050680Y-62228830D01*
X111915993Y-62161487D01*
X111848650Y-62161487D01*
X110535451Y-62127815D02*
X110939512Y-62531876D01*
X110737482Y-62329845D02*
X111444589Y-61622738D01*
X111410917Y-61791097D01*
X111410917Y-61925784D01*
X111444589Y-62026800D01*
X110602795Y-60780945D02*
X110939512Y-61117662D01*
X110636467Y-61488051D01*
X110636467Y-61420708D01*
X110602795Y-61319693D01*
X110434436Y-61151334D01*
X110333421Y-61117662D01*
X110266077Y-61117662D01*
X110165062Y-61151334D01*
X109996703Y-61319693D01*
X109963032Y-61420708D01*
X109963032Y-61488051D01*
X109996703Y-61589067D01*
X110165062Y-61757425D01*
X110266077Y-61791097D01*
X110333421Y-61791097D01*
X109451242Y-86425934D02*
X109498861Y-86378315D01*
X109546480Y-86235458D01*
X109546480Y-86140220D01*
X109498861Y-85997362D01*
X109403623Y-85902124D01*
X109308385Y-85854505D01*
X109117909Y-85806886D01*
X108975052Y-85806886D01*
X108784576Y-85854505D01*
X108689338Y-85902124D01*
X108594100Y-85997362D01*
X108546480Y-86140220D01*
X108546480Y-86235458D01*
X108594100Y-86378315D01*
X108641719Y-86425934D01*
X108546480Y-87283077D02*
X108546480Y-87092601D01*
X108594100Y-86997362D01*
X108641719Y-86949743D01*
X108784576Y-86854505D01*
X108975052Y-86806886D01*
X109356004Y-86806886D01*
X109451242Y-86854505D01*
X109498861Y-86902124D01*
X109546480Y-86997362D01*
X109546480Y-87187839D01*
X109498861Y-87283077D01*
X109451242Y-87330696D01*
X109356004Y-87378315D01*
X109117909Y-87378315D01*
X109022671Y-87330696D01*
X108975052Y-87283077D01*
X108927433Y-87187839D01*
X108927433Y-86997362D01*
X108975052Y-86902124D01*
X109022671Y-86854505D01*
X109117909Y-86806886D01*
X127803742Y-86387833D02*
X127851361Y-86340214D01*
X127898980Y-86197357D01*
X127898980Y-86102119D01*
X127851361Y-85959261D01*
X127756123Y-85864023D01*
X127660885Y-85816404D01*
X127470409Y-85768785D01*
X127327552Y-85768785D01*
X127137076Y-85816404D01*
X127041838Y-85864023D01*
X126946600Y-85959261D01*
X126898980Y-86102119D01*
X126898980Y-86197357D01*
X126946600Y-86340214D01*
X126994219Y-86387833D01*
X127898980Y-87340214D02*
X127898980Y-86768785D01*
X127898980Y-87054500D02*
X126898980Y-87054500D01*
X127041838Y-86959261D01*
X127137076Y-86864023D01*
X127184695Y-86768785D01*
M02*
