M48
INCH,TZ
T1C0.0118
T2C0.0157
T3C0.0197
T4C0.0354
T5C0.0394
%
G90
G05
T1
X25600Y-29750
X26000Y-28850
X26825Y-28000
X27550Y-27325
X28360Y-25960
X28700Y-27725
X28980Y-25980
X29440Y-25800
X29700Y-31700
X29800Y-32000
X30050Y-29175
X30050Y-34350
X30340Y-26680
X30760Y-27100
X32570Y-28740
X37220Y-23775
X39259Y-24521
X39471Y-24733
X39676Y-20914
X39817Y-25079
X40634Y-24941
X41430Y-27555
X41472Y-24104
X42027Y-23548
X42181Y-25672
X42306Y-23269
X42865Y-24655
X43000Y-21900
X43400Y-22300
X38348Y-22928
X38710Y-22566
X38710Y-23290
X39071Y-22204
X39071Y-22928
X39071Y-23652
X39433Y-21842
X39433Y-22566
X39433Y-23290
X39433Y-24014
X39795Y-21480
X39795Y-22204
X39795Y-22928
X39795Y-23652
X39795Y-24376
X40157Y-21118
X40157Y-21842
X40157Y-22566
X40157Y-23290
X40157Y-24014
X40157Y-24738
X40519Y-21480
X40519Y-22204
X40519Y-22928
X40519Y-23652
X40519Y-24376
X40881Y-21842
X40881Y-22566
X40881Y-23290
X40881Y-24014
X41243Y-22204
X41243Y-22928
X41243Y-23652
X41605Y-22566
X41605Y-23290
X41967Y-22928
X26090Y-29500
X26452Y-29138
X26452Y-29862
X26814Y-28776
X26814Y-29500
X26814Y-30224
X27176Y-28414
X27176Y-29138
X27176Y-29862
X27176Y-30586
X27538Y-28052
X27538Y-28776
X27538Y-29500
X27538Y-30224
X27538Y-30948
X27900Y-27690
X27900Y-28414
X27900Y-29138
X27900Y-29862
X27900Y-30586
X27900Y-31310
X28262Y-28052
X28262Y-28776
X28262Y-29500
X28262Y-30224
X28262Y-30948
X28624Y-28414
X28624Y-29138
X28624Y-29862
X28624Y-30586
X28986Y-28776
X28986Y-29500
X28986Y-30224
X29348Y-29138
X29348Y-29862
X29710Y-29500
T2
X19610Y-27705
X20470Y-28590
X20490Y-26750
X24715Y-29530
X26110Y-25970
X31720Y-30610
X32285Y-31515
X33065Y-31420
X33135Y-32325
X34010Y-32425
X34330Y-33380
X34775Y-25990
X35380Y-25350
X35485Y-28585
X35500Y-26755
X36090Y-26055
X36665Y-22000
X36835Y-28120
X36865Y-29480
X37305Y-25750
X37405Y-33130
X38170Y-28120
X38170Y-29510
X38870Y-19160
X39630Y-26190
X40800Y-33685
X40800Y-34335
X40865Y-26310
X40885Y-19575
X41230Y-26690
X41301Y-35342
X41325Y-19115
X41475Y-33685
X41875Y-18580
X42380Y-29815
X42420Y-29050
X42970Y-30970
X43000Y-30215
X43015Y-29420
X43395Y-34485
X43470Y-23140
X43515Y-35270
X43545Y-31415
X43685Y-28140
X43965Y-22700
X44040Y-34380
X44045Y-29455
X44045Y-34000
X44200Y-35140
X44420Y-28785
X44655Y-20895
X44705Y-23890
X45090Y-28170
X45095Y-21365
X45375Y-23400
X45405Y-31280
X45465Y-20580
X46275Y-31265
X47026Y-33727
X47026Y-34227
X47265Y-31235
X47760Y-24870
X47770Y-27790
X47785Y-26035
X48395Y-27790
X48540Y-14605
X48550Y-15220
X48550Y-15915
X48650Y-35302
X49065Y-20720
X49225Y-18625
X49325Y-14595
X49340Y-15205
X49445Y-17430
X50000Y-18170
X50170Y-16935
T3
X26800Y-25100
X27520Y-25520
T5
X21910Y-15995
X21910Y-16995
X21910Y-17995
X21910Y-18995
X21910Y-19995
X21910Y-20995
X21910Y-21995
X22910Y-15995
X22910Y-16995
X22910Y-17995
X22910Y-18995
X22910Y-19995
X22910Y-20995
X22910Y-21995
X46890Y-18180
X46890Y-19180
X46890Y-20180
X46890Y-21180
X18906Y-36720
X18906Y-37720
X19906Y-36720
X19906Y-37720
X20906Y-36720
X20906Y-37720
X21906Y-36720
X21906Y-37720
X22906Y-36720
X22906Y-37720
X23906Y-36720
X23906Y-37720
X24906Y-36720
X24906Y-37720
X25906Y-36720
X25906Y-37720
X26906Y-36720
X26906Y-37720
X27906Y-36720
X27906Y-37720
X28906Y-36720
X28906Y-37720
X29906Y-36720
X29906Y-37720
X30906Y-36720
X30906Y-37720
X31906Y-36720
X31906Y-37720
X32906Y-36720
X32906Y-37720
X33906Y-36720
X33906Y-37720
X34906Y-36720
X34906Y-37720
X35906Y-36720
X35906Y-37720
X36906Y-36720
X36906Y-37720
X37906Y-36720
X37906Y-37720
X38906Y-36720
X38906Y-37720
X39906Y-36720
X39906Y-37720
X40906Y-36720
X40906Y-37720
X41906Y-36720
X41906Y-37720
X42906Y-36720
X42906Y-37720
X43906Y-36720
X43906Y-37720
X44906Y-36720
X44906Y-37720
X45906Y-36720
X45906Y-37720
X46906Y-36720
X46906Y-37720
X47906Y-36720
X47906Y-37720
X48906Y-36720
X48906Y-37720
X49906Y-36720
X49906Y-37720
X18909Y-12705
X18909Y-13705
X19909Y-12705
X19909Y-13705
X20909Y-12705
X20909Y-13705
X21909Y-12705
X21909Y-13705
X22909Y-12705
X22909Y-13705
X23909Y-12705
X23909Y-13705
X24909Y-12705
X24909Y-13705
X25909Y-12705
X25909Y-13705
X26909Y-12705
X26909Y-13705
X27909Y-12705
X27909Y-13705
X28909Y-12705
X28909Y-13705
X29909Y-12705
X29909Y-13705
X30909Y-12705
X30909Y-13705
X31909Y-12705
X31909Y-13705
X32909Y-12705
X32909Y-13705
X33909Y-12705
X33909Y-13705
X34909Y-12705
X34909Y-13705
X35909Y-12705
X35909Y-13705
X36909Y-12705
X36909Y-13705
X37909Y-12705
X37909Y-13705
X38909Y-12705
X38909Y-13705
X39909Y-12705
X39909Y-13705
X40909Y-12705
X40909Y-13705
X41909Y-12705
X41909Y-13705
X42909Y-12705
X42909Y-13705
X43909Y-12705
X43909Y-13705
X44909Y-12705
X44909Y-13705
X45909Y-12705
X45909Y-13705
X46909Y-12705
X46909Y-13705
X47909Y-12705
X47909Y-13705
X48909Y-12705
X48909Y-13705
X49909Y-12705
X49909Y-13705
T4
G00X19494Y-24821
M15
G01X19021Y-24821
M16
G05
G00X19494Y-30529
M15
G01X19021Y-30529
M16
G05
G00X21958Y-24821
M15
G01X21250Y-24821
M16
G05
G00X21958Y-30529
M15
G01X21250Y-30529
M16
G05
G00X46802Y-23196
M15
G01X47510Y-23196
M16
G05
G00X46802Y-28904
M15
G01X47510Y-28904
M16
G05
G00X49266Y-23196
M15
G01X49739Y-23196
M16
G05
G00X49266Y-28904
M15
G01X49739Y-28904
M16
G05
T0
M30
