G04 #@! TF.GenerationSoftware,KiCad,Pcbnew,(5.1.0-891-gf1f26a919-dirty)*
G04 #@! TF.CreationDate,2019-06-11T00:28:49+04:00*
G04 #@! TF.ProjectId,hdmishield,68646d69-7368-4696-956c-642e6b696361,rev?*
G04 #@! TF.SameCoordinates,Original*
G04 #@! TF.FileFunction,Paste,Top*
G04 #@! TF.FilePolarity,Positive*
%FSLAX46Y46*%
G04 Gerber Fmt 4.6, Leading zero omitted, Abs format (unit mm)*
G04 Created by KiCad (PCBNEW (5.1.0-891-gf1f26a919-dirty)) date 2019-06-11 00:28:49*
%MOMM*%
%LPD*%
G04 APERTURE LIST*
%ADD10C,0.100000*%
%ADD11R,2.500000X2.000000*%
%ADD12R,3.200000X2.000000*%
%ADD13C,0.300000*%
%ADD14C,0.300000*%
%ADD15C,0.875000*%
%ADD16C,1.250000*%
%ADD17R,1.500000X2.000000*%
%ADD18R,3.800000X2.000000*%
%ADD19C,1.425000*%
%ADD20C,0.975000*%
%ADD21C,2.075000*%
G04 APERTURE END LIST*
D10*
G36*
X70653868Y-74930000D02*
G01*
X69098233Y-76485635D01*
X67542598Y-74930000D01*
X69098233Y-73374365D01*
X70653868Y-74930000D01*
G37*
G36*
X72421635Y-73162233D02*
G01*
X70866000Y-74717868D01*
X69310365Y-73162233D01*
X70866000Y-71606598D01*
X72421635Y-73162233D01*
G37*
G36*
X72421635Y-76697767D02*
G01*
X70866000Y-78253402D01*
X69310365Y-76697767D01*
X70866000Y-75142132D01*
X72421635Y-76697767D01*
G37*
G36*
X74189402Y-74930000D02*
G01*
X72633767Y-76485635D01*
X71078132Y-74930000D01*
X72633767Y-73374365D01*
X74189402Y-74930000D01*
G37*
G36*
X102211299Y-58237139D02*
G01*
X103766934Y-56681504D01*
X105322569Y-58237139D01*
X103766934Y-59792774D01*
X102211299Y-58237139D01*
G37*
G36*
X100443532Y-60004906D02*
G01*
X101999167Y-58449271D01*
X103554802Y-60004906D01*
X101999167Y-61560541D01*
X100443532Y-60004906D01*
G37*
G36*
X100443532Y-56469372D02*
G01*
X101999167Y-54913737D01*
X103554802Y-56469372D01*
X101999167Y-58025007D01*
X100443532Y-56469372D01*
G37*
G36*
X98675765Y-58237139D02*
G01*
X100231400Y-56681504D01*
X101787035Y-58237139D01*
X100231400Y-59792774D01*
X98675765Y-58237139D01*
G37*
D11*
X48914100Y-78994500D03*
X48914100Y-61594500D03*
D12*
X54874100Y-78994500D03*
X54884100Y-61594500D03*
D10*
G36*
X56912133Y-72166467D02*
G01*
X56934100Y-72219500D01*
X56934100Y-72369500D01*
X56912133Y-72422533D01*
X56859100Y-72444500D01*
X54409100Y-72444500D01*
X54356067Y-72422533D01*
X54334100Y-72369500D01*
X54334100Y-72219500D01*
X54356067Y-72166467D01*
X54409100Y-72144500D01*
X56859100Y-72144500D01*
X56912133Y-72166467D01*
X56912133Y-72166467D01*
G37*
D13*
X55634100Y-72294500D03*
D10*
G36*
X56912133Y-71666467D02*
G01*
X56934100Y-71719500D01*
X56934100Y-71869500D01*
X56912133Y-71922533D01*
X56859100Y-71944500D01*
X54409100Y-71944500D01*
X54356067Y-71922533D01*
X54334100Y-71869500D01*
X54334100Y-71719500D01*
X54356067Y-71666467D01*
X54409100Y-71644500D01*
X56859100Y-71644500D01*
X56912133Y-71666467D01*
X56912133Y-71666467D01*
G37*
D13*
X55634100Y-71794500D03*
D10*
G36*
X56912133Y-71166467D02*
G01*
X56934100Y-71219500D01*
X56934100Y-71369500D01*
X56912133Y-71422533D01*
X56859100Y-71444500D01*
X54409100Y-71444500D01*
X54356067Y-71422533D01*
X54334100Y-71369500D01*
X54334100Y-71219500D01*
X54356067Y-71166467D01*
X54409100Y-71144500D01*
X56859100Y-71144500D01*
X56912133Y-71166467D01*
X56912133Y-71166467D01*
G37*
D13*
X55634100Y-71294500D03*
D10*
G36*
X56912133Y-70666467D02*
G01*
X56934100Y-70719500D01*
X56934100Y-70869500D01*
X56912133Y-70922533D01*
X56859100Y-70944500D01*
X54409100Y-70944500D01*
X54356067Y-70922533D01*
X54334100Y-70869500D01*
X54334100Y-70719500D01*
X54356067Y-70666467D01*
X54409100Y-70644500D01*
X56859100Y-70644500D01*
X56912133Y-70666467D01*
X56912133Y-70666467D01*
G37*
D13*
X55634100Y-70794500D03*
D10*
G36*
X56912133Y-69166467D02*
G01*
X56934100Y-69219500D01*
X56934100Y-69369500D01*
X56912133Y-69422533D01*
X56859100Y-69444500D01*
X54409100Y-69444500D01*
X54356067Y-69422533D01*
X54334100Y-69369500D01*
X54334100Y-69219500D01*
X54356067Y-69166467D01*
X54409100Y-69144500D01*
X56859100Y-69144500D01*
X56912133Y-69166467D01*
X56912133Y-69166467D01*
G37*
D13*
X55634100Y-69294500D03*
D10*
G36*
X56912133Y-68666467D02*
G01*
X56934100Y-68719500D01*
X56934100Y-68869500D01*
X56912133Y-68922533D01*
X56859100Y-68944500D01*
X54409100Y-68944500D01*
X54356067Y-68922533D01*
X54334100Y-68869500D01*
X54334100Y-68719500D01*
X54356067Y-68666467D01*
X54409100Y-68644500D01*
X56859100Y-68644500D01*
X56912133Y-68666467D01*
X56912133Y-68666467D01*
G37*
D13*
X55634100Y-68794500D03*
D10*
G36*
X56912133Y-65666467D02*
G01*
X56934100Y-65719500D01*
X56934100Y-65869500D01*
X56912133Y-65922533D01*
X56859100Y-65944500D01*
X54409100Y-65944500D01*
X54356067Y-65922533D01*
X54334100Y-65869500D01*
X54334100Y-65719500D01*
X54356067Y-65666467D01*
X54409100Y-65644500D01*
X56859100Y-65644500D01*
X56912133Y-65666467D01*
X56912133Y-65666467D01*
G37*
D13*
X55634100Y-65794500D03*
D10*
G36*
X56912133Y-66666467D02*
G01*
X56934100Y-66719500D01*
X56934100Y-66869500D01*
X56912133Y-66922533D01*
X56859100Y-66944500D01*
X54409100Y-66944500D01*
X54356067Y-66922533D01*
X54334100Y-66869500D01*
X54334100Y-66719500D01*
X54356067Y-66666467D01*
X54409100Y-66644500D01*
X56859100Y-66644500D01*
X56912133Y-66666467D01*
X56912133Y-66666467D01*
G37*
D13*
X55634100Y-66794500D03*
D10*
G36*
X56912133Y-66166467D02*
G01*
X56934100Y-66219500D01*
X56934100Y-66369500D01*
X56912133Y-66422533D01*
X56859100Y-66444500D01*
X54409100Y-66444500D01*
X54356067Y-66422533D01*
X54334100Y-66369500D01*
X54334100Y-66219500D01*
X54356067Y-66166467D01*
X54409100Y-66144500D01*
X56859100Y-66144500D01*
X56912133Y-66166467D01*
X56912133Y-66166467D01*
G37*
D13*
X55634100Y-66294500D03*
D10*
G36*
X56912133Y-74666467D02*
G01*
X56934100Y-74719500D01*
X56934100Y-74869500D01*
X56912133Y-74922533D01*
X56859100Y-74944500D01*
X54409100Y-74944500D01*
X54356067Y-74922533D01*
X54334100Y-74869500D01*
X54334100Y-74719500D01*
X54356067Y-74666467D01*
X54409100Y-74644500D01*
X56859100Y-74644500D01*
X56912133Y-74666467D01*
X56912133Y-74666467D01*
G37*
D13*
X55634100Y-74794500D03*
D10*
G36*
X56912133Y-74166467D02*
G01*
X56934100Y-74219500D01*
X56934100Y-74369500D01*
X56912133Y-74422533D01*
X56859100Y-74444500D01*
X54409100Y-74444500D01*
X54356067Y-74422533D01*
X54334100Y-74369500D01*
X54334100Y-74219500D01*
X54356067Y-74166467D01*
X54409100Y-74144500D01*
X56859100Y-74144500D01*
X56912133Y-74166467D01*
X56912133Y-74166467D01*
G37*
D13*
X55634100Y-74294500D03*
D10*
G36*
X56912133Y-73666467D02*
G01*
X56934100Y-73719500D01*
X56934100Y-73869500D01*
X56912133Y-73922533D01*
X56859100Y-73944500D01*
X54409100Y-73944500D01*
X54356067Y-73922533D01*
X54334100Y-73869500D01*
X54334100Y-73719500D01*
X54356067Y-73666467D01*
X54409100Y-73644500D01*
X56859100Y-73644500D01*
X56912133Y-73666467D01*
X56912133Y-73666467D01*
G37*
D13*
X55634100Y-73794500D03*
D10*
G36*
X56912133Y-73166467D02*
G01*
X56934100Y-73219500D01*
X56934100Y-73369500D01*
X56912133Y-73422533D01*
X56859100Y-73444500D01*
X54409100Y-73444500D01*
X54356067Y-73422533D01*
X54334100Y-73369500D01*
X54334100Y-73219500D01*
X54356067Y-73166467D01*
X54409100Y-73144500D01*
X56859100Y-73144500D01*
X56912133Y-73166467D01*
X56912133Y-73166467D01*
G37*
D13*
X55634100Y-73294500D03*
D10*
G36*
X56912133Y-72666467D02*
G01*
X56934100Y-72719500D01*
X56934100Y-72869500D01*
X56912133Y-72922533D01*
X56859100Y-72944500D01*
X54409100Y-72944500D01*
X54356067Y-72922533D01*
X54334100Y-72869500D01*
X54334100Y-72719500D01*
X54356067Y-72666467D01*
X54409100Y-72644500D01*
X56859100Y-72644500D01*
X56912133Y-72666467D01*
X56912133Y-72666467D01*
G37*
D13*
X55634100Y-72794500D03*
D10*
G36*
X56912133Y-70166467D02*
G01*
X56934100Y-70219500D01*
X56934100Y-70369500D01*
X56912133Y-70422533D01*
X56859100Y-70444500D01*
X54409100Y-70444500D01*
X54356067Y-70422533D01*
X54334100Y-70369500D01*
X54334100Y-70219500D01*
X54356067Y-70166467D01*
X54409100Y-70144500D01*
X56859100Y-70144500D01*
X56912133Y-70166467D01*
X56912133Y-70166467D01*
G37*
D13*
X55634100Y-70294500D03*
D10*
G36*
X56912133Y-69666467D02*
G01*
X56934100Y-69719500D01*
X56934100Y-69869500D01*
X56912133Y-69922533D01*
X56859100Y-69944500D01*
X54409100Y-69944500D01*
X54356067Y-69922533D01*
X54334100Y-69869500D01*
X54334100Y-69719500D01*
X54356067Y-69666467D01*
X54409100Y-69644500D01*
X56859100Y-69644500D01*
X56912133Y-69666467D01*
X56912133Y-69666467D01*
G37*
D13*
X55634100Y-69794500D03*
D10*
G36*
X56912133Y-68166467D02*
G01*
X56934100Y-68219500D01*
X56934100Y-68369500D01*
X56912133Y-68422533D01*
X56859100Y-68444500D01*
X54409100Y-68444500D01*
X54356067Y-68422533D01*
X54334100Y-68369500D01*
X54334100Y-68219500D01*
X54356067Y-68166467D01*
X54409100Y-68144500D01*
X56859100Y-68144500D01*
X56912133Y-68166467D01*
X56912133Y-68166467D01*
G37*
D13*
X55634100Y-68294500D03*
D10*
G36*
X56912133Y-67666467D02*
G01*
X56934100Y-67719500D01*
X56934100Y-67869500D01*
X56912133Y-67922533D01*
X56859100Y-67944500D01*
X54409100Y-67944500D01*
X54356067Y-67922533D01*
X54334100Y-67869500D01*
X54334100Y-67719500D01*
X54356067Y-67666467D01*
X54409100Y-67644500D01*
X56859100Y-67644500D01*
X56912133Y-67666467D01*
X56912133Y-67666467D01*
G37*
D13*
X55634100Y-67794500D03*
D10*
G36*
X56912133Y-67166467D02*
G01*
X56934100Y-67219500D01*
X56934100Y-67369500D01*
X56912133Y-67422533D01*
X56859100Y-67444500D01*
X54409100Y-67444500D01*
X54356067Y-67422533D01*
X54334100Y-67369500D01*
X54334100Y-67219500D01*
X54356067Y-67166467D01*
X54409100Y-67144500D01*
X56859100Y-67144500D01*
X56912133Y-67166467D01*
X56912133Y-67166467D01*
G37*
D13*
X55634100Y-67294500D03*
D11*
X125736300Y-57467000D03*
X125736300Y-74867000D03*
D12*
X119776300Y-57467000D03*
X119766300Y-74867000D03*
D10*
G36*
X120294333Y-64038967D02*
G01*
X120316300Y-64092000D01*
X120316300Y-64242000D01*
X120294333Y-64295033D01*
X120241300Y-64317000D01*
X117791300Y-64317000D01*
X117738267Y-64295033D01*
X117716300Y-64242000D01*
X117716300Y-64092000D01*
X117738267Y-64038967D01*
X117791300Y-64017000D01*
X120241300Y-64017000D01*
X120294333Y-64038967D01*
X120294333Y-64038967D01*
G37*
D13*
X119016300Y-64167000D03*
D10*
G36*
X120294333Y-64538967D02*
G01*
X120316300Y-64592000D01*
X120316300Y-64742000D01*
X120294333Y-64795033D01*
X120241300Y-64817000D01*
X117791300Y-64817000D01*
X117738267Y-64795033D01*
X117716300Y-64742000D01*
X117716300Y-64592000D01*
X117738267Y-64538967D01*
X117791300Y-64517000D01*
X120241300Y-64517000D01*
X120294333Y-64538967D01*
X120294333Y-64538967D01*
G37*
D13*
X119016300Y-64667000D03*
D10*
G36*
X120294333Y-65038967D02*
G01*
X120316300Y-65092000D01*
X120316300Y-65242000D01*
X120294333Y-65295033D01*
X120241300Y-65317000D01*
X117791300Y-65317000D01*
X117738267Y-65295033D01*
X117716300Y-65242000D01*
X117716300Y-65092000D01*
X117738267Y-65038967D01*
X117791300Y-65017000D01*
X120241300Y-65017000D01*
X120294333Y-65038967D01*
X120294333Y-65038967D01*
G37*
D13*
X119016300Y-65167000D03*
D10*
G36*
X120294333Y-65538967D02*
G01*
X120316300Y-65592000D01*
X120316300Y-65742000D01*
X120294333Y-65795033D01*
X120241300Y-65817000D01*
X117791300Y-65817000D01*
X117738267Y-65795033D01*
X117716300Y-65742000D01*
X117716300Y-65592000D01*
X117738267Y-65538967D01*
X117791300Y-65517000D01*
X120241300Y-65517000D01*
X120294333Y-65538967D01*
X120294333Y-65538967D01*
G37*
D13*
X119016300Y-65667000D03*
D10*
G36*
X120294333Y-67038967D02*
G01*
X120316300Y-67092000D01*
X120316300Y-67242000D01*
X120294333Y-67295033D01*
X120241300Y-67317000D01*
X117791300Y-67317000D01*
X117738267Y-67295033D01*
X117716300Y-67242000D01*
X117716300Y-67092000D01*
X117738267Y-67038967D01*
X117791300Y-67017000D01*
X120241300Y-67017000D01*
X120294333Y-67038967D01*
X120294333Y-67038967D01*
G37*
D13*
X119016300Y-67167000D03*
D10*
G36*
X120294333Y-67538967D02*
G01*
X120316300Y-67592000D01*
X120316300Y-67742000D01*
X120294333Y-67795033D01*
X120241300Y-67817000D01*
X117791300Y-67817000D01*
X117738267Y-67795033D01*
X117716300Y-67742000D01*
X117716300Y-67592000D01*
X117738267Y-67538967D01*
X117791300Y-67517000D01*
X120241300Y-67517000D01*
X120294333Y-67538967D01*
X120294333Y-67538967D01*
G37*
D13*
X119016300Y-67667000D03*
D10*
G36*
X120294333Y-70538967D02*
G01*
X120316300Y-70592000D01*
X120316300Y-70742000D01*
X120294333Y-70795033D01*
X120241300Y-70817000D01*
X117791300Y-70817000D01*
X117738267Y-70795033D01*
X117716300Y-70742000D01*
X117716300Y-70592000D01*
X117738267Y-70538967D01*
X117791300Y-70517000D01*
X120241300Y-70517000D01*
X120294333Y-70538967D01*
X120294333Y-70538967D01*
G37*
D13*
X119016300Y-70667000D03*
D10*
G36*
X120294333Y-69538967D02*
G01*
X120316300Y-69592000D01*
X120316300Y-69742000D01*
X120294333Y-69795033D01*
X120241300Y-69817000D01*
X117791300Y-69817000D01*
X117738267Y-69795033D01*
X117716300Y-69742000D01*
X117716300Y-69592000D01*
X117738267Y-69538967D01*
X117791300Y-69517000D01*
X120241300Y-69517000D01*
X120294333Y-69538967D01*
X120294333Y-69538967D01*
G37*
D13*
X119016300Y-69667000D03*
D10*
G36*
X120294333Y-70038967D02*
G01*
X120316300Y-70092000D01*
X120316300Y-70242000D01*
X120294333Y-70295033D01*
X120241300Y-70317000D01*
X117791300Y-70317000D01*
X117738267Y-70295033D01*
X117716300Y-70242000D01*
X117716300Y-70092000D01*
X117738267Y-70038967D01*
X117791300Y-70017000D01*
X120241300Y-70017000D01*
X120294333Y-70038967D01*
X120294333Y-70038967D01*
G37*
D13*
X119016300Y-70167000D03*
D10*
G36*
X120294333Y-61538967D02*
G01*
X120316300Y-61592000D01*
X120316300Y-61742000D01*
X120294333Y-61795033D01*
X120241300Y-61817000D01*
X117791300Y-61817000D01*
X117738267Y-61795033D01*
X117716300Y-61742000D01*
X117716300Y-61592000D01*
X117738267Y-61538967D01*
X117791300Y-61517000D01*
X120241300Y-61517000D01*
X120294333Y-61538967D01*
X120294333Y-61538967D01*
G37*
D13*
X119016300Y-61667000D03*
D10*
G36*
X120294333Y-62038967D02*
G01*
X120316300Y-62092000D01*
X120316300Y-62242000D01*
X120294333Y-62295033D01*
X120241300Y-62317000D01*
X117791300Y-62317000D01*
X117738267Y-62295033D01*
X117716300Y-62242000D01*
X117716300Y-62092000D01*
X117738267Y-62038967D01*
X117791300Y-62017000D01*
X120241300Y-62017000D01*
X120294333Y-62038967D01*
X120294333Y-62038967D01*
G37*
D13*
X119016300Y-62167000D03*
D10*
G36*
X120294333Y-62538967D02*
G01*
X120316300Y-62592000D01*
X120316300Y-62742000D01*
X120294333Y-62795033D01*
X120241300Y-62817000D01*
X117791300Y-62817000D01*
X117738267Y-62795033D01*
X117716300Y-62742000D01*
X117716300Y-62592000D01*
X117738267Y-62538967D01*
X117791300Y-62517000D01*
X120241300Y-62517000D01*
X120294333Y-62538967D01*
X120294333Y-62538967D01*
G37*
D13*
X119016300Y-62667000D03*
D10*
G36*
X120294333Y-63038967D02*
G01*
X120316300Y-63092000D01*
X120316300Y-63242000D01*
X120294333Y-63295033D01*
X120241300Y-63317000D01*
X117791300Y-63317000D01*
X117738267Y-63295033D01*
X117716300Y-63242000D01*
X117716300Y-63092000D01*
X117738267Y-63038967D01*
X117791300Y-63017000D01*
X120241300Y-63017000D01*
X120294333Y-63038967D01*
X120294333Y-63038967D01*
G37*
D13*
X119016300Y-63167000D03*
D10*
G36*
X120294333Y-63538967D02*
G01*
X120316300Y-63592000D01*
X120316300Y-63742000D01*
X120294333Y-63795033D01*
X120241300Y-63817000D01*
X117791300Y-63817000D01*
X117738267Y-63795033D01*
X117716300Y-63742000D01*
X117716300Y-63592000D01*
X117738267Y-63538967D01*
X117791300Y-63517000D01*
X120241300Y-63517000D01*
X120294333Y-63538967D01*
X120294333Y-63538967D01*
G37*
D13*
X119016300Y-63667000D03*
D10*
G36*
X120294333Y-66038967D02*
G01*
X120316300Y-66092000D01*
X120316300Y-66242000D01*
X120294333Y-66295033D01*
X120241300Y-66317000D01*
X117791300Y-66317000D01*
X117738267Y-66295033D01*
X117716300Y-66242000D01*
X117716300Y-66092000D01*
X117738267Y-66038967D01*
X117791300Y-66017000D01*
X120241300Y-66017000D01*
X120294333Y-66038967D01*
X120294333Y-66038967D01*
G37*
D13*
X119016300Y-66167000D03*
D10*
G36*
X120294333Y-66538967D02*
G01*
X120316300Y-66592000D01*
X120316300Y-66742000D01*
X120294333Y-66795033D01*
X120241300Y-66817000D01*
X117791300Y-66817000D01*
X117738267Y-66795033D01*
X117716300Y-66742000D01*
X117716300Y-66592000D01*
X117738267Y-66538967D01*
X117791300Y-66517000D01*
X120241300Y-66517000D01*
X120294333Y-66538967D01*
X120294333Y-66538967D01*
G37*
D13*
X119016300Y-66667000D03*
D10*
G36*
X120294333Y-68038967D02*
G01*
X120316300Y-68092000D01*
X120316300Y-68242000D01*
X120294333Y-68295033D01*
X120241300Y-68317000D01*
X117791300Y-68317000D01*
X117738267Y-68295033D01*
X117716300Y-68242000D01*
X117716300Y-68092000D01*
X117738267Y-68038967D01*
X117791300Y-68017000D01*
X120241300Y-68017000D01*
X120294333Y-68038967D01*
X120294333Y-68038967D01*
G37*
D13*
X119016300Y-68167000D03*
D10*
G36*
X120294333Y-68538967D02*
G01*
X120316300Y-68592000D01*
X120316300Y-68742000D01*
X120294333Y-68795033D01*
X120241300Y-68817000D01*
X117791300Y-68817000D01*
X117738267Y-68795033D01*
X117716300Y-68742000D01*
X117716300Y-68592000D01*
X117738267Y-68538967D01*
X117791300Y-68517000D01*
X120241300Y-68517000D01*
X120294333Y-68538967D01*
X120294333Y-68538967D01*
G37*
D13*
X119016300Y-68667000D03*
D10*
G36*
X120294333Y-69038967D02*
G01*
X120316300Y-69092000D01*
X120316300Y-69242000D01*
X120294333Y-69295033D01*
X120241300Y-69317000D01*
X117791300Y-69317000D01*
X117738267Y-69295033D01*
X117716300Y-69242000D01*
X117716300Y-69092000D01*
X117738267Y-69038967D01*
X117791300Y-69017000D01*
X120241300Y-69017000D01*
X120294333Y-69038967D01*
X120294333Y-69038967D01*
G37*
D13*
X119016300Y-69167000D03*
X77548159Y-76308858D03*
D14*
X77972423Y-76733122D02*
X77123895Y-75884594D01*
D13*
X77194606Y-76662412D03*
D14*
X77618870Y-77086676D02*
X76770342Y-76238148D01*
D13*
X76841052Y-77015965D03*
D14*
X77265316Y-77440229D02*
X76416788Y-76591701D01*
D13*
X76487499Y-77369518D03*
D14*
X76911763Y-77793782D02*
X76063235Y-76945254D01*
D13*
X76133946Y-77723072D03*
D14*
X76558210Y-78147336D02*
X75709682Y-77298808D01*
D13*
X75780392Y-78076625D03*
D14*
X76204656Y-78500889D02*
X75356128Y-77652361D01*
D13*
X75426839Y-78430179D03*
D14*
X75851103Y-78854443D02*
X75002575Y-78005915D01*
D13*
X75073285Y-78783732D03*
D14*
X75497549Y-79207996D02*
X74649021Y-78359468D01*
D13*
X74719732Y-79137285D03*
D14*
X75143996Y-79561549D02*
X74295468Y-78713021D01*
D13*
X74366179Y-79490839D03*
D14*
X74790443Y-79915103D02*
X73941915Y-79066575D01*
D13*
X74012625Y-79844392D03*
D14*
X74436889Y-80268656D02*
X73588361Y-79420128D01*
D13*
X73659072Y-80197946D03*
D14*
X74083336Y-80622210D02*
X73234808Y-79773682D01*
D13*
X73305518Y-80551499D03*
D14*
X73729782Y-80975763D02*
X72881254Y-80127235D01*
D13*
X72951965Y-80905052D03*
D14*
X73376229Y-81329316D02*
X72527701Y-80480788D01*
D13*
X72598412Y-81258606D03*
D14*
X73022676Y-81682870D02*
X72174148Y-80834342D01*
D13*
X72244858Y-81612159D03*
D14*
X72669122Y-82036423D02*
X71820594Y-81187895D01*
D13*
X69487142Y-81612159D03*
D14*
X69911406Y-81187895D02*
X69062878Y-82036423D01*
D13*
X69133588Y-81258606D03*
D14*
X69557852Y-80834342D02*
X68709324Y-81682870D01*
D13*
X68780035Y-80905052D03*
D14*
X69204299Y-80480788D02*
X68355771Y-81329316D01*
D13*
X68426482Y-80551499D03*
D14*
X68850746Y-80127235D02*
X68002218Y-80975763D01*
D13*
X68072928Y-80197946D03*
D14*
X68497192Y-79773682D02*
X67648664Y-80622210D01*
D13*
X67719375Y-79844392D03*
D14*
X68143639Y-79420128D02*
X67295111Y-80268656D01*
D13*
X67365821Y-79490839D03*
D14*
X67790085Y-79066575D02*
X66941557Y-79915103D01*
D13*
X67012268Y-79137285D03*
D14*
X67436532Y-78713021D02*
X66588004Y-79561549D01*
D13*
X66658715Y-78783732D03*
D14*
X67082979Y-78359468D02*
X66234451Y-79207996D01*
D13*
X66305161Y-78430179D03*
D14*
X66729425Y-78005915D02*
X65880897Y-78854443D01*
D13*
X65951608Y-78076625D03*
D14*
X66375872Y-77652361D02*
X65527344Y-78500889D01*
D13*
X65598054Y-77723072D03*
D14*
X66022318Y-77298808D02*
X65173790Y-78147336D01*
D13*
X65244501Y-77369518D03*
D14*
X65668765Y-76945254D02*
X64820237Y-77793782D01*
D13*
X64890948Y-77015965D03*
D14*
X65315212Y-76591701D02*
X64466684Y-77440229D01*
D13*
X64537394Y-76662412D03*
D14*
X64961658Y-76238148D02*
X64113130Y-77086676D01*
D13*
X64183841Y-76308858D03*
D14*
X64608105Y-75884594D02*
X63759577Y-76733122D01*
D13*
X64183841Y-73551142D03*
D14*
X64608105Y-73975406D02*
X63759577Y-73126878D01*
D13*
X64537394Y-73197588D03*
D14*
X64961658Y-73621852D02*
X64113130Y-72773324D01*
D13*
X64890948Y-72844035D03*
D14*
X65315212Y-73268299D02*
X64466684Y-72419771D01*
D13*
X65244501Y-72490482D03*
D14*
X65668765Y-72914746D02*
X64820237Y-72066218D01*
D13*
X65598054Y-72136928D03*
D14*
X66022318Y-72561192D02*
X65173790Y-71712664D01*
D13*
X65951608Y-71783375D03*
D14*
X66375872Y-72207639D02*
X65527344Y-71359111D01*
D13*
X66305161Y-71429821D03*
D14*
X66729425Y-71854085D02*
X65880897Y-71005557D01*
D13*
X66658715Y-71076268D03*
D14*
X67082979Y-71500532D02*
X66234451Y-70652004D01*
D13*
X67012268Y-70722715D03*
D14*
X67436532Y-71146979D02*
X66588004Y-70298451D01*
D13*
X67365821Y-70369161D03*
D14*
X67790085Y-70793425D02*
X66941557Y-69944897D01*
D13*
X67719375Y-70015608D03*
D14*
X68143639Y-70439872D02*
X67295111Y-69591344D01*
D13*
X68072928Y-69662054D03*
D14*
X68497192Y-70086318D02*
X67648664Y-69237790D01*
D13*
X68426482Y-69308501D03*
D14*
X68850746Y-69732765D02*
X68002218Y-68884237D01*
D13*
X68780035Y-68954948D03*
D14*
X69204299Y-69379212D02*
X68355771Y-68530684D01*
D13*
X69133588Y-68601394D03*
D14*
X69557852Y-69025658D02*
X68709324Y-68177130D01*
D13*
X69487142Y-68247841D03*
D14*
X69911406Y-68672105D02*
X69062878Y-67823577D01*
D13*
X72244858Y-68247841D03*
D14*
X72669122Y-67823577D02*
X71820594Y-68672105D01*
D13*
X72598412Y-68601394D03*
D14*
X73022676Y-68177130D02*
X72174148Y-69025658D01*
D13*
X72951965Y-68954948D03*
D14*
X73376229Y-68530684D02*
X72527701Y-69379212D01*
D13*
X73305518Y-69308501D03*
D14*
X73729782Y-68884237D02*
X72881254Y-69732765D01*
D13*
X73659072Y-69662054D03*
D14*
X74083336Y-69237790D02*
X73234808Y-70086318D01*
D13*
X74012625Y-70015608D03*
D14*
X74436889Y-69591344D02*
X73588361Y-70439872D01*
D13*
X74366179Y-70369161D03*
D14*
X74790443Y-69944897D02*
X73941915Y-70793425D01*
D13*
X74719732Y-70722715D03*
D14*
X75143996Y-70298451D02*
X74295468Y-71146979D01*
D13*
X75073285Y-71076268D03*
D14*
X75497549Y-70652004D02*
X74649021Y-71500532D01*
D13*
X75426839Y-71429821D03*
D14*
X75851103Y-71005557D02*
X75002575Y-71854085D01*
D13*
X75780392Y-71783375D03*
D14*
X76204656Y-71359111D02*
X75356128Y-72207639D01*
D13*
X76133946Y-72136928D03*
D14*
X76558210Y-71712664D02*
X75709682Y-72561192D01*
D13*
X76487499Y-72490482D03*
D14*
X76911763Y-72066218D02*
X76063235Y-72914746D01*
D13*
X76841052Y-72844035D03*
D14*
X77265316Y-72419771D02*
X76416788Y-73268299D01*
D13*
X77194606Y-73197588D03*
D14*
X77618870Y-72773324D02*
X76770342Y-73621852D01*
D13*
X77548159Y-73551142D03*
D14*
X77972423Y-73126878D02*
X77123895Y-73975406D01*
D10*
G36*
X63477624Y-64059912D02*
G01*
X63551213Y-64113378D01*
X63596694Y-64192153D01*
X63607400Y-64259750D01*
X63607400Y-64772250D01*
X63588488Y-64861224D01*
X63535022Y-64934813D01*
X63456247Y-64980294D01*
X63388650Y-64991000D01*
X62951150Y-64991000D01*
X62862176Y-64972088D01*
X62788587Y-64918622D01*
X62743106Y-64839847D01*
X62732400Y-64772250D01*
X62732400Y-64259750D01*
X62751312Y-64170776D01*
X62804778Y-64097187D01*
X62883553Y-64051706D01*
X62951150Y-64041000D01*
X63388650Y-64041000D01*
X63477624Y-64059912D01*
X63477624Y-64059912D01*
G37*
D15*
X63169900Y-64516000D03*
D10*
G36*
X61902624Y-64059912D02*
G01*
X61976213Y-64113378D01*
X62021694Y-64192153D01*
X62032400Y-64259750D01*
X62032400Y-64772250D01*
X62013488Y-64861224D01*
X61960022Y-64934813D01*
X61881247Y-64980294D01*
X61813650Y-64991000D01*
X61376150Y-64991000D01*
X61287176Y-64972088D01*
X61213587Y-64918622D01*
X61168106Y-64839847D01*
X61157400Y-64772250D01*
X61157400Y-64259750D01*
X61176312Y-64170776D01*
X61229778Y-64097187D01*
X61308553Y-64051706D01*
X61376150Y-64041000D01*
X61813650Y-64041000D01*
X61902624Y-64059912D01*
X61902624Y-64059912D01*
G37*
D15*
X61594900Y-64516000D03*
D10*
G36*
X83032014Y-71533766D02*
G01*
X83105603Y-71587232D01*
X83151084Y-71666007D01*
X83161790Y-71733604D01*
X83161790Y-72246104D01*
X83142878Y-72335078D01*
X83089412Y-72408667D01*
X83010637Y-72454148D01*
X82943040Y-72464854D01*
X82505540Y-72464854D01*
X82416566Y-72445942D01*
X82342977Y-72392476D01*
X82297496Y-72313701D01*
X82286790Y-72246104D01*
X82286790Y-71733604D01*
X82305702Y-71644630D01*
X82359168Y-71571041D01*
X82437943Y-71525560D01*
X82505540Y-71514854D01*
X82943040Y-71514854D01*
X83032014Y-71533766D01*
X83032014Y-71533766D01*
G37*
D15*
X82724290Y-71989854D03*
D10*
G36*
X81457014Y-71533766D02*
G01*
X81530603Y-71587232D01*
X81576084Y-71666007D01*
X81586790Y-71733604D01*
X81586790Y-72246104D01*
X81567878Y-72335078D01*
X81514412Y-72408667D01*
X81435637Y-72454148D01*
X81368040Y-72464854D01*
X80930540Y-72464854D01*
X80841566Y-72445942D01*
X80767977Y-72392476D01*
X80722496Y-72313701D01*
X80711790Y-72246104D01*
X80711790Y-71733604D01*
X80730702Y-71644630D01*
X80784168Y-71571041D01*
X80862943Y-71525560D01*
X80930540Y-71514854D01*
X81368040Y-71514854D01*
X81457014Y-71533766D01*
X81457014Y-71533766D01*
G37*
D15*
X81149290Y-71989854D03*
D10*
G36*
X83032014Y-68300874D02*
G01*
X83105603Y-68354340D01*
X83151084Y-68433115D01*
X83161790Y-68500712D01*
X83161790Y-69013212D01*
X83142878Y-69102186D01*
X83089412Y-69175775D01*
X83010637Y-69221256D01*
X82943040Y-69231962D01*
X82505540Y-69231962D01*
X82416566Y-69213050D01*
X82342977Y-69159584D01*
X82297496Y-69080809D01*
X82286790Y-69013212D01*
X82286790Y-68500712D01*
X82305702Y-68411738D01*
X82359168Y-68338149D01*
X82437943Y-68292668D01*
X82505540Y-68281962D01*
X82943040Y-68281962D01*
X83032014Y-68300874D01*
X83032014Y-68300874D01*
G37*
D15*
X82724290Y-68756962D03*
D10*
G36*
X81457014Y-68300874D02*
G01*
X81530603Y-68354340D01*
X81576084Y-68433115D01*
X81586790Y-68500712D01*
X81586790Y-69013212D01*
X81567878Y-69102186D01*
X81514412Y-69175775D01*
X81435637Y-69221256D01*
X81368040Y-69231962D01*
X80930540Y-69231962D01*
X80841566Y-69213050D01*
X80767977Y-69159584D01*
X80722496Y-69080809D01*
X80711790Y-69013212D01*
X80711790Y-68500712D01*
X80730702Y-68411738D01*
X80784168Y-68338149D01*
X80862943Y-68292668D01*
X80930540Y-68281962D01*
X81368040Y-68281962D01*
X81457014Y-68300874D01*
X81457014Y-68300874D01*
G37*
D15*
X81149290Y-68756962D03*
D10*
G36*
X66576424Y-63043912D02*
G01*
X66650013Y-63097378D01*
X66695494Y-63176153D01*
X66706200Y-63243750D01*
X66706200Y-63756250D01*
X66687288Y-63845224D01*
X66633822Y-63918813D01*
X66555047Y-63964294D01*
X66487450Y-63975000D01*
X66049950Y-63975000D01*
X65960976Y-63956088D01*
X65887387Y-63902622D01*
X65841906Y-63823847D01*
X65831200Y-63756250D01*
X65831200Y-63243750D01*
X65850112Y-63154776D01*
X65903578Y-63081187D01*
X65982353Y-63035706D01*
X66049950Y-63025000D01*
X66487450Y-63025000D01*
X66576424Y-63043912D01*
X66576424Y-63043912D01*
G37*
D15*
X66268700Y-63500000D03*
D10*
G36*
X65001424Y-63043912D02*
G01*
X65075013Y-63097378D01*
X65120494Y-63176153D01*
X65131200Y-63243750D01*
X65131200Y-63756250D01*
X65112288Y-63845224D01*
X65058822Y-63918813D01*
X64980047Y-63964294D01*
X64912450Y-63975000D01*
X64474950Y-63975000D01*
X64385976Y-63956088D01*
X64312387Y-63902622D01*
X64266906Y-63823847D01*
X64256200Y-63756250D01*
X64256200Y-63243750D01*
X64275112Y-63154776D01*
X64328578Y-63081187D01*
X64407353Y-63035706D01*
X64474950Y-63025000D01*
X64912450Y-63025000D01*
X65001424Y-63043912D01*
X65001424Y-63043912D01*
G37*
D15*
X64693700Y-63500000D03*
D10*
G36*
X83032014Y-69917320D02*
G01*
X83105603Y-69970786D01*
X83151084Y-70049561D01*
X83161790Y-70117158D01*
X83161790Y-70629658D01*
X83142878Y-70718632D01*
X83089412Y-70792221D01*
X83010637Y-70837702D01*
X82943040Y-70848408D01*
X82505540Y-70848408D01*
X82416566Y-70829496D01*
X82342977Y-70776030D01*
X82297496Y-70697255D01*
X82286790Y-70629658D01*
X82286790Y-70117158D01*
X82305702Y-70028184D01*
X82359168Y-69954595D01*
X82437943Y-69909114D01*
X82505540Y-69898408D01*
X82943040Y-69898408D01*
X83032014Y-69917320D01*
X83032014Y-69917320D01*
G37*
D15*
X82724290Y-70373408D03*
D10*
G36*
X81457014Y-69917320D02*
G01*
X81530603Y-69970786D01*
X81576084Y-70049561D01*
X81586790Y-70117158D01*
X81586790Y-70629658D01*
X81567878Y-70718632D01*
X81514412Y-70792221D01*
X81435637Y-70837702D01*
X81368040Y-70848408D01*
X80930540Y-70848408D01*
X80841566Y-70829496D01*
X80767977Y-70776030D01*
X80722496Y-70697255D01*
X80711790Y-70629658D01*
X80711790Y-70117158D01*
X80730702Y-70028184D01*
X80784168Y-69954595D01*
X80862943Y-69909114D01*
X80930540Y-69898408D01*
X81368040Y-69898408D01*
X81457014Y-69917320D01*
X81457014Y-69917320D01*
G37*
D15*
X81149290Y-70373408D03*
D10*
G36*
X77787801Y-64321289D02*
G01*
X77843171Y-64361517D01*
X78205564Y-64723910D01*
X78255105Y-64800197D01*
X78269334Y-64890038D01*
X78245792Y-64977900D01*
X78205564Y-65033270D01*
X77896205Y-65342629D01*
X77819918Y-65392170D01*
X77730077Y-65406399D01*
X77642215Y-65382857D01*
X77586845Y-65342629D01*
X77224452Y-64980236D01*
X77174911Y-64903949D01*
X77160682Y-64814108D01*
X77184224Y-64726246D01*
X77224452Y-64670876D01*
X77533811Y-64361517D01*
X77610098Y-64311976D01*
X77699939Y-64297747D01*
X77787801Y-64321289D01*
X77787801Y-64321289D01*
G37*
D15*
X77715008Y-64852073D03*
D10*
G36*
X76674107Y-65434983D02*
G01*
X76729477Y-65475211D01*
X77091870Y-65837604D01*
X77141411Y-65913891D01*
X77155640Y-66003732D01*
X77132098Y-66091594D01*
X77091870Y-66146964D01*
X76782511Y-66456323D01*
X76706224Y-66505864D01*
X76616383Y-66520093D01*
X76528521Y-66496551D01*
X76473151Y-66456323D01*
X76110758Y-66093930D01*
X76061217Y-66017643D01*
X76046988Y-65927802D01*
X76070530Y-65839940D01*
X76110758Y-65784570D01*
X76420117Y-65475211D01*
X76496404Y-65425670D01*
X76586245Y-65411441D01*
X76674107Y-65434983D01*
X76674107Y-65434983D01*
G37*
D15*
X76601314Y-65965767D03*
D10*
G36*
X62063446Y-78512063D02*
G01*
X62118816Y-78552291D01*
X62481209Y-78914684D01*
X62530750Y-78990971D01*
X62544979Y-79080812D01*
X62521437Y-79168674D01*
X62481209Y-79224044D01*
X62171850Y-79533403D01*
X62095563Y-79582944D01*
X62005722Y-79597173D01*
X61917860Y-79573631D01*
X61862490Y-79533403D01*
X61500097Y-79171010D01*
X61450556Y-79094723D01*
X61436327Y-79004882D01*
X61459869Y-78917020D01*
X61500097Y-78861650D01*
X61809456Y-78552291D01*
X61885743Y-78502750D01*
X61975584Y-78488521D01*
X62063446Y-78512063D01*
X62063446Y-78512063D01*
G37*
D15*
X61990653Y-79042847D03*
D10*
G36*
X63177140Y-77398369D02*
G01*
X63232510Y-77438597D01*
X63594903Y-77800990D01*
X63644444Y-77877277D01*
X63658673Y-77967118D01*
X63635131Y-78054980D01*
X63594903Y-78110350D01*
X63285544Y-78419709D01*
X63209257Y-78469250D01*
X63119416Y-78483479D01*
X63031554Y-78459937D01*
X62976184Y-78419709D01*
X62613791Y-78057316D01*
X62564250Y-77981029D01*
X62550021Y-77891188D01*
X62573563Y-77803326D01*
X62613791Y-77747956D01*
X62923150Y-77438597D01*
X62999437Y-77389056D01*
X63089278Y-77374827D01*
X63177140Y-77398369D01*
X63177140Y-77398369D01*
G37*
D15*
X63104347Y-77929153D03*
D10*
G36*
X60920446Y-77369063D02*
G01*
X60975816Y-77409291D01*
X61338209Y-77771684D01*
X61387750Y-77847971D01*
X61401979Y-77937812D01*
X61378437Y-78025674D01*
X61338209Y-78081044D01*
X61028850Y-78390403D01*
X60952563Y-78439944D01*
X60862722Y-78454173D01*
X60774860Y-78430631D01*
X60719490Y-78390403D01*
X60357097Y-78028010D01*
X60307556Y-77951723D01*
X60293327Y-77861882D01*
X60316869Y-77774020D01*
X60357097Y-77718650D01*
X60666456Y-77409291D01*
X60742743Y-77359750D01*
X60832584Y-77345521D01*
X60920446Y-77369063D01*
X60920446Y-77369063D01*
G37*
D15*
X60847653Y-77899847D03*
D10*
G36*
X62034140Y-76255369D02*
G01*
X62089510Y-76295597D01*
X62451903Y-76657990D01*
X62501444Y-76734277D01*
X62515673Y-76824118D01*
X62492131Y-76911980D01*
X62451903Y-76967350D01*
X62142544Y-77276709D01*
X62066257Y-77326250D01*
X61976416Y-77340479D01*
X61888554Y-77316937D01*
X61833184Y-77276709D01*
X61470791Y-76914316D01*
X61421250Y-76838029D01*
X61407021Y-76748188D01*
X61430563Y-76660326D01*
X61470791Y-76604956D01*
X61780150Y-76295597D01*
X61856437Y-76246056D01*
X61946278Y-76231827D01*
X62034140Y-76255369D01*
X62034140Y-76255369D01*
G37*
D15*
X61961347Y-76786153D03*
D10*
G36*
X72355046Y-64569925D02*
G01*
X72428635Y-64623391D01*
X72474116Y-64702166D01*
X72484822Y-64769763D01*
X72484822Y-65207263D01*
X72465910Y-65296237D01*
X72412444Y-65369826D01*
X72333669Y-65415307D01*
X72266072Y-65426013D01*
X71753572Y-65426013D01*
X71664598Y-65407101D01*
X71591009Y-65353635D01*
X71545528Y-65274860D01*
X71534822Y-65207263D01*
X71534822Y-64769763D01*
X71553734Y-64680789D01*
X71607200Y-64607200D01*
X71685975Y-64561719D01*
X71753572Y-64551013D01*
X72266072Y-64551013D01*
X72355046Y-64569925D01*
X72355046Y-64569925D01*
G37*
D15*
X72009822Y-64988513D03*
D10*
G36*
X72355046Y-62994925D02*
G01*
X72428635Y-63048391D01*
X72474116Y-63127166D01*
X72484822Y-63194763D01*
X72484822Y-63632263D01*
X72465910Y-63721237D01*
X72412444Y-63794826D01*
X72333669Y-63840307D01*
X72266072Y-63851013D01*
X71753572Y-63851013D01*
X71664598Y-63832101D01*
X71591009Y-63778635D01*
X71545528Y-63699860D01*
X71534822Y-63632263D01*
X71534822Y-63194763D01*
X71553734Y-63105789D01*
X71607200Y-63032200D01*
X71685975Y-62986719D01*
X71753572Y-62976013D01*
X72266072Y-62976013D01*
X72355046Y-62994925D01*
X72355046Y-62994925D01*
G37*
D15*
X72009822Y-63413513D03*
D10*
G36*
X73980390Y-64578269D02*
G01*
X74053979Y-64631735D01*
X74099460Y-64710510D01*
X74110166Y-64778107D01*
X74110166Y-65215607D01*
X74091254Y-65304581D01*
X74037788Y-65378170D01*
X73959013Y-65423651D01*
X73891416Y-65434357D01*
X73378916Y-65434357D01*
X73289942Y-65415445D01*
X73216353Y-65361979D01*
X73170872Y-65283204D01*
X73160166Y-65215607D01*
X73160166Y-64778107D01*
X73179078Y-64689133D01*
X73232544Y-64615544D01*
X73311319Y-64570063D01*
X73378916Y-64559357D01*
X73891416Y-64559357D01*
X73980390Y-64578269D01*
X73980390Y-64578269D01*
G37*
D15*
X73635166Y-64996857D03*
D10*
G36*
X73980390Y-63003269D02*
G01*
X74053979Y-63056735D01*
X74099460Y-63135510D01*
X74110166Y-63203107D01*
X74110166Y-63640607D01*
X74091254Y-63729581D01*
X74037788Y-63803170D01*
X73959013Y-63848651D01*
X73891416Y-63859357D01*
X73378916Y-63859357D01*
X73289942Y-63840445D01*
X73216353Y-63786979D01*
X73170872Y-63708204D01*
X73160166Y-63640607D01*
X73160166Y-63203107D01*
X73179078Y-63114133D01*
X73232544Y-63040544D01*
X73311319Y-62995063D01*
X73378916Y-62984357D01*
X73891416Y-62984357D01*
X73980390Y-63003269D01*
X73980390Y-63003269D01*
G37*
D15*
X73635166Y-63421857D03*
D10*
G36*
X75532292Y-64298455D02*
G01*
X75587662Y-64338683D01*
X75950055Y-64701076D01*
X75999596Y-64777363D01*
X76013825Y-64867204D01*
X75990283Y-64955066D01*
X75950055Y-65010436D01*
X75640696Y-65319795D01*
X75564409Y-65369336D01*
X75474568Y-65383565D01*
X75386706Y-65360023D01*
X75331336Y-65319795D01*
X74968943Y-64957402D01*
X74919402Y-64881115D01*
X74905173Y-64791274D01*
X74928715Y-64703412D01*
X74968943Y-64648042D01*
X75278302Y-64338683D01*
X75354589Y-64289142D01*
X75444430Y-64274913D01*
X75532292Y-64298455D01*
X75532292Y-64298455D01*
G37*
D15*
X75459499Y-64829239D03*
D10*
G36*
X76645986Y-63184761D02*
G01*
X76701356Y-63224989D01*
X77063749Y-63587382D01*
X77113290Y-63663669D01*
X77127519Y-63753510D01*
X77103977Y-63841372D01*
X77063749Y-63896742D01*
X76754390Y-64206101D01*
X76678103Y-64255642D01*
X76588262Y-64269871D01*
X76500400Y-64246329D01*
X76445030Y-64206101D01*
X76082637Y-63843708D01*
X76033096Y-63767421D01*
X76018867Y-63677580D01*
X76042409Y-63589718D01*
X76082637Y-63534348D01*
X76391996Y-63224989D01*
X76468283Y-63175448D01*
X76558124Y-63161219D01*
X76645986Y-63184761D01*
X76645986Y-63184761D01*
G37*
D15*
X76573193Y-63715545D03*
D10*
G36*
X77791707Y-66552583D02*
G01*
X77847077Y-66592811D01*
X78209470Y-66955204D01*
X78259011Y-67031491D01*
X78273240Y-67121332D01*
X78249698Y-67209194D01*
X78209470Y-67264564D01*
X77900111Y-67573923D01*
X77823824Y-67623464D01*
X77733983Y-67637693D01*
X77646121Y-67614151D01*
X77590751Y-67573923D01*
X77228358Y-67211530D01*
X77178817Y-67135243D01*
X77164588Y-67045402D01*
X77188130Y-66957540D01*
X77228358Y-66902170D01*
X77537717Y-66592811D01*
X77614004Y-66543270D01*
X77703845Y-66529041D01*
X77791707Y-66552583D01*
X77791707Y-66552583D01*
G37*
D15*
X77718914Y-67083367D03*
D10*
G36*
X78905401Y-65438889D02*
G01*
X78960771Y-65479117D01*
X79323164Y-65841510D01*
X79372705Y-65917797D01*
X79386934Y-66007638D01*
X79363392Y-66095500D01*
X79323164Y-66150870D01*
X79013805Y-66460229D01*
X78937518Y-66509770D01*
X78847677Y-66523999D01*
X78759815Y-66500457D01*
X78704445Y-66460229D01*
X78342052Y-66097836D01*
X78292511Y-66021549D01*
X78278282Y-65931708D01*
X78301824Y-65843846D01*
X78342052Y-65788476D01*
X78651411Y-65479117D01*
X78727698Y-65429576D01*
X78817539Y-65415347D01*
X78905401Y-65438889D01*
X78905401Y-65438889D01*
G37*
D15*
X78832608Y-65969673D03*
D10*
G36*
X78909307Y-67670183D02*
G01*
X78964677Y-67710411D01*
X79327070Y-68072804D01*
X79376611Y-68149091D01*
X79390840Y-68238932D01*
X79367298Y-68326794D01*
X79327070Y-68382164D01*
X79017711Y-68691523D01*
X78941424Y-68741064D01*
X78851583Y-68755293D01*
X78763721Y-68731751D01*
X78708351Y-68691523D01*
X78345958Y-68329130D01*
X78296417Y-68252843D01*
X78282188Y-68163002D01*
X78305730Y-68075140D01*
X78345958Y-68019770D01*
X78655317Y-67710411D01*
X78731604Y-67660870D01*
X78821445Y-67646641D01*
X78909307Y-67670183D01*
X78909307Y-67670183D01*
G37*
D15*
X78836514Y-68200967D03*
D10*
G36*
X80023001Y-66556489D02*
G01*
X80078371Y-66596717D01*
X80440764Y-66959110D01*
X80490305Y-67035397D01*
X80504534Y-67125238D01*
X80480992Y-67213100D01*
X80440764Y-67268470D01*
X80131405Y-67577829D01*
X80055118Y-67627370D01*
X79965277Y-67641599D01*
X79877415Y-67618057D01*
X79822045Y-67577829D01*
X79459652Y-67215436D01*
X79410111Y-67139149D01*
X79395882Y-67049308D01*
X79419424Y-66961446D01*
X79459652Y-66906076D01*
X79769011Y-66596717D01*
X79845298Y-66547176D01*
X79935139Y-66532947D01*
X80023001Y-66556489D01*
X80023001Y-66556489D01*
G37*
D15*
X79950208Y-67087273D03*
D10*
G36*
X68511140Y-65904869D02*
G01*
X68566510Y-65945097D01*
X68928903Y-66307490D01*
X68978444Y-66383777D01*
X68992673Y-66473618D01*
X68969131Y-66561480D01*
X68928903Y-66616850D01*
X68619544Y-66926209D01*
X68543257Y-66975750D01*
X68453416Y-66989979D01*
X68365554Y-66966437D01*
X68310184Y-66926209D01*
X67947791Y-66563816D01*
X67898250Y-66487529D01*
X67884021Y-66397688D01*
X67907563Y-66309826D01*
X67947791Y-66254456D01*
X68257150Y-65945097D01*
X68333437Y-65895556D01*
X68423278Y-65881327D01*
X68511140Y-65904869D01*
X68511140Y-65904869D01*
G37*
D15*
X68438347Y-66435653D03*
D10*
G36*
X67397446Y-67018563D02*
G01*
X67452816Y-67058791D01*
X67815209Y-67421184D01*
X67864750Y-67497471D01*
X67878979Y-67587312D01*
X67855437Y-67675174D01*
X67815209Y-67730544D01*
X67505850Y-68039903D01*
X67429563Y-68089444D01*
X67339722Y-68103673D01*
X67251860Y-68080131D01*
X67196490Y-68039903D01*
X66834097Y-67677510D01*
X66784556Y-67601223D01*
X66770327Y-67511382D01*
X66793869Y-67423520D01*
X66834097Y-67368150D01*
X67143456Y-67058791D01*
X67219743Y-67009250D01*
X67309584Y-66995021D01*
X67397446Y-67018563D01*
X67397446Y-67018563D01*
G37*
D15*
X67324653Y-67549347D03*
D10*
G36*
X95385445Y-66917372D02*
G01*
X95466551Y-66971565D01*
X96350435Y-67855449D01*
X96404628Y-67936555D01*
X96423658Y-68032226D01*
X96404628Y-68127897D01*
X96350435Y-68209003D01*
X95820105Y-68739333D01*
X95738999Y-68793526D01*
X95643328Y-68812556D01*
X95547657Y-68793526D01*
X95466551Y-68739333D01*
X94582667Y-67855449D01*
X94528474Y-67774343D01*
X94509444Y-67678672D01*
X94528474Y-67583001D01*
X94582667Y-67501895D01*
X95112997Y-66971565D01*
X95194103Y-66917372D01*
X95289774Y-66898342D01*
X95385445Y-66917372D01*
X95385445Y-66917372D01*
G37*
D16*
X95466551Y-67855449D03*
D10*
G36*
X97365343Y-64937474D02*
G01*
X97446449Y-64991667D01*
X98330333Y-65875551D01*
X98384526Y-65956657D01*
X98403556Y-66052328D01*
X98384526Y-66147999D01*
X98330333Y-66229105D01*
X97800003Y-66759435D01*
X97718897Y-66813628D01*
X97623226Y-66832658D01*
X97527555Y-66813628D01*
X97446449Y-66759435D01*
X96562565Y-65875551D01*
X96508372Y-65794445D01*
X96489342Y-65698774D01*
X96508372Y-65603103D01*
X96562565Y-65521997D01*
X97092895Y-64991667D01*
X97174001Y-64937474D01*
X97269672Y-64918444D01*
X97365343Y-64937474D01*
X97365343Y-64937474D01*
G37*
D16*
X97446449Y-65875551D03*
D13*
X95317008Y-56858281D03*
D14*
X94892744Y-56434017D02*
X95741272Y-57282545D01*
D13*
X95670561Y-56504727D03*
D14*
X95246297Y-56080463D02*
X96094825Y-56928991D01*
D13*
X96024115Y-56151174D03*
D14*
X95599851Y-55726910D02*
X96448379Y-56575438D01*
D13*
X96377668Y-55797621D03*
D14*
X95953404Y-55373357D02*
X96801932Y-56221885D01*
D13*
X96731221Y-55444067D03*
D14*
X96306957Y-55019803D02*
X97155485Y-55868331D01*
D13*
X97084775Y-55090514D03*
D14*
X96660511Y-54666250D02*
X97509039Y-55514778D01*
D13*
X97438328Y-54736960D03*
D14*
X97014064Y-54312696D02*
X97862592Y-55161224D01*
D13*
X97791882Y-54383407D03*
D14*
X97367618Y-53959143D02*
X98216146Y-54807671D01*
D13*
X98145435Y-54029854D03*
D14*
X97721171Y-53605590D02*
X98569699Y-54454118D01*
D13*
X98498988Y-53676300D03*
D14*
X98074724Y-53252036D02*
X98923252Y-54100564D01*
D13*
X98852542Y-53322747D03*
D14*
X98428278Y-52898483D02*
X99276806Y-53747011D01*
D13*
X99206095Y-52969193D03*
D14*
X98781831Y-52544929D02*
X99630359Y-53393457D01*
D13*
X99559649Y-52615640D03*
D14*
X99135385Y-52191376D02*
X99983913Y-53039904D01*
D13*
X99913202Y-52262087D03*
D14*
X99488938Y-51837823D02*
X100337466Y-52686351D01*
D13*
X100266755Y-51908533D03*
D14*
X99842491Y-51484269D02*
X100691019Y-52332797D01*
D13*
X100620309Y-51554980D03*
D14*
X100196045Y-51130716D02*
X101044573Y-51979244D01*
D13*
X103378025Y-51554980D03*
D14*
X102953761Y-51979244D02*
X103802289Y-51130716D01*
D13*
X103731579Y-51908533D03*
D14*
X103307315Y-52332797D02*
X104155843Y-51484269D01*
D13*
X104085132Y-52262087D03*
D14*
X103660868Y-52686351D02*
X104509396Y-51837823D01*
D13*
X104438685Y-52615640D03*
D14*
X104014421Y-53039904D02*
X104862949Y-52191376D01*
D13*
X104792239Y-52969193D03*
D14*
X104367975Y-53393457D02*
X105216503Y-52544929D01*
D13*
X105145792Y-53322747D03*
D14*
X104721528Y-53747011D02*
X105570056Y-52898483D01*
D13*
X105499346Y-53676300D03*
D14*
X105075082Y-54100564D02*
X105923610Y-53252036D01*
D13*
X105852899Y-54029854D03*
D14*
X105428635Y-54454118D02*
X106277163Y-53605590D01*
D13*
X106206452Y-54383407D03*
D14*
X105782188Y-54807671D02*
X106630716Y-53959143D01*
D13*
X106560006Y-54736960D03*
D14*
X106135742Y-55161224D02*
X106984270Y-54312696D01*
D13*
X106913559Y-55090514D03*
D14*
X106489295Y-55514778D02*
X107337823Y-54666250D01*
D13*
X107267113Y-55444067D03*
D14*
X106842849Y-55868331D02*
X107691377Y-55019803D01*
D13*
X107620666Y-55797621D03*
D14*
X107196402Y-56221885D02*
X108044930Y-55373357D01*
D13*
X107974219Y-56151174D03*
D14*
X107549955Y-56575438D02*
X108398483Y-55726910D01*
D13*
X108327773Y-56504727D03*
D14*
X107903509Y-56928991D02*
X108752037Y-56080463D01*
D13*
X108681326Y-56858281D03*
D14*
X108257062Y-57282545D02*
X109105590Y-56434017D01*
D13*
X108681326Y-59615997D03*
D14*
X108257062Y-59191733D02*
X109105590Y-60040261D01*
D13*
X108327773Y-59969551D03*
D14*
X107903509Y-59545287D02*
X108752037Y-60393815D01*
D13*
X107974219Y-60323104D03*
D14*
X107549955Y-59898840D02*
X108398483Y-60747368D01*
D13*
X107620666Y-60676657D03*
D14*
X107196402Y-60252393D02*
X108044930Y-61100921D01*
D13*
X107267113Y-61030211D03*
D14*
X106842849Y-60605947D02*
X107691377Y-61454475D01*
D13*
X106913559Y-61383764D03*
D14*
X106489295Y-60959500D02*
X107337823Y-61808028D01*
D13*
X106560006Y-61737318D03*
D14*
X106135742Y-61313054D02*
X106984270Y-62161582D01*
D13*
X106206452Y-62090871D03*
D14*
X105782188Y-61666607D02*
X106630716Y-62515135D01*
D13*
X105852899Y-62444424D03*
D14*
X105428635Y-62020160D02*
X106277163Y-62868688D01*
D13*
X105499346Y-62797978D03*
D14*
X105075082Y-62373714D02*
X105923610Y-63222242D01*
D13*
X105145792Y-63151531D03*
D14*
X104721528Y-62727267D02*
X105570056Y-63575795D01*
D13*
X104792239Y-63505085D03*
D14*
X104367975Y-63080821D02*
X105216503Y-63929349D01*
D13*
X104438685Y-63858638D03*
D14*
X104014421Y-63434374D02*
X104862949Y-64282902D01*
D13*
X104085132Y-64212191D03*
D14*
X103660868Y-63787927D02*
X104509396Y-64636455D01*
D13*
X103731579Y-64565745D03*
D14*
X103307315Y-64141481D02*
X104155843Y-64990009D01*
D13*
X103378025Y-64919298D03*
D14*
X102953761Y-64495034D02*
X103802289Y-65343562D01*
D13*
X100620309Y-64919298D03*
D14*
X100196045Y-65343562D02*
X101044573Y-64495034D01*
D13*
X100266755Y-64565745D03*
D14*
X99842491Y-64990009D02*
X100691019Y-64141481D01*
D13*
X99913202Y-64212191D03*
D14*
X99488938Y-64636455D02*
X100337466Y-63787927D01*
D13*
X99559649Y-63858638D03*
D14*
X99135385Y-64282902D02*
X99983913Y-63434374D01*
D13*
X99206095Y-63505085D03*
D14*
X98781831Y-63929349D02*
X99630359Y-63080821D01*
D13*
X98852542Y-63151531D03*
D14*
X98428278Y-63575795D02*
X99276806Y-62727267D01*
D13*
X98498988Y-62797978D03*
D14*
X98074724Y-63222242D02*
X98923252Y-62373714D01*
D13*
X98145435Y-62444424D03*
D14*
X97721171Y-62868688D02*
X98569699Y-62020160D01*
D13*
X97791882Y-62090871D03*
D14*
X97367618Y-62515135D02*
X98216146Y-61666607D01*
D13*
X97438328Y-61737318D03*
D14*
X97014064Y-62161582D02*
X97862592Y-61313054D01*
D13*
X97084775Y-61383764D03*
D14*
X96660511Y-61808028D02*
X97509039Y-60959500D01*
D13*
X96731221Y-61030211D03*
D14*
X96306957Y-61454475D02*
X97155485Y-60605947D01*
D13*
X96377668Y-60676657D03*
D14*
X95953404Y-61100921D02*
X96801932Y-60252393D01*
D13*
X96024115Y-60323104D03*
D14*
X95599851Y-60747368D02*
X96448379Y-59898840D01*
D13*
X95670561Y-59969551D03*
D14*
X95246297Y-60393815D02*
X96094825Y-59545287D01*
D13*
X95317008Y-59615997D03*
D14*
X94892744Y-60040261D02*
X95741272Y-59191733D01*
D17*
X98794099Y-89742600D03*
X103394099Y-89742600D03*
X101094099Y-89742600D03*
D18*
X101094099Y-83442600D03*
D10*
G36*
X104233271Y-77363130D02*
G01*
X104314377Y-77417323D01*
X104368570Y-77498429D01*
X104387600Y-77594100D01*
X104387600Y-78519100D01*
X104368570Y-78614771D01*
X104314377Y-78695877D01*
X104233271Y-78750070D01*
X104137600Y-78769100D01*
X101987600Y-78769100D01*
X101891929Y-78750070D01*
X101810823Y-78695877D01*
X101756630Y-78614771D01*
X101737600Y-78519100D01*
X101737600Y-77594100D01*
X101756630Y-77498429D01*
X101810823Y-77417323D01*
X101891929Y-77363130D01*
X101987600Y-77344100D01*
X104137600Y-77344100D01*
X104233271Y-77363130D01*
X104233271Y-77363130D01*
G37*
D19*
X103062600Y-78056600D03*
D10*
G36*
X104233271Y-80338130D02*
G01*
X104314377Y-80392323D01*
X104368570Y-80473429D01*
X104387600Y-80569100D01*
X104387600Y-81494100D01*
X104368570Y-81589771D01*
X104314377Y-81670877D01*
X104233271Y-81725070D01*
X104137600Y-81744100D01*
X101987600Y-81744100D01*
X101891929Y-81725070D01*
X101810823Y-81670877D01*
X101756630Y-81589771D01*
X101737600Y-81494100D01*
X101737600Y-80569100D01*
X101756630Y-80473429D01*
X101810823Y-80392323D01*
X101891929Y-80338130D01*
X101987600Y-80319100D01*
X104137600Y-80319100D01*
X104233271Y-80338130D01*
X104233271Y-80338130D01*
G37*
D19*
X103062600Y-81031600D03*
D10*
G36*
X100804271Y-77363130D02*
G01*
X100885377Y-77417323D01*
X100939570Y-77498429D01*
X100958600Y-77594100D01*
X100958600Y-78519100D01*
X100939570Y-78614771D01*
X100885377Y-78695877D01*
X100804271Y-78750070D01*
X100708600Y-78769100D01*
X98558600Y-78769100D01*
X98462929Y-78750070D01*
X98381823Y-78695877D01*
X98327630Y-78614771D01*
X98308600Y-78519100D01*
X98308600Y-77594100D01*
X98327630Y-77498429D01*
X98381823Y-77417323D01*
X98462929Y-77363130D01*
X98558600Y-77344100D01*
X100708600Y-77344100D01*
X100804271Y-77363130D01*
X100804271Y-77363130D01*
G37*
D19*
X99633600Y-78056600D03*
D10*
G36*
X100804271Y-80338130D02*
G01*
X100885377Y-80392323D01*
X100939570Y-80473429D01*
X100958600Y-80569100D01*
X100958600Y-81494100D01*
X100939570Y-81589771D01*
X100885377Y-81670877D01*
X100804271Y-81725070D01*
X100708600Y-81744100D01*
X98558600Y-81744100D01*
X98462929Y-81725070D01*
X98381823Y-81670877D01*
X98327630Y-81589771D01*
X98308600Y-81494100D01*
X98308600Y-80569100D01*
X98327630Y-80473429D01*
X98381823Y-80392323D01*
X98462929Y-80338130D01*
X98558600Y-80319100D01*
X100708600Y-80319100D01*
X100804271Y-80338130D01*
X100804271Y-80338130D01*
G37*
D19*
X99633600Y-81031600D03*
D10*
G36*
X93878271Y-85540630D02*
G01*
X93959377Y-85594823D01*
X94013570Y-85675929D01*
X94032600Y-85771600D01*
X94032600Y-87921600D01*
X94013570Y-88017271D01*
X93959377Y-88098377D01*
X93878271Y-88152570D01*
X93782600Y-88171600D01*
X92857600Y-88171600D01*
X92761929Y-88152570D01*
X92680823Y-88098377D01*
X92626630Y-88017271D01*
X92607600Y-87921600D01*
X92607600Y-85771600D01*
X92626630Y-85675929D01*
X92680823Y-85594823D01*
X92761929Y-85540630D01*
X92857600Y-85521600D01*
X93782600Y-85521600D01*
X93878271Y-85540630D01*
X93878271Y-85540630D01*
G37*
D19*
X93320100Y-86846600D03*
D10*
G36*
X96853271Y-85540630D02*
G01*
X96934377Y-85594823D01*
X96988570Y-85675929D01*
X97007600Y-85771600D01*
X97007600Y-87921600D01*
X96988570Y-88017271D01*
X96934377Y-88098377D01*
X96853271Y-88152570D01*
X96757600Y-88171600D01*
X95832600Y-88171600D01*
X95736929Y-88152570D01*
X95655823Y-88098377D01*
X95601630Y-88017271D01*
X95582600Y-87921600D01*
X95582600Y-85771600D01*
X95601630Y-85675929D01*
X95655823Y-85594823D01*
X95736929Y-85540630D01*
X95832600Y-85521600D01*
X96757600Y-85521600D01*
X96853271Y-85540630D01*
X96853271Y-85540630D01*
G37*
D19*
X96295100Y-86846600D03*
D10*
G36*
X115282271Y-85697530D02*
G01*
X115363377Y-85751723D01*
X115417570Y-85832829D01*
X115436600Y-85928500D01*
X115436600Y-86853500D01*
X115417570Y-86949171D01*
X115363377Y-87030277D01*
X115282271Y-87084470D01*
X115186600Y-87103500D01*
X113036600Y-87103500D01*
X112940929Y-87084470D01*
X112859823Y-87030277D01*
X112805630Y-86949171D01*
X112786600Y-86853500D01*
X112786600Y-85928500D01*
X112805630Y-85832829D01*
X112859823Y-85751723D01*
X112940929Y-85697530D01*
X113036600Y-85678500D01*
X115186600Y-85678500D01*
X115282271Y-85697530D01*
X115282271Y-85697530D01*
G37*
D19*
X114111600Y-86391000D03*
D10*
G36*
X115282271Y-82722530D02*
G01*
X115363377Y-82776723D01*
X115417570Y-82857829D01*
X115436600Y-82953500D01*
X115436600Y-83878500D01*
X115417570Y-83974171D01*
X115363377Y-84055277D01*
X115282271Y-84109470D01*
X115186600Y-84128500D01*
X113036600Y-84128500D01*
X112940929Y-84109470D01*
X112859823Y-84055277D01*
X112805630Y-83974171D01*
X112786600Y-83878500D01*
X112786600Y-82953500D01*
X112805630Y-82857829D01*
X112859823Y-82776723D01*
X112940929Y-82722530D01*
X113036600Y-82703500D01*
X115186600Y-82703500D01*
X115282271Y-82722530D01*
X115282271Y-82722530D01*
G37*
D19*
X114111600Y-83416000D03*
D10*
G36*
X107708491Y-77404673D02*
G01*
X107790491Y-77464249D01*
X107841169Y-77552027D01*
X107853099Y-77627350D01*
X107853099Y-78539850D01*
X107832026Y-78638992D01*
X107772450Y-78720992D01*
X107684672Y-78771670D01*
X107609349Y-78783600D01*
X107121849Y-78783600D01*
X107022707Y-78762527D01*
X106940707Y-78702951D01*
X106890029Y-78615173D01*
X106878099Y-78539850D01*
X106878099Y-77627350D01*
X106899172Y-77528208D01*
X106958748Y-77446208D01*
X107046526Y-77395530D01*
X107121849Y-77383600D01*
X107609349Y-77383600D01*
X107708491Y-77404673D01*
X107708491Y-77404673D01*
G37*
D20*
X107365599Y-78083600D03*
D10*
G36*
X105833491Y-77404673D02*
G01*
X105915491Y-77464249D01*
X105966169Y-77552027D01*
X105978099Y-77627350D01*
X105978099Y-78539850D01*
X105957026Y-78638992D01*
X105897450Y-78720992D01*
X105809672Y-78771670D01*
X105734349Y-78783600D01*
X105246849Y-78783600D01*
X105147707Y-78762527D01*
X105065707Y-78702951D01*
X105015029Y-78615173D01*
X105003099Y-78539850D01*
X105003099Y-77627350D01*
X105024172Y-77528208D01*
X105083748Y-77446208D01*
X105171526Y-77395530D01*
X105246849Y-77383600D01*
X105734349Y-77383600D01*
X105833491Y-77404673D01*
X105833491Y-77404673D01*
G37*
D20*
X105490599Y-78083600D03*
D10*
G36*
X95673493Y-77404673D02*
G01*
X95755493Y-77464249D01*
X95806171Y-77552027D01*
X95818101Y-77627350D01*
X95818101Y-78539850D01*
X95797028Y-78638992D01*
X95737452Y-78720992D01*
X95649674Y-78771670D01*
X95574351Y-78783600D01*
X95086851Y-78783600D01*
X94987709Y-78762527D01*
X94905709Y-78702951D01*
X94855031Y-78615173D01*
X94843101Y-78539850D01*
X94843101Y-77627350D01*
X94864174Y-77528208D01*
X94923750Y-77446208D01*
X95011528Y-77395530D01*
X95086851Y-77383600D01*
X95574351Y-77383600D01*
X95673493Y-77404673D01*
X95673493Y-77404673D01*
G37*
D20*
X95330601Y-78083600D03*
D10*
G36*
X97548493Y-77404673D02*
G01*
X97630493Y-77464249D01*
X97681171Y-77552027D01*
X97693101Y-77627350D01*
X97693101Y-78539850D01*
X97672028Y-78638992D01*
X97612452Y-78720992D01*
X97524674Y-78771670D01*
X97449351Y-78783600D01*
X96961851Y-78783600D01*
X96862709Y-78762527D01*
X96780709Y-78702951D01*
X96730031Y-78615173D01*
X96718101Y-78539850D01*
X96718101Y-77627350D01*
X96739174Y-77528208D01*
X96798750Y-77446208D01*
X96886528Y-77395530D01*
X96961851Y-77383600D01*
X97449351Y-77383600D01*
X97548493Y-77404673D01*
X97548493Y-77404673D01*
G37*
D20*
X97205601Y-78083600D03*
D10*
G36*
X93902492Y-82077173D02*
G01*
X93984492Y-82136749D01*
X94035170Y-82224527D01*
X94047100Y-82299850D01*
X94047100Y-82787350D01*
X94026027Y-82886492D01*
X93966451Y-82968492D01*
X93878673Y-83019170D01*
X93803350Y-83031100D01*
X92890850Y-83031100D01*
X92791708Y-83010027D01*
X92709708Y-82950451D01*
X92659030Y-82862673D01*
X92647100Y-82787350D01*
X92647100Y-82299850D01*
X92668173Y-82200708D01*
X92727749Y-82118708D01*
X92815527Y-82068030D01*
X92890850Y-82056100D01*
X93803350Y-82056100D01*
X93902492Y-82077173D01*
X93902492Y-82077173D01*
G37*
D20*
X93347100Y-82543600D03*
D10*
G36*
X93902492Y-83952173D02*
G01*
X93984492Y-84011749D01*
X94035170Y-84099527D01*
X94047100Y-84174850D01*
X94047100Y-84662350D01*
X94026027Y-84761492D01*
X93966451Y-84843492D01*
X93878673Y-84894170D01*
X93803350Y-84906100D01*
X92890850Y-84906100D01*
X92791708Y-84885027D01*
X92709708Y-84825451D01*
X92659030Y-84737673D01*
X92647100Y-84662350D01*
X92647100Y-84174850D01*
X92668173Y-84075708D01*
X92727749Y-83993708D01*
X92815527Y-83943030D01*
X92890850Y-83931100D01*
X93803350Y-83931100D01*
X93902492Y-83952173D01*
X93902492Y-83952173D01*
G37*
D20*
X93347100Y-84418600D03*
D10*
G36*
X115301992Y-89692573D02*
G01*
X115383992Y-89752149D01*
X115434670Y-89839927D01*
X115446600Y-89915250D01*
X115446600Y-90402750D01*
X115425527Y-90501892D01*
X115365951Y-90583892D01*
X115278173Y-90634570D01*
X115202850Y-90646500D01*
X114290350Y-90646500D01*
X114191208Y-90625427D01*
X114109208Y-90565851D01*
X114058530Y-90478073D01*
X114046600Y-90402750D01*
X114046600Y-89915250D01*
X114067673Y-89816108D01*
X114127249Y-89734108D01*
X114215027Y-89683430D01*
X114290350Y-89671500D01*
X115202850Y-89671500D01*
X115301992Y-89692573D01*
X115301992Y-89692573D01*
G37*
D20*
X114746600Y-90159000D03*
D10*
G36*
X115301992Y-87817573D02*
G01*
X115383992Y-87877149D01*
X115434670Y-87964927D01*
X115446600Y-88040250D01*
X115446600Y-88527750D01*
X115425527Y-88626892D01*
X115365951Y-88708892D01*
X115278173Y-88759570D01*
X115202850Y-88771500D01*
X114290350Y-88771500D01*
X114191208Y-88750427D01*
X114109208Y-88690851D01*
X114058530Y-88603073D01*
X114046600Y-88527750D01*
X114046600Y-88040250D01*
X114067673Y-87941108D01*
X114127249Y-87859108D01*
X114215027Y-87808430D01*
X114290350Y-87796500D01*
X115202850Y-87796500D01*
X115301992Y-87817573D01*
X115301992Y-87817573D01*
G37*
D20*
X114746600Y-88284000D03*
D10*
G36*
X105920824Y-80684212D02*
G01*
X105994413Y-80737678D01*
X106039894Y-80816453D01*
X106050600Y-80884050D01*
X106050600Y-81396550D01*
X106031688Y-81485524D01*
X105978222Y-81559113D01*
X105899447Y-81604594D01*
X105831850Y-81615300D01*
X105394350Y-81615300D01*
X105305376Y-81596388D01*
X105231787Y-81542922D01*
X105186306Y-81464147D01*
X105175600Y-81396550D01*
X105175600Y-80884050D01*
X105194512Y-80795076D01*
X105247978Y-80721487D01*
X105326753Y-80676006D01*
X105394350Y-80665300D01*
X105831850Y-80665300D01*
X105920824Y-80684212D01*
X105920824Y-80684212D01*
G37*
D15*
X105613100Y-81140300D03*
D10*
G36*
X107495824Y-80684212D02*
G01*
X107569413Y-80737678D01*
X107614894Y-80816453D01*
X107625600Y-80884050D01*
X107625600Y-81396550D01*
X107606688Y-81485524D01*
X107553222Y-81559113D01*
X107474447Y-81604594D01*
X107406850Y-81615300D01*
X106969350Y-81615300D01*
X106880376Y-81596388D01*
X106806787Y-81542922D01*
X106761306Y-81464147D01*
X106750600Y-81396550D01*
X106750600Y-80884050D01*
X106769512Y-80795076D01*
X106822978Y-80721487D01*
X106901753Y-80676006D01*
X106969350Y-80665300D01*
X107406850Y-80665300D01*
X107495824Y-80684212D01*
X107495824Y-80684212D01*
G37*
D15*
X107188100Y-81140300D03*
D10*
G36*
X95978823Y-80802512D02*
G01*
X96052412Y-80855978D01*
X96097893Y-80934753D01*
X96108599Y-81002350D01*
X96108599Y-81514850D01*
X96089687Y-81603824D01*
X96036221Y-81677413D01*
X95957446Y-81722894D01*
X95889849Y-81733600D01*
X95452349Y-81733600D01*
X95363375Y-81714688D01*
X95289786Y-81661222D01*
X95244305Y-81582447D01*
X95233599Y-81514850D01*
X95233599Y-81002350D01*
X95252511Y-80913376D01*
X95305977Y-80839787D01*
X95384752Y-80794306D01*
X95452349Y-80783600D01*
X95889849Y-80783600D01*
X95978823Y-80802512D01*
X95978823Y-80802512D01*
G37*
D15*
X95671099Y-81258600D03*
D10*
G36*
X97553823Y-80802512D02*
G01*
X97627412Y-80855978D01*
X97672893Y-80934753D01*
X97683599Y-81002350D01*
X97683599Y-81514850D01*
X97664687Y-81603824D01*
X97611221Y-81677413D01*
X97532446Y-81722894D01*
X97464849Y-81733600D01*
X97027349Y-81733600D01*
X96938375Y-81714688D01*
X96864786Y-81661222D01*
X96819305Y-81582447D01*
X96808599Y-81514850D01*
X96808599Y-81002350D01*
X96827511Y-80913376D01*
X96880977Y-80839787D01*
X96959752Y-80794306D01*
X97027349Y-80783600D01*
X97464849Y-80783600D01*
X97553823Y-80802512D01*
X97553823Y-80802512D01*
G37*
D15*
X97246099Y-81258600D03*
D10*
G36*
X96867324Y-82465512D02*
G01*
X96940913Y-82518978D01*
X96986394Y-82597753D01*
X96997100Y-82665350D01*
X96997100Y-83102850D01*
X96978188Y-83191824D01*
X96924722Y-83265413D01*
X96845947Y-83310894D01*
X96778350Y-83321600D01*
X96265850Y-83321600D01*
X96176876Y-83302688D01*
X96103287Y-83249222D01*
X96057806Y-83170447D01*
X96047100Y-83102850D01*
X96047100Y-82665350D01*
X96066012Y-82576376D01*
X96119478Y-82502787D01*
X96198253Y-82457306D01*
X96265850Y-82446600D01*
X96778350Y-82446600D01*
X96867324Y-82465512D01*
X96867324Y-82465512D01*
G37*
D15*
X96522100Y-82884100D03*
D10*
G36*
X96867324Y-84040512D02*
G01*
X96940913Y-84093978D01*
X96986394Y-84172753D01*
X96997100Y-84240350D01*
X96997100Y-84677850D01*
X96978188Y-84766824D01*
X96924722Y-84840413D01*
X96845947Y-84885894D01*
X96778350Y-84896600D01*
X96265850Y-84896600D01*
X96176876Y-84877688D01*
X96103287Y-84824222D01*
X96057806Y-84745447D01*
X96047100Y-84677850D01*
X96047100Y-84240350D01*
X96066012Y-84151376D01*
X96119478Y-84077787D01*
X96198253Y-84032306D01*
X96265850Y-84021600D01*
X96778350Y-84021600D01*
X96867324Y-84040512D01*
X96867324Y-84040512D01*
G37*
D15*
X96522100Y-84459100D03*
D10*
G36*
X108564771Y-82461631D02*
G01*
X108645877Y-82515824D01*
X108700070Y-82596930D01*
X108719100Y-82692601D01*
X108719100Y-84267601D01*
X108700070Y-84363272D01*
X108645877Y-84444378D01*
X108564771Y-84498571D01*
X108469100Y-84517601D01*
X106419100Y-84517601D01*
X106323429Y-84498571D01*
X106242323Y-84444378D01*
X106188130Y-84363272D01*
X106169100Y-84267601D01*
X106169100Y-82692601D01*
X106188130Y-82596930D01*
X106242323Y-82515824D01*
X106323429Y-82461631D01*
X106419100Y-82442601D01*
X108469100Y-82442601D01*
X108564771Y-82461631D01*
X108564771Y-82461631D01*
G37*
D21*
X107444100Y-83480101D03*
D10*
G36*
X108564771Y-88686631D02*
G01*
X108645877Y-88740824D01*
X108700070Y-88821930D01*
X108719100Y-88917601D01*
X108719100Y-90492601D01*
X108700070Y-90588272D01*
X108645877Y-90669378D01*
X108564771Y-90723571D01*
X108469100Y-90742601D01*
X106419100Y-90742601D01*
X106323429Y-90723571D01*
X106242323Y-90669378D01*
X106188130Y-90588272D01*
X106169100Y-90492601D01*
X106169100Y-88917601D01*
X106188130Y-88821930D01*
X106242323Y-88740824D01*
X106323429Y-88686631D01*
X106419100Y-88667601D01*
X108469100Y-88667601D01*
X108564771Y-88686631D01*
X108564771Y-88686631D01*
G37*
D21*
X107444100Y-89705101D03*
D10*
G36*
X126916271Y-82423530D02*
G01*
X126997377Y-82477723D01*
X127051570Y-82558829D01*
X127070600Y-82654500D01*
X127070600Y-84229500D01*
X127051570Y-84325171D01*
X126997377Y-84406277D01*
X126916271Y-84460470D01*
X126820600Y-84479500D01*
X124770600Y-84479500D01*
X124674929Y-84460470D01*
X124593823Y-84406277D01*
X124539630Y-84325171D01*
X124520600Y-84229500D01*
X124520600Y-82654500D01*
X124539630Y-82558829D01*
X124593823Y-82477723D01*
X124674929Y-82423530D01*
X124770600Y-82404500D01*
X126820600Y-82404500D01*
X126916271Y-82423530D01*
X126916271Y-82423530D01*
G37*
D21*
X125795600Y-83442000D03*
D10*
G36*
X126916271Y-88648530D02*
G01*
X126997377Y-88702723D01*
X127051570Y-88783829D01*
X127070600Y-88879500D01*
X127070600Y-90454500D01*
X127051570Y-90550171D01*
X126997377Y-90631277D01*
X126916271Y-90685470D01*
X126820600Y-90704500D01*
X124770600Y-90704500D01*
X124674929Y-90685470D01*
X124593823Y-90631277D01*
X124539630Y-90550171D01*
X124520600Y-90454500D01*
X124520600Y-88879500D01*
X124539630Y-88783829D01*
X124593823Y-88702723D01*
X124674929Y-88648530D01*
X124770600Y-88629500D01*
X126820600Y-88629500D01*
X126916271Y-88648530D01*
X126916271Y-88648530D01*
G37*
D21*
X125795600Y-89667000D03*
D17*
X117145600Y-89704500D03*
X121745600Y-89704500D03*
X119445600Y-89704500D03*
D18*
X119445600Y-83404500D03*
M02*
